<?xml version="1.0" encoding="UTF-8"?> <svg xmlns="http://www.w3.org/2000/svg" xmlns:xlink="http://www.w3.org/1999/xlink" id="Layer_4" data-name="Layer 4" viewBox="0 0 806 453"><defs><style>.cls-1{fill:#e9f5f5;}.cls-11,.cls-13,.cls-19,.cls-2,.cls-20,.cls-21,.cls-29,.cls-3,.cls-32,.cls-4,.cls-7{fill:#fff;}.cls-10,.cls-12,.cls-13,.cls-19,.cls-2,.cls-20,.cls-21,.cls-24,.cls-28,.cls-29,.cls-3,.cls-30,.cls-41,.cls-42,.cls-9{stroke:#025546;}.cls-10,.cls-12,.cls-16,.cls-17,.cls-18,.cls-2,.cls-28,.cls-3,.cls-32,.cls-33,.cls-4,.cls-5,.cls-6,.cls-7,.cls-8,.cls-9{stroke-width:0.7px;}.cls-10,.cls-13,.cls-18,.cls-20,.cls-21,.cls-24,.cls-28,.cls-29,.cls-3,.cls-30,.cls-32,.cls-33,.cls-4,.cls-41,.cls-5,.cls-9{stroke-linejoin:round;}.cls-4,.cls-5{stroke:#fecf28;}.cls-12,.cls-16,.cls-23,.cls-24,.cls-25,.cls-28,.cls-37,.cls-42,.cls-5,.cls-6,.cls-8,.cls-9{fill:none;}.cls-6{stroke:#88cac9;}.cls-7{stroke:#5dab47;}.cls-17,.cls-18,.cls-22,.cls-23,.cls-26,.cls-31,.cls-32,.cls-33,.cls-8{stroke:#045345;}.cls-10,.cls-15,.cls-41{fill:#025546;}.cls-13{stroke-width:0.76px;}.cls-14,.cls-30,.cls-33{fill:#88cac9;}.cls-16,.cls-25,.cls-37{stroke:#fff;}.cls-17,.cls-22,.cls-38,.cls-39,.cls-40{fill:#5dab47;}.cls-18{fill:url(#linear-gradient);}.cls-19,.cls-20,.cls-22,.cls-23,.cls-24,.cls-25,.cls-26,.cls-41,.cls-42{stroke-width:0.73px;}.cls-21{stroke-width:0.79px;}.cls-26{fill:#045345;}.cls-27,.cls-31{fill:#fed03d;}.cls-28,.cls-34,.cls-35,.cls-38,.cls-39{isolation:isolate;}.cls-28,.cls-35,.cls-39{opacity:0.3;}.cls-29,.cls-30,.cls-31{stroke-width:0.62px;}.cls-34,.cls-35,.cls-36{fill:#e9662e;}.cls-34,.cls-38{opacity:0.1;}.cls-37{stroke-linecap:round;stroke-width:2.1px;}</style><linearGradient id="linear-gradient" x1="-419.8" y1="34.3" x2="-420.53" y2="34.45" gradientTransform="translate(15807.77 -376.38) scale(37 14.16)" gradientUnits="userSpaceOnUse"><stop offset="0" stop-color="#b9e0df"></stop><stop offset="0.14" stop-color="#c8e6e6"></stop><stop offset="0.49" stop-color="#e6f4f4"></stop><stop offset="0.79" stop-color="#f8fcfc"></stop><stop offset="1" stop-color="#fff"></stop></linearGradient></defs><g id="Overview-Page"><g id="Desktop---SM---Overview_1" data-name="Desktop---SM---Overview 1"><g id="DecisionCounsel-SM2-revised-211028"><path id="Path" class="cls-1" d="M393.33,127.06C334.66,93.41,265.14,83.3,199.54,100c-18.94,4.85-36.52,11.56-51.4,20.17-65.13,37.6-65.48,98.5-.75,136.12L437,423.41c64.72,37.6,170,37.6,235.16,0s65.49-98.53.75-136.14Z"></path><path id="Path-2" class="cls-2" d="M381,123c-58.67-33.64-128.19-43.75-193.78-27-18.94,4.87-36.52,11.57-51.41,20.18-65.12,37.6-65.48,98.53-.75,136.15L424.59,419.33c64.73,37.6,170,37.6,235.17,0s65.48-98.52.75-136.15Z"></path><path id="Path-3" class="cls-2" d="M379,114.69C320.29,81,250.76,70.93,185.16,87.66c-18.93,4.85-36.52,11.56-51.4,20.17C68.63,145.43,68.28,206.35,133,244L422.58,411.07c64.74,37.6,170,37.6,235.17,0s65.47-98.53.75-136.15Z"></path><polygon id="Path-4" class="cls-3" points="169.78 219.32 155.61 227.54 141.32 219.32 155.5 211.07 169.78 219.32"></polygon><polygon id="Path-5" class="cls-3" points="169.78 219.32 169.74 239.7 155.56 247.96 155.61 227.54 169.78 219.32"></polygon><polygon id="Path-6" class="cls-3" points="155.61 227.54 155.56 247.96 141.28 239.7 141.32 219.32 147.18 222.68 150.04 224.33 155.61 227.54"></polygon><polygon id="Path-7" class="cls-4" points="164.72 215.92 155.56 221.22 146.33 215.92 155.5 210.62 164.72 215.92"></polygon><polygon id="Path-8" class="cls-4" points="164.72 215.92 164.67 219.08 155.56 224.38 155.56 221.22 164.72 215.92"></polygon><polygon id="Path-9" class="cls-4" points="155.56 221.22 155.56 224.38 146.33 219.08 146.33 215.92 150.14 218.08 152 219.17 155.56 221.22"></polygon><line id="Path-10" class="cls-5" x1="161.92" y1="215.92" x2="161.92" y2="205.96"></line><line id="Path-11" class="cls-5" x1="155.61" y1="213.32" x2="155.61" y2="203.36"></line><polygon id="Path-12" class="cls-3" points="354.5 328.87 340.32 337.13 326.04 328.92 340.22 320.66 354.5 328.87"></polygon><polygon id="Path-13" class="cls-3" points="354.5 328.87 354.45 349.29 340.27 357.55 340.32 337.13 354.5 328.87"></polygon><polygon id="Path-14" class="cls-3" points="340.32 337.13 340.27 357.55 326 349.29 326.04 328.92 331.9 332.26 334.76 333.92 340.32 337.13"></polygon><polygon id="Path-15" class="cls-4" points="349.44 325.51 340.27 330.81 331.05 325.51 340.22 320.21 349.44 325.51"></polygon><polygon id="Path-16" class="cls-4" points="349.44 325.51 349.39 328.67 340.27 333.97 340.27 330.81 349.44 325.51"></polygon><polygon id="Path-17" class="cls-4" points="340.27 330.81 340.27 333.97 331.05 328.67 331.05 325.51 334.87 327.71 336.71 328.72 340.27 330.81"></polygon><line id="Path-18" class="cls-5" x1="346.63" y1="325.51" x2="346.63" y2="315.55"></line><line id="Path-19" class="cls-5" x1="340.32" y1="322.86" x2="340.32" y2="312.95"></line><polygon id="Path-20" class="cls-3" points="198.29 88.81 184.06 97.02 169.83 88.81 184.01 80.59 198.29 88.81"></polygon><polygon id="Path-21" class="cls-3" points="198.29 88.81 198.19 109.24 184.01 117.44 184.06 97.02 198.29 88.81"></polygon><polygon id="Path-22" class="cls-3" points="184.06 97.02 184.01 117.44 169.74 109.24 169.83 88.81 175.69 92.21 178.5 93.81 184.06 97.02"></polygon><polygon id="Path-23" class="cls-4" points="193.23 85.4 184.06 90.71 174.84 85.4 184.01 80.1 193.23 85.4"></polygon><polygon id="Path-24" class="cls-4" points="193.23 85.4 193.18 88.56 184.01 93.86 184.06 90.71 193.23 85.4"></polygon><polygon id="Path-25" class="cls-4" points="184.06 90.71 184.01 93.86 174.79 88.56 174.84 85.4 178.65 87.6 180.45 88.66 184.06 90.71"></polygon><line id="Path-26" class="cls-5" x1="190.37" y1="85.4" x2="190.37" y2="75.49"></line><line id="Path-27" class="cls-5" x1="184.06" y1="82.8" x2="184.06" y2="72.84"></line><polygon id="Path-28" class="cls-3" points="589.32 223.03 575.14 231.29 560.92 223.03 575.09 214.82 589.32 223.03"></polygon><polygon id="Path-29" class="cls-3" points="589.32 223.03 589.27 243.46 575.09 251.66 575.14 231.29 589.32 223.03"></polygon><polygon id="Path-30" class="cls-3" points="575.14 231.29 575.09 251.66 560.81 243.46 560.92 223.03 566.78 226.43 569.58 228.04 575.14 231.29"></polygon><polygon id="Path-31" class="cls-4" points="584.26 219.62 575.14 224.98 565.92 219.62 575.09 214.32 584.26 219.62"></polygon><polygon id="Path-32" class="cls-4" points="584.26 219.62 584.26 222.78 575.09 228.09 575.14 224.98 584.26 219.62"></polygon><polygon id="Path-33" class="cls-4" points="575.14 224.98 575.09 228.09 565.88 222.78 565.92 219.62 569.73 221.83 571.53 222.88 575.14 224.98"></polygon><line id="Path-34" class="cls-5" x1="581.45" y1="219.62" x2="581.45" y2="209.71"></line><line id="Path-35" class="cls-5" x1="575.14" y1="217.02" x2="575.14" y2="207.06"></line><polygon id="Path-36" class="cls-3" points="405.71 116.29 391.47 124.55 377.25 116.29 391.43 108.08 405.71 116.29"></polygon><polygon id="Path-37" class="cls-3" points="405.71 116.29 405.6 136.72 391.43 144.93 391.47 124.55 405.71 116.29"></polygon><polygon id="Path-38" class="cls-3" points="391.47 124.55 391.43 144.93 377.15 136.72 377.25 116.29 383.11 119.7 385.91 121.35 391.47 124.55"></polygon><polygon id="Path-39" class="cls-4" points="400.64 112.94 391.47 118.25 382.25 112.94 391.43 107.63 400.64 112.94"></polygon><polygon id="Path-40" class="cls-4" points="400.64 112.94 400.6 116.09 391.43 121.4 391.47 118.25 400.64 112.94"></polygon><polygon id="Path-41" class="cls-4" points="391.47 118.25 391.43 121.4 382.21 116.09 382.25 112.94 386.06 115.09 387.87 116.14 391.47 118.25"></polygon><line id="Path-42" class="cls-5" x1="397.78" y1="112.94" x2="397.78" y2="102.98"></line><line id="Path-43" class="cls-5" x1="391.47" y1="110.28" x2="391.47" y2="100.37"></line><polygon id="Path-44" class="cls-3" points="661.31 268.64 642.23 279.9 596.43 253.02 615.52 241.75 661.31 268.64"></polygon><polygon id="Path-45" class="cls-3" points="661.31 268.64 661.26 286.01 642.17 297.27 642.23 279.9 661.31 268.64"></polygon><polygon id="Path-46" class="cls-3" points="642.23 279.9 642.17 297.27 596.38 270.44 596.43 253.02 601.44 255.93 603.85 257.32 642.23 279.9"></polygon><polygon id="Path-47" class="cls-3" points="661.31 251.27 657.4 253.72 611.61 226.84 615.52 224.43 661.31 251.27"></polygon><polygon id="Path-48" class="cls-3" points="661.31 251.27 661.26 268.69 657.35 271.09 657.4 253.72 661.31 251.27"></polygon><polygon id="Path-49" class="cls-3" points="657.4 253.72 657.35 271.09 611.57 244.21 611.61 226.84 616.62 229.74 619.03 231.09 657.4 253.72"></polygon><polygon id="Path-50" class="cls-3" points="115.47 159.25 134.61 170.57 180.41 143.68 161.27 132.42 115.47 159.25"></polygon><polygon id="Path-51" class="cls-3" points="115.47 159.25 115.52 176.67 134.66 187.93 134.61 170.57 115.47 159.25"></polygon><polygon id="Path-52" class="cls-3" points="134.61 170.57 134.66 187.93 180.45 161.05 180.41 143.68 175.39 146.58 172.99 147.99 134.61 170.57"></polygon><polygon id="Path-53" class="cls-3" points="115.47 141.92 119.38 144.33 165.17 117.5 161.27 115.09 115.47 141.92"></polygon><polygon id="Path-54" class="cls-3" points="115.47 141.92 115.52 159.35 119.43 161.75 119.38 144.33 115.47 141.92"></polygon><polygon id="Path-55" class="cls-3" points="119.38 144.33 119.43 161.75 165.23 134.87 165.17 117.5 160.16 120.35 157.76 121.75 119.38 144.33"></polygon><path id="Path-56" class="cls-1" d="M424.44,176.17a1.27,1.27,0,0,0-.78,1.62,1.25,1.25,0,0,0,.78.79l13.26,7.8a4.62,4.62,0,0,0,4.16,0l15.28-8.84a1.26,1.26,0,0,0,0-2.39l-13.26-7.82a4.75,4.75,0,0,0-4.16,0Z"></path><path id="Path-57" class="cls-2" d="M439.2,186.88a1.24,1.24,0,0,0,1.26-1.22V169.2a1.26,1.26,0,1,0-2.51,0v16.41a1.25,1.25,0,0,0,1.25,1.27Z"></path><path id="Path-58" class="cls-1" d="M353.3,233.19c-4.11,2.41-4.16,6.26-.06,8.62l27.22,15.71a16.3,16.3,0,0,0,14.92,0l74.2-42.2c4.11-2.41,4.16-6.26.05-8.61L442.38,191a16.32,16.32,0,0,0-14.93,0Z"></path><path id="Path-59" class="cls-1" d="M383.76,196.44a1.27,1.27,0,0,0,0,2.41l13.26,7.8a4.64,4.64,0,0,0,4.17,0l15.28-8.84a1.27,1.27,0,0,0,.78-1.62,1.31,1.31,0,0,0-.78-.78L403.2,187.6a4.66,4.66,0,0,0-4.15,0Z"></path><path id="Path-60" class="cls-2" d="M398.54,207.16a1.25,1.25,0,0,0,.88-.36,1.21,1.21,0,0,0,.36-.89V189.53a1.26,1.26,0,0,0-1.14-1.36,1.27,1.27,0,0,0-1.36,1.15.74.74,0,0,0,0,.21V205.9a1.25,1.25,0,0,0,1.23,1.25h0Z"></path><path id="Path-61" class="cls-2" d="M384.16,198.64a1.32,1.32,0,0,0,1.26-1.34v-18a1.28,1.28,0,0,0-1.28-1.26,1.25,1.25,0,0,0-1.23,1.05V197.3a1.34,1.34,0,0,0,1.25,1.34Z"></path><path id="Path-62" class="cls-2" d="M416.08,197.15a1.36,1.36,0,0,0,1.24-1.35v-18a1.25,1.25,0,0,0-2.5-.2V195.8a1.35,1.35,0,0,0,1.26,1.35Z"></path><path id="Path-63" class="cls-2" d="M383.76,176.77a1.27,1.27,0,0,0,0,2.41L397,187a4.64,4.64,0,0,0,4.17,0l15.28-8.84a1.27,1.27,0,0,0,0-2.4L403.2,168a4.66,4.66,0,0,0-4.15,0Z"></path><path id="Path-64" class="cls-2" d="M383.76,179.18,397,187a4.64,4.64,0,0,0,4.17,0l15.28-8.84a1.41,1.41,0,0,0,.88-1.2v1.61a1.46,1.46,0,0,1-.88,1.2l-15.28,8.84a4.64,4.64,0,0,1-4.17,0l-13.26-7.8a1.4,1.4,0,0,1-.88-1.21V178a1.49,1.49,0,0,0,.88,1.16Z"></path><path id="Path-65" class="cls-3" d="M386.21,155.05a4.11,4.11,0,0,0-1.85,3.2v21.22l19.48-11.26V147A1.13,1.13,0,0,0,402,146Z"></path><path id="Path-66" class="cls-3" d="M391.77,173.82s-.7,6.4,4.62,7.66l15.91-9.16-3.76-2.11Z"></path><path id="Path-67" class="cls-2" d="M384.76,154.17l15.73-9.07a1.27,1.27,0,0,1,1.31-.15l1.45.89a1.21,1.21,0,0,0-1.3.15l-15.74,9.06a4.11,4.11,0,0,0-1.85,3.2v21.22c0,.05-1.45-.88-1.45-.88l-.05-21.22A4.13,4.13,0,0,1,384.76,154.17Z"></path><path id="Path-68" class="cls-1" d="M345.49,221.93a1.27,1.27,0,0,0,0,2.4l13.26,7.81a4.68,4.68,0,0,0,4.16,0l15.28-8.84a1.27,1.27,0,0,0,0-2.4l-13.26-7.81a4.68,4.68,0,0,0-4.16,0Z"></path><path id="Path-69" class="cls-2" d="M360.16,232.64a1.24,1.24,0,0,0,1.25-1.22V215a1.25,1.25,0,0,0-2.5,0v16.42a1.21,1.21,0,0,0,.36.89A1.29,1.29,0,0,0,360.16,232.64Z"></path><path id="Path-70" class="cls-2" d="M345.84,224.13a1.32,1.32,0,0,0,1.24-1.35v-18a1.25,1.25,0,0,0-2.5-.21v18.18A1.35,1.35,0,0,0,345.84,224.13Z"></path><path id="Path-71" class="cls-2" d="M377.75,222.63a1.37,1.37,0,0,0,1.25-1.35v-18a1.25,1.25,0,0,0-2.5-.2v18.18a1.32,1.32,0,0,0,1.25,1.35Z"></path><path id="Path-72" class="cls-2" d="M345.49,202.3a1.28,1.28,0,0,0,0,2.41l13.26,7.81a4.68,4.68,0,0,0,4.16,0l15.28-8.84a1.26,1.26,0,0,0,0-2.4l-13.26-7.82a4.73,4.73,0,0,0-4.15,0Z"></path><path id="Path-73" class="cls-2" d="M345.43,204.71l13.32,7.81a4.68,4.68,0,0,0,4.16,0l15.28-8.84a1.45,1.45,0,0,0,.89-1.21v1.61a1.47,1.47,0,0,1-.89,1.2l-15.28,8.77a4.75,4.75,0,0,1-4.16,0l-13.26-7.82a1.37,1.37,0,0,1-.88-1.2v-1.6A1.65,1.65,0,0,0,345.43,204.71Z"></path><path id="Path-74" class="cls-3" d="M347.89,180.52a4.16,4.16,0,0,0-1.86,3.21l.05,21.17,19.45-11.21,0-21.13a1.13,1.13,0,0,0-.92-1.31,1.15,1.15,0,0,0-.94.26Z"></path><path id="Path-75" class="cls-2" d="M346.44,179.73l15.73-9.07a1.23,1.23,0,0,1,1.29-.15l1.46.89a1.23,1.23,0,0,0-1.31.15l-15.72,9a4.14,4.14,0,0,0-1.86,3.21l.05,21.17c0,.05-1.45-.88-1.45-.88l0-21.18A4,4,0,0,1,346.44,179.73Z"></path><path id="Path-76" class="cls-2" d="M387.87,259.37a1.5,1.5,0,0,0,1.5-1.5h0V232.64a1.51,1.51,0,0,0-3,0v25.19a1.5,1.5,0,0,0,1.46,1.54Z"></path><path id="Path-77" class="cls-2" d="M471,212.87a1.55,1.55,0,0,0,1.5-1.61v-27a1.5,1.5,0,1,0-3,0v27a1.59,1.59,0,0,0,1.5,1.61Z"></path><path id="Path-78" class="cls-2" d="M351.68,239.7a1.57,1.57,0,0,0,1.5-1.6h0V211a1.5,1.5,0,0,0-3,0V238.1A1.56,1.56,0,0,0,351.68,239.7Z"></path><path id="Path-79" class="cls-2" d="M353.3,206.5a17.38,17.38,0,0,1-3.11,1.16s-.05,2.5,0,3.35c.05,1.51,1.1,3,3.05,4.11l27.22,15.72a16.36,16.36,0,0,0,14.92,0l74.2-42.19c1.95-1.11,3-2.56,3.1-4.06a19.79,19.79,0,0,0,0-3.61l-30.3-16.66a16.32,16.32,0,0,0-14.93,0Z"></path><path id="Path-80" class="cls-2" d="M353.3,203.68c-4.11,2.4-4.16,6.25-.06,8.61L380.46,228a16.36,16.36,0,0,0,14.92,0l74.2-42.21c4.11-2.41,4.16-6.26.05-8.61l-27.25-15.72a16.32,16.32,0,0,0-14.93,0Z"></path><path id="Path-81" class="cls-2" d="M358.81,204.21a.88.88,0,0,0-.52,1.14.9.9,0,0,0,.52.51l5.26,3a3.18,3.18,0,0,0,2.85,0l18.5-10.21a.89.89,0,0,0,0-1.66l-5.31-3a3.18,3.18,0,0,0-2.85,0Z"></path><path id="Path-82" class="cls-2" d="M380.5,217.42a.81.81,0,0,0-.46,1,.82.82,0,0,0,.46.47l4.71,2.7a2.88,2.88,0,0,0,2.56,0l9.47-5.46a.89.89,0,0,0,.54-.89v-1.54l-5.2-1.77a2.82,2.82,0,0,0-2.56,0Z"></path><path id="Path-83" class="cls-2" d="M380.5,215.72a.8.8,0,0,0-.52.75.81.81,0,0,0,.52.75l4.71,2.7a2.88,2.88,0,0,0,2.56,0l9.47-5.45a.8.8,0,0,0,0-1.5l-4.72-2.71a2.86,2.86,0,0,0-2.55,0Z"></path><path id="Path-84" class="cls-2" d="M376.65,197.1a5.57,5.57,0,0,0-2.56,4.42V220.9c0,1.6,1.16,2.25,2.56,1.45l24.35-14a5.6,5.6,0,0,0,2.56-4.42l-.06-19.38c0-1.6-1.14-2.25-2.55-1.45Z"></path><path id="Path-85" class="cls-3" d="M374.67,196l24.34-14a1.69,1.69,0,0,1,1.77-.15l2,1.15a1.76,1.76,0,0,0-1.77.2l-24.35,14a5.53,5.53,0,0,0-2.55,4.42v19.37a1.8,1.8,0,0,0,.75,1.65l-2-1.14a1.88,1.88,0,0,1-.75-1.66l-.05-19.37a5.71,5.71,0,0,1,2.55-4.42Z"></path><path id="Path-86" class="cls-6" d="M388.81,200.6a4,4,0,0,0-1.77,3.15c0,1.15.81,1.61,1.77,1.06a4,4,0,0,0,1.77-3.16C390.68,200.45,389.87,200,388.81,200.6Z"></path><path id="Path-87" class="cls-1" d="M504.63,222.58a1.26,1.26,0,0,0,0,2.4l13.26,7.81a4.68,4.68,0,0,0,4.16,0L537.34,224a1.27,1.27,0,0,0,0-2.41l-13.26-7.8a4.62,4.62,0,0,0-4.16,0Z"></path><path id="Path-88" class="cls-2" d="M519.33,233.35a1.24,1.24,0,0,0,1.25-1.22v0h0V215.67a1.26,1.26,0,0,0-2.51,0v16.42a1.33,1.33,0,0,0,1.26,1.26Z"></path><path id="Path-89" class="cls-1" d="M433.46,279.6c-4.11,2.41-4.16,6.26-.06,8.61l27.22,15.72a16.3,16.3,0,0,0,14.92,0l74.17-42.2c4.12-2.4,4.16-6.26.06-8.61l-27.21-15.73a16.44,16.44,0,0,0-14.93,0Z"></path><path id="Path-90" class="cls-1" d="M464,242.86a1.27,1.27,0,0,0,0,2.4l13.26,7.81a4.66,4.66,0,0,0,4.15,0l15.29-8.84a1.27,1.27,0,0,0,.78-1.62,1.25,1.25,0,0,0-.78-.79L483.4,234a4.62,4.62,0,0,0-4.16,0Z"></path><path id="Path-91" class="cls-2" d="M478.65,253.57a1.26,1.26,0,0,0,.89-.37,1.17,1.17,0,0,0,.36-.88V235.9a1.25,1.25,0,1,0-2.5-.21.74.74,0,0,0,0,.21v16.4A1.27,1.27,0,0,0,478.65,253.57Z"></path><path id="Path-92" class="cls-2" d="M464.37,245.06a1.3,1.3,0,0,0,1.23-1.35h0V225.78a1.25,1.25,0,1,0-2.49-.26.11.11,0,0,0,0,0v18.18a1.26,1.26,0,0,0,.35.94,1.22,1.22,0,0,0,.88.41Z"></path><path id="Path-93" class="cls-2" d="M496.28,243.56a1.34,1.34,0,0,0,1.26-1.36v-18A1.26,1.26,0,0,0,495,224a.13.13,0,0,1,0,.06V242.2a1.35,1.35,0,0,0,.34.94,1.31,1.31,0,0,0,.88.42Z"></path><path id="Path-94" class="cls-2" d="M464,223.23a1.27,1.27,0,0,0-.79,1.62,1.29,1.29,0,0,0,.79.79l13.26,7.8a4.6,4.6,0,0,0,4.15,0l15.29-8.84a1.26,1.26,0,0,0,0-2.39l-13.26-7.82a4.75,4.75,0,0,0-4.16,0Z"></path><path id="Path-95" class="cls-2" d="M464,225.64l13.26,7.8a4.6,4.6,0,0,0,4.15,0l15.29-8.84a1.43,1.43,0,0,0,.88-1.19V225a1.46,1.46,0,0,1-.88,1.2l-15.29,8.84a4.6,4.6,0,0,1-4.15,0L464,227.24a1.38,1.38,0,0,1-.89-1.2v-1.6a1.51,1.51,0,0,0,.89,1.2Z"></path><path id="Path-96" class="cls-3" d="M466.37,201.46a4.11,4.11,0,0,0-1.85,3.2l.05,21.17L484,214.62l0-21.22a1.12,1.12,0,0,0-.91-1.3,1.08,1.08,0,0,0-.94.26Z"></path><path id="Path-97" class="cls-2" d="M464.92,200.65l15.73-9.11a1.25,1.25,0,0,1,1.31-.15l1.45.88a1.21,1.21,0,0,0-1.3.15l-15.74,9.11a4.12,4.12,0,0,0-1.85,3.21l.05,21.17a11.19,11.19,0,0,1-1.45-.88l-.05-21.22a4.16,4.16,0,0,1,1.85-3.2Z"></path><path id="Path-98" class="cls-1" d="M425.64,268.34a1.27,1.27,0,0,0-.78,1.62,1.26,1.26,0,0,0,.78.78l13.26,7.81a4.68,4.68,0,0,0,4.16,0l15.28-8.84a1.27,1.27,0,0,0,.79-1.62,1.29,1.29,0,0,0-.79-.79l-13.26-7.81a4.68,4.68,0,0,0-4.16,0Z"></path><path id="Path-99" class="cls-2" d="M440.37,279.05a1.24,1.24,0,0,0,1.26-1.22V261.38a1.26,1.26,0,0,0-2.51,0V277.8a1.25,1.25,0,0,0,1.25,1.25Z"></path><path id="Path-100" class="cls-2" d="M426,270.54a1.33,1.33,0,0,0,1.26-1.35v-18a1.26,1.26,0,0,0-2.51-.19v18.17A1.32,1.32,0,0,0,426,270.54Z"></path><path id="Path-101" class="cls-2" d="M458,269a1.33,1.33,0,0,0,1.25-1.36v-18a1.29,1.29,0,0,0-.52-1.18,1.26,1.26,0,0,0-2,1v18.16A1.32,1.32,0,0,0,458,269Z"></path><path id="Path-102" class="cls-2" d="M425.64,248.71a1.28,1.28,0,0,0,0,2.41l13.26,7.8a4.62,4.62,0,0,0,4.16,0l15.28-8.84a1.27,1.27,0,0,0,.79-1.62,1.25,1.25,0,0,0-.79-.78l-13.26-7.81a4.62,4.62,0,0,0-4.16,0Z"></path><path id="Path-103" class="cls-2" d="M425.64,251.12l13.26,7.8a4.62,4.62,0,0,0,4.16,0l15.28-8.84a1.45,1.45,0,0,0,.89-1.2v1.65a1.47,1.47,0,0,1-.89,1.2l-15.28,8.84a4.68,4.68,0,0,1-4.16,0l-13.26-7.81a1.35,1.35,0,0,1-.88-1.2v-1.65a1.4,1.4,0,0,0,.88,1.21Z"></path><path id="Path-104" class="cls-3" d="M428.05,227a4.12,4.12,0,0,0-1.86,3.2l.05,21.17,19.45-11.21L445.64,219a1.13,1.13,0,0,0-1.86-1Z"></path><path id="Path-105" class="cls-2" d="M426.64,226.13,442.38,217a1.25,1.25,0,0,1,1.3-.15l1.45.89a1.31,1.31,0,0,0-1.3.1L428.1,227a4.14,4.14,0,0,0-1.86,3.2l.06,21.22s-1.46-.88-1.46-.88l0-21.2A4.15,4.15,0,0,1,426.64,226.13Z"></path><path id="Path-106" class="cls-2" d="M468,305.73a1.5,1.5,0,0,0,1.5-1.5h0V279.05a1.51,1.51,0,0,0-3,0h0v25.18a1.51,1.51,0,0,0,1.51,1.5Z"></path><path id="Path-107" class="cls-2" d="M551.24,259.28a1.57,1.57,0,0,0,1.51-1.6v-27a1.51,1.51,0,0,0-3,0v27a1.51,1.51,0,0,0,1.42,1.59Z"></path><path id="Path-108" class="cls-2" d="M431.86,286.11a1.57,1.57,0,0,0,1.5-1.6V257.43a1.51,1.51,0,0,0-3,0v27.08a1.55,1.55,0,0,0,1.5,1.6Z"></path><path id="Path-109" class="cls-2" d="M433.46,252.92a18,18,0,0,1-3.1,1.15s-.05,2.5,0,3.36c.05,1.49,1.1,3,3.05,4.1l27.22,15.72a16.36,16.36,0,0,0,14.92,0L549.71,235c2-1.09,3-2.6,3.11-4a21.64,21.64,0,0,0,0-3.6l-30.18-16.73a16.4,16.4,0,0,0-14.94,0Z"></path><path id="Path-110" class="cls-2" d="M433.46,250.06c-4.11,2.41-4.16,6.26-.06,8.61l27.22,15.73a16.3,16.3,0,0,0,14.92,0l74.17-42.2c4.12-2.41,4.16-6.26.06-8.62l-27.21-15.72a16.38,16.38,0,0,0-14.93,0Z"></path><path id="Path-111" class="cls-2" d="M500.54,224.23c.75.45.75,1.15,0,1.56l-12.92,7.35a2.89,2.89,0,0,1-2.71,0l-7.66-4.51c-.76-.45-.76-1.15,0-1.54l12.92-7.37a3,3,0,0,1,2.71,0Z"></path><path id="Path-112" class="cls-2" d="M495.28,218.27a.37.37,0,0,0-.26.46.43.43,0,0,1,0,.05.58.58,0,0,0,.25.24l6.46,3.66a1.62,1.62,0,0,0,1.36,0l3.81-2.25a.4.4,0,0,0,.24-.2.42.42,0,0,0,0-.31.58.58,0,0,0-.25-.24l-6.41-3.63a1.67,1.67,0,0,0-1.35,0Z"></path><path id="Path-113" class="cls-2" d="M456.71,261.88a3.8,3.8,0,0,0,3.46.05l16.63-9.56a1.07,1.07,0,0,0,0-2l-11.07-6.86a3.83,3.83,0,0,0-3.46,0L445.63,253c-.95.55-1,1.45,0,2Z"></path><path id="Path-114" class="cls-3" d="M456.71,263.43l-11.13-6.86a1.25,1.25,0,0,1-.7-1l.05-1.55a1.22,1.22,0,0,0,.7,1l11.12,6.86a3.8,3.8,0,0,0,3.46.05l16.64-9.56a1.26,1.26,0,0,0,.75-1l-.05,1.56a1.16,1.16,0,0,1-.75,1l-16.63,9.56A3.69,3.69,0,0,1,456.71,263.43Z"></path><path id="Path-115" class="cls-3" d="M459.91,246.46a4.05,4.05,0,0,0-1.77,3l.05,13.22c0,1.1.8,1.56,1.77,1l16.59-9.56a4,4,0,0,0,1.77-3l-.06-13.27c0-1.1-.79-1.54-1.77-1Z"></path><path id="Path-116" class="cls-3" d="M458.56,245.66l16.58-9.57a1.26,1.26,0,0,1,1.26-.09l1.35.79a1.27,1.27,0,0,0-1.26.11l-16.58,9.56a4.05,4.05,0,0,0-1.77,3l.05,13.22a1.16,1.16,0,0,0,.5,1.1l-1.35-.8a1.21,1.21,0,0,1-.5-1.1l0-13.21A4.09,4.09,0,0,1,458.56,245.66Z"></path><path id="Path-117" class="cls-7" d="M468.23,247.46a4.44,4.44,0,0,0-2,3.54c0,1.3.89,1.77,2.06,1.15a4.42,4.42,0,0,0,2-3.54C470.24,247.36,469.33,246.86,468.23,247.46Z"></path><path id="Path-118" class="cls-2" d="M498.89,236.85a.8.8,0,0,0,0,1.5l4.71,2.7a2.88,2.88,0,0,0,2.56,0l9.41-5.45a.88.88,0,0,0,.55-.88v-1.55l-5.21-1.77a2.86,2.86,0,0,0-2.55,0Z"></path><path id="Path-119" class="cls-2" d="M498.89,235.15a.78.78,0,0,0-.52.75.81.81,0,0,0,.52.75l4.71,2.7a2.88,2.88,0,0,0,2.56,0l9.41-5.46a.81.81,0,0,0,.47-1,.85.85,0,0,0-.47-.46l-4.71-2.7a2.88,2.88,0,0,0-2.56,0Z"></path><path id="Path-120" class="cls-2" d="M495,216.47a5.59,5.59,0,0,0-2.55,4.42l0,19.37c0,1.6,1.16,2.25,2.56,1.45l24.35-14a5.69,5.69,0,0,0,2.55-4.42l0-19.38c0-1.6-1.16-2.26-2.56-1.45Z"></path><path id="Path-121" class="cls-3" d="M493,215.32l24.34-14a1.77,1.77,0,0,1,1.77-.21l2,1.15a2,2,0,0,0-1.77.15l-24.35,14a5.57,5.57,0,0,0-2.55,4.42l0,19.38a1.78,1.78,0,0,0,.75,1.65l-2-1.15a1.84,1.84,0,0,1-.75-1.65l0-19.39a5.63,5.63,0,0,1,2.56-4.36Z"></path><path id="Path-122" class="cls-6" d="M507.21,220a4,4,0,0,0-1.77,3.16c0,1.15.8,1.6,1.85,1a4,4,0,0,0,1.77-3.16C509.05,219.87,508.21,219.42,507.21,220Z"></path><path id="Path-123" class="cls-8" d="M377.25,55.26a7.09,7.09,0,0,1,3.25,5.61l0,24.75c0,2.06-1.46,2.91-3.27,1.86L346.08,69.56A7.31,7.31,0,0,1,342.84,64l0-24.75c0-2.06,1.46-2.9,3.27-1.85Z"></path><line id="Path-124" class="cls-9" x1="380.46" y1="85.35" x2="342.98" y2="63.72"></line><line id="Path-125" class="cls-9" x1="360.56" y1="75.79" x2="360.56" y2="76.59"></line><polygon id="Path-126" class="cls-3" points="123.14 171.62 108.96 179.88 94.69 171.66 108.86 163.41 123.14 171.62"></polygon><polygon id="Path-127" class="cls-3" points="123.14 171.62 123.04 192.04 108.86 200.3 108.96 179.88 123.14 171.62"></polygon><polygon id="Path-128" class="cls-3" points="108.96 179.88 108.86 200.3 94.63 192.04 94.69 171.66 100.55 175.01 103.35 176.67 108.96 179.88"></polygon><polygon id="Path-129" class="cls-4" points="118.08 168.26 108.91 173.56 99.69 168.26 108.86 162.95 118.08 168.26"></polygon><polygon id="Path-130" class="cls-4" points="118.08 168.26 118.03 171.41 108.86 176.72 108.91 173.56 118.08 168.26"></polygon><polygon id="Path-131" class="cls-4" points="108.91 173.56 108.86 176.72 99.64 171.41 99.69 168.26 103.5 170.46 105.3 171.51 108.91 173.56"></polygon><line id="Path-132" class="cls-5" x1="115.28" y1="168.26" x2="115.28" y2="158.3"></line><line id="Path-133" class="cls-5" x1="108.96" y1="165.61" x2="108.96" y2="155.7"></line><path id="Path-134" class="cls-1" d="M580.91,306.09a1.27,1.27,0,0,1,0,2.4l-13.27,7.81a4.66,4.66,0,0,1-4.15,0l-15.29-8.84a1.27,1.27,0,0,1-.79-1.6,1.28,1.28,0,0,1,.79-.8l13.26-7.81a4.68,4.68,0,0,1,4.16,0Z"></path><path id="Path-135" class="cls-2" d="M566.22,316.84a1.25,1.25,0,0,1-1.25-1.23V299.16a1.26,1.26,0,0,1,2.51,0V315.6a1.28,1.28,0,0,1-1.26,1.25Z"></path><path id="Path-136" class="cls-2" d="M580.5,308.29a1.23,1.23,0,0,1-.89-.42,1.28,1.28,0,0,1-.34-.93h0V289a1.25,1.25,0,0,1,2.5-.19v18.17a1.24,1.24,0,0,1-1.13,1.34h-.14Z"></path><path id="Path-137" class="cls-2" d="M548.59,306.79a1.33,1.33,0,0,1-1.25-1.36v-18a1.25,1.25,0,0,1,1.11-1.38,1.2,1.2,0,0,1,.65.11,1.22,1.22,0,0,1,.7,1.08v18.16a1.26,1.26,0,0,1-1.19,1.35h0Z"></path><path id="Path-138" class="cls-2" d="M580.91,286.46a1.28,1.28,0,0,1,.78,1.62,1.3,1.3,0,0,1-.78.79l-13.27,7.8a4.6,4.6,0,0,1-4.15,0l-15.29-8.84a1.28,1.28,0,0,1-.78-1.62,1.26,1.26,0,0,1,.78-.78l13.26-7.82a4.75,4.75,0,0,1,4.16,0Z"></path><path id="Path-139" class="cls-2" d="M580.91,288.87l-13.27,7.8a4.6,4.6,0,0,1-4.15,0l-15.29-8.84a1.46,1.46,0,0,1-.88-1.2v1.6a1.46,1.46,0,0,0,.88,1.2l15.29,8.84a4.6,4.6,0,0,0,4.15,0l13.27-7.8a1.41,1.41,0,0,0,.88-1.21v-1.6A1.46,1.46,0,0,1,580.91,288.87Z"></path><path id="Path-140" class="cls-3" d="M578.5,264.73a4.15,4.15,0,0,1,1.85,3.21v21.17L560.9,277.9l.05-21.22a1.13,1.13,0,0,1,1.85-1.05Z"></path><path id="Path-141" class="cls-2" d="M580,263.88l-15.73-9.11a1.27,1.27,0,0,0-1.31-.15l-1.45.88a1.31,1.31,0,0,1,1.3.1l15.74,9.08a4.11,4.11,0,0,1,1.85,3.2V289.1s1.45-.89,1.45-.89l.05-21.17a4.3,4.3,0,0,0-1.86-3.16Z"></path><path id="Path-142" class="cls-1" d="M652.09,363.11c4.11,2.41,4.17,6.26,0,8.61l-27.2,15.77a16.38,16.38,0,0,1-14.93,0l-105.38-60c-4.11-2.41-4.17-6.26-.06-8.61l27.21-15.73a16.38,16.38,0,0,1,14.93,0Z"></path><path id="Path-143" class="cls-1" d="M621.58,326.36a1.26,1.26,0,0,1,0,2.4l-13.26,7.82a4.73,4.73,0,0,1-4.15,0l-15.28-8.84a1.27,1.27,0,0,1,0-2.41l13.26-7.8a4.62,4.62,0,0,1,4.16,0Z"></path><path id="Path-144" class="cls-2" d="M606.91,337.07a1.19,1.19,0,0,1-.89-.36,1.25,1.25,0,0,1-.36-.88V319.4a1.25,1.25,0,0,1,2.5,0v16.43a1.25,1.25,0,0,1-1.25,1.24Z"></path><path id="Path-145" class="cls-2" d="M621.18,328.56a1.32,1.32,0,0,1-1.25-1.34v-18a1.26,1.26,0,0,1,2.51-.2v18.18a1.33,1.33,0,0,1-.35.93A1.29,1.29,0,0,1,621.18,328.56Z"></path><path id="Path-146" class="cls-2" d="M589.27,327.07a1.38,1.38,0,0,1-1.26-1.36v-18a1.26,1.26,0,0,1,2.51-.2v18.14A1.35,1.35,0,0,1,589.27,327.07Z"></path><path id="Path-147" class="cls-2" d="M621.58,306.73a1.27,1.27,0,0,1,0,2.41L608.32,317a4.66,4.66,0,0,1-4.15,0l-15.28-8.84a1.26,1.26,0,0,1,0-2.4l13.26-7.81a4.68,4.68,0,0,1,4.16,0Z"></path><path id="Path-148" class="cls-2" d="M621.58,309.14,608.32,317a4.66,4.66,0,0,1-4.15,0l-15.28-8.84a1.44,1.44,0,0,1-.89-1.2v1.6a1.44,1.44,0,0,0,.89,1.2l15.28,8.84a4.6,4.6,0,0,0,4.15,0l13.26-7.8a1.41,1.41,0,0,0,.89-1.21v-1.6A1.54,1.54,0,0,1,621.58,309.14Z"></path><path id="Path-149" class="cls-3" d="M619.18,285a4.1,4.1,0,0,1,1.85,3.21l0,21.17-19.45-11.22.05-21.17a1.13,1.13,0,0,1,.92-1.31,1.11,1.11,0,0,1,.94.26Z"></path><path id="Path-150" class="cls-2" d="M620.64,284.13,604.9,275a1.25,1.25,0,0,0-1.3-.15l-1.46.89a1.22,1.22,0,0,1,1.31.15L619.18,285a4.16,4.16,0,0,1,1.85,3.2l0,21.22s1.46-.88,1.46-.88V287.37a4.28,4.28,0,0,0-1.85-3.2Z"></path><path id="Path-151" class="cls-1" d="M659.91,351.85a1.27,1.27,0,0,1,0,2.4l-13.26,7.81a4.7,4.7,0,0,1-4.17,0l-15.28-8.84a1.28,1.28,0,0,1-.78-1.62,1.3,1.3,0,0,1,.78-.79l13.27-7.8a4.6,4.6,0,0,1,4.15,0Z"></path><path id="Path-152" class="cls-2" d="M645.2,362.61a1.22,1.22,0,0,1-.89-.37,1.17,1.17,0,0,1-.36-.88V344.93a1.25,1.25,0,0,1,2.5,0v16.43a1.27,1.27,0,0,1-1.25,1.25Z"></path><path id="Path-153" class="cls-2" d="M659.51,354.05a1.38,1.38,0,0,1-1.26-1.35v-18a1.26,1.26,0,0,1,1.27-1.25,1.25,1.25,0,0,1,1.24,1V352.7A1.32,1.32,0,0,1,659.51,354.05Z"></path><path id="Path-154" class="cls-2" d="M627.59,352.55a1.33,1.33,0,0,1-1.24-1.36v-18a1.25,1.25,0,0,1,2.5-.2v18.17a1.26,1.26,0,0,1-.35.94,1.27,1.27,0,0,1-.88.42Z"></path><path id="Path-155" class="cls-2" d="M659.91,332.22a1.27,1.27,0,0,1,0,2.41l-13.26,7.8a4.64,4.64,0,0,1-4.17,0l-15.28-8.84a1.26,1.26,0,0,1,0-2.39l13.27-7.82a4.73,4.73,0,0,1,4.15,0Z"></path><path id="Path-156" class="cls-2" d="M659.91,334.63l-13.26,7.8a4.64,4.64,0,0,1-4.17,0l-15.28-8.84a1.41,1.41,0,0,1-.88-1.19V334a1.46,1.46,0,0,0,.88,1.2L642.48,344a4.64,4.64,0,0,0,4.17,0l13.26-7.81a1.37,1.37,0,0,0,.88-1.2v-1.6a1.37,1.37,0,0,1-.88,1.2Z"></path><path id="Path-157" class="cls-3" d="M657.5,310.49a4.16,4.16,0,0,1,1.86,3.21l0,21.17-19.45-11.21V302.45a1.14,1.14,0,0,1,.92-1.32,1.15,1.15,0,0,1,.94.26Z"></path><path id="Path-158" class="cls-2" d="M658.91,309.64l-15.73-9.11a1.27,1.27,0,0,0-1.31-.15l-1.45.88a1.21,1.21,0,0,1,1.3.15l15.74,9.11a4.12,4.12,0,0,1,1.85,3.21l0,21.17c0,.05,1.45-.88,1.45-.88l0-21.22A4,4,0,0,0,658.91,309.64Z"></path><path id="Path-159" class="cls-2" d="M617.52,389.24a1.5,1.5,0,0,1-1.5-1.5h0V362.56a1.51,1.51,0,0,1,3,0v25.18a1.51,1.51,0,0,1-1.51,1.5Z"></path><path id="Path-160" class="cls-2" d="M503.15,325.06a1.55,1.55,0,0,1-1.5-1.6v-27a1.5,1.5,0,0,1,3,0h0v27a1.59,1.59,0,0,1-1.5,1.6Z"></path><path id="Path-161" class="cls-2" d="M653.7,369.62a1.55,1.55,0,0,1-1.5-1.6h0V340.93a1.5,1.5,0,0,1,3,0h0V368A1.59,1.59,0,0,1,653.7,369.62Z"></path><path id="Path-162" class="cls-2" d="M652.09,336.43a19,19,0,0,0,3.11,1.15v3.35c-.05,1.5-1.1,3-3.06,4.11l-27.2,15.72a16.38,16.38,0,0,1-14.93,0l-105.38-60c-2-1.1-3-2.61-3.12-4a24.17,24.17,0,0,1,0-3.61l30.27-16.72a16.38,16.38,0,0,1,14.93,0Z"></path><path id="Path-163" class="cls-2" d="M652.09,333.57c4.11,2.41,4.17,6.26,0,8.61L624.94,358A16.44,16.44,0,0,1,610,358L504.63,298c-4.11-2.39-4.17-6.25-.06-8.61l27.21-15.72a16.44,16.44,0,0,1,14.93,0Z"></path><path id="Path-164" class="cls-2" d="M646.53,334.12a.89.89,0,0,1,0,1.66l-5.3,3.05a3.2,3.2,0,0,1-2.86,0l-18.49-10.22a.89.89,0,0,1-.51-1.14.91.91,0,0,1,.51-.51l5.31-3a3.18,3.18,0,0,1,2.85,0Z"></path><path id="Path-165" class="cls-2" d="M624.86,347.34a.81.81,0,0,1,.47,1,.82.82,0,0,1-.47.46l-4.7,2.71a2.88,2.88,0,0,1-2.56,0l-9.47-5.47a.87.87,0,0,1-.55-.88v-1.55l5.21-1.77a3,3,0,0,1,2.56,0Z"></path><path id="Path-166" class="cls-2" d="M624.86,345.64a.79.79,0,0,1,.47,1,.8.8,0,0,1-.47.48l-4.7,2.7a2.88,2.88,0,0,1-2.56,0l-9.47-5.45a.81.81,0,0,1-.47-1,.78.78,0,0,1,.47-.47l4.71-2.7a2.86,2.86,0,0,1,2.55,0Z"></path><path id="Path-167" class="cls-2" d="M628.7,327a5.55,5.55,0,0,1,2.55,4.42l0,19.38c0,1.6-1.15,2.26-2.55,1.45l-24.35-14a5.57,5.57,0,0,1-2.56-4.42l.06-19.37c0-1.61,1.15-2.25,2.55-1.46Z"></path><path id="Path-168" class="cls-3" d="M630.71,325.86l-24.36-14a1.69,1.69,0,0,0-1.77-.15l-2,1.15a1.76,1.76,0,0,1,1.77.21l24.35,14a5.53,5.53,0,0,1,2.55,4.42l0,19.37a1.79,1.79,0,0,1-.75,1.65l1.95-1.15a1.84,1.84,0,0,0,.75-1.65l.06-19.37a5.59,5.59,0,0,0-2.5-4.42Z"></path><path id="Path-169" class="cls-6" d="M616.52,330.51a4,4,0,0,1,1.77,3.16c0,1.15-.8,1.6-1.77,1.05a4,4,0,0,1-1.76-3.15C614.72,330.42,615.53,329.91,616.52,330.51Z"></path><polygon id="Path-170" class="cls-3" points="694.53 332.82 680.35 341.04 666.07 332.82 680.25 324.56 694.53 332.82"></polygon><polygon id="Path-171" class="cls-3" points="694.53 332.82 694.48 353.2 680.3 361.46 680.35 341.04 694.53 332.82"></polygon><polygon id="Path-172" class="cls-3" points="680.35 341.04 680.3 361.46 666.02 353.2 666.07 332.82 671.93 336.17 674.79 337.83 680.35 341.04"></polygon><polygon id="Path-173" class="cls-4" points="689.47 329.42 680.3 334.72 671.13 329.42 680.25 324.11 689.47 329.42"></polygon><polygon id="Path-174" class="cls-4" points="689.47 329.42 689.42 332.57 680.3 337.88 680.3 334.72 689.47 329.42"></polygon><polygon id="Path-175" class="cls-4" points="680.3 334.72 680.3 337.88 671.08 332.57 671.13 329.42 674.89 331.62 676.74 332.67 680.3 334.72"></polygon><line id="Path-176" class="cls-5" x1="686.66" y1="329.42" x2="686.66" y2="319.45"></line><line id="Path-177" class="cls-5" x1="680.35" y1="326.81" x2="680.35" y2="316.85"></line><path id="Path-178" class="cls-2" d="M576.49,277.1s3.66,8.16-4,11l-16-9.1s4.9-4.06,8.46-4.36C564.92,274.6,568.68,277.6,576.49,277.1Z"></path><path id="Path-179" class="cls-3" d="M569.23,260.63l-.4,6.41a3.46,3.46,0,0,1-1.56,2.7l-10.41,6.85s-2.91,5.36-5.47,3.54c-1.76-1.2,4.16-6.41,4.16-6.41l9.17-7.07-.4-7.07C564.27,259.52,568.43,257.13,569.23,260.63Z"></path><path id="Path-180" class="cls-10" d="M566,246c.09-1.2.75-1.5.75-1.5.88,1.55,4.6,1.3,5.41,1s.4,3.54.4,3.54l1.1-.3s1.45-1.15,1.9.55-2.2,2.61-2.2,2.61l-.3,3.74s2.25.71,2,2.46v.06l4.68,2.93s-1.69-3.16-.3-8.61a10.14,10.14,0,0,0-2.45-9.27c-.7-5.6-6.61-3.3-6.61-3.3-4.56-.5-4,2.5-4.56,4.21A1.78,1.78,0,0,0,566,246Z"></path><path id="Path-181" class="cls-3" d="M569.73,254.77a3.74,3.74,0,0,0-4.61,1.7c-1.3,2.3-2.75,5.71-1.91,8.61a50.15,50.15,0,0,1,1.71,9.57s4.91,5.25,11.63,2.5c0,0-1-8.26,1.2-8.51s3-9.36,1.1-10.27C577.6,257.73,572.83,255.92,569.73,254.77Z"></path><path id="Path-182" class="cls-11" d="M569,253.82l-.25,1.45a2.31,2.31,0,0,0-2.21,2.41v.09c0,1.56,1.56,2.2,2.46,2.56,1.77.7,5.61,1.1,6.06-2.26.2-1.77-2-2.45-2-2.45l.3-3.75s2.65-1,2.2-2.6-1.9-.56-1.9-.56l-1.11.3s.36-3.75-.4-3.54a8.36,8.36,0,0,1-3,.1,3.16,3.16,0,0,1-2.46-1.2,1.88,1.88,0,0,0-.75,1.5C565.88,247.06,564.67,254.57,569,253.82Z"></path><path id="Path-183" class="cls-12" d="M566,246c-.11,1.2-1.36,8.56,3,7.86l-.25,1.45a2.31,2.31,0,0,0-2.21,2.41v.1c-.05,1.54,1.56,2.2,2.46,2.55,1.77.7,5.61,1.1,6.06-2.25.2-1.77-2-2.46-2-2.46"></path><path id="Path-184" class="cls-13" d="M565.25,274l-6.14-3.1a1.67,1.67,0,0,1-.88-1.06L555.81,261a.4.4,0,0,1,.14-.42.4.4,0,0,1,.43-.05l6.19,3.1a1.62,1.62,0,0,1,.88,1.06l2.43,8.84a.4.4,0,0,1-.15.43A.41.41,0,0,1,565.25,274Z"></path><path id="Path-185" class="cls-3" d="M579.7,264.54s.21,9.47-1.94,10.6-12.64-5.38-12.64-5.38-5.86,1.71-6.37-1.38c-.38-2.09,7.48-1.55,7.48-1.55l9,3.71-.3-5.1A4.62,4.62,0,0,0,579.7,264.54Z"></path><path id="Path-186" class="cls-2" d="M606.05,277.2l-.4,6.41a3.46,3.46,0,0,1-1.56,2.7l-10.41,6.86s-2.91,5.36-5.46,3.54c-1.77-1.2,4.15-6.41,4.15-6.41l8.17-6.41,1.6-5.95C602.14,277.85,604.53,278.25,606.05,277.2Z"></path><path id="Path-187" class="cls-2" d="M594.53,300.83l9.32-6.51s4.21,4.84,13,.3l.76,2.56a9.08,9.08,0,0,1-2.41,9.11l-4.15,4Z"></path><path id="Path-188" class="cls-2" d="M602.14,278.15s2.16-5.11,4.62-4.85,14.63,7,14.14,14.72a11.28,11.28,0,0,1-4,1.19v5.51s-7.52,5-13.08-.3a17.36,17.36,0,0,0,.35-4.25c0-1.51-1.95-3.54-1.35-5.31,1.6-4.7,2-5.11,2-5.11"></path><path id="Path-189" class="cls-3" d="M609,275.55l-1.16,7.26a40,40,0,0,0,5.47-5.41v-2.65"></path><path id="Path-190" class="cls-3" d="M613.32,274.75l2.6-5.21s-.8-3.8-4-2.41c0,0-3.42,2-4.77.89,0,0-1.77,7.42,1,7.87a7.1,7.1,0,0,0,2.9-.15"></path><line id="Path-191" class="cls-9" x1="605.65" y1="278.25" x2="604.75" y2="279.9"></line><circle id="Oval" class="cls-14" cx="616.07" cy="264.43" r="2.76"></circle><path id="Path-192" class="cls-2" d="M596.79,293.22l4.56,2.66L599,288.44a2,2,0,0,0-.88-1.1l-2.43-1.44a.63.63,0,0,0-.73.05.66.66,0,0,0-.21.7Z"></path><path id="Path-193" class="cls-2" d="M620.88,288s-4.27,8.52-6.87,10.41-11.25-1.81-11.25-1.81-6.36.94-7.14-1.51c-1.18-3.78,7-1.6,7-1.6l9.23.88,3.54-7.17"></path><line id="Path-194" class="cls-12" x1="602.63" y1="293.43" x2="602.74" y2="296.56"></line><line id="Path-195" class="cls-12" x1="592.11" y1="290.55" x2="593.68" y2="293.17"></line><path id="Path-196" class="cls-14" d="M613.32,274.75s8.11-5.26,2-9.82c-5.81-4.36-8.26,3.05-8.26,3.05a4.53,4.53,0,0,0,4.66,0s-.89,2.61-.21,3,1.9-1.5,2.5-.6S613.32,274.75,613.32,274.75Z"></path><path id="Path-197" class="cls-2" d="M613.32,269.44a4.4,4.4,0,0,0-2,3.54c0,1.3.88,1.77,2.06,1.15a4.6,4.6,0,0,0,2-3.54C615.38,269.34,614.46,268.79,613.32,269.44Z"></path><path id="Path-198" class="cls-15" d="M613.47,271.14a1.6,1.6,0,0,0-.7,1.26c0,.45.34.64.7.39a1.52,1.52,0,0,0,.69-1.24C614.25,271.1,613.87,270.87,613.47,271.14Z"></path><path id="Path-199" class="cls-16" d="M614.32,269.74s.2-6.51-4.91-5.91"></path><path id="Path-200" class="cls-1" d="M206.26,132.71a1.17,1.17,0,0,0-.73,1.48,1.15,1.15,0,0,0,.73.73L218.32,142a4.17,4.17,0,0,0,3.77,0L236,134a1.16,1.16,0,0,0,0-2.2l-12.07-7.07a4.13,4.13,0,0,0-3.75,0Z"></path><path id="Path-201" class="cls-2" d="M219.58,142.48a1.15,1.15,0,0,0,.82-.34,1.13,1.13,0,0,0,.34-.82V126.46a1.16,1.16,0,1,0-2.31-.2.67.67,0,0,0,0,.2v14.91A1.19,1.19,0,0,0,219.58,142.48Z"></path><path id="Path-202" class="cls-2" d="M206.6,134.72a1.18,1.18,0,0,0,.83-.37,1.14,1.14,0,0,0,.33-.88h0V117.19a1.13,1.13,0,0,0-2.25-.28v16.6a1.06,1.06,0,0,0,1.09,1.23Z"></path><path id="Path-203" class="cls-2" d="M235.62,133.36a1.17,1.17,0,0,0,1.15-1.2h0V115.84a1.14,1.14,0,0,0-1-1.26,1.13,1.13,0,0,0-1.26,1s0,.09,0,.13v16.47a1.08,1.08,0,0,0,.93,1.2Z"></path><path id="Path-204" class="cls-2" d="M206.26,114.89a1.17,1.17,0,0,0,0,2.21l12.06,7.07a4.17,4.17,0,0,0,3.77,0l13.87-8a1.15,1.15,0,0,0,.74-1.46A1.14,1.14,0,0,0,236,114l-12.07-7.07a4.13,4.13,0,0,0-3.75,0Z"></path><path id="Path-205" class="cls-2" d="M206.2,117.1l12.08,7.07a4.15,4.15,0,0,0,3.76,0l13.88-8a1.35,1.35,0,0,0,.79-1.11v1.46a1.3,1.3,0,0,1-.79,1.1l-13.88,8a4.15,4.15,0,0,1-3.76,0l-12.08-7.07a1.22,1.22,0,0,1-.75-1.11V116A1.49,1.49,0,0,0,206.2,117.1Z"></path><path id="Path-206" class="cls-3" d="M208.41,95.12a3.61,3.61,0,0,0-1.66,2.9l.06,19.23L224.49,107l-.06-19.22c0-1-.75-1.51-1.7-1Z"></path><path id="Path-207" class="cls-2" d="M207.11,94.37l14.33-8.28a1.18,1.18,0,0,1,1.2-.1l1.3.76a1.15,1.15,0,0,0-1.2.09l-14.33,8.27a3.61,3.61,0,0,0-1.66,2.9l.06,19.23-1.3-.75-.06-19.23A3.58,3.58,0,0,1,207.11,94.37Z"></path><path id="Path-208" class="cls-1" d="M230.21,118.64a1.16,1.16,0,0,0,0,2.21l12.06,7.07a4.15,4.15,0,0,0,3.76,0l13.88-8a1.15,1.15,0,0,0,.74-1.46,1.14,1.14,0,0,0-.74-.74l-12.07-7.08a4.15,4.15,0,0,0-3.76,0Z"></path><path id="Path-209" class="cls-2" d="M243.58,128.4a1.09,1.09,0,0,0,.82-.32,1.12,1.12,0,0,0,.33-.82V112.34a1.16,1.16,0,0,0-.27-.82,1.08,1.08,0,0,0-.78-.38,1.14,1.14,0,0,0-1.2,1v15a1.09,1.09,0,0,0,1,1.15h.08Z"></path><path id="Path-210" class="cls-2" d="M230.56,120.65a1.24,1.24,0,0,0,.83-.36,1.26,1.26,0,0,0,.33-.89h0V103.13a1.16,1.16,0,1,0-2.31-.2h0v16.52a1.25,1.25,0,0,0,1.15,1.2Z"></path><path id="Path-211" class="cls-2" d="M259.56,119.25a1.2,1.2,0,0,0,.83-.37,1.24,1.24,0,0,0,.33-.88h0V101.72a1.15,1.15,0,0,0-.51-1,1.13,1.13,0,0,0-1.75.86V118a1.09,1.09,0,0,0,1.1,1.24Z"></path><path id="Path-212" class="cls-2" d="M230.21,100.78a1.16,1.16,0,0,0,0,2.2l12.06,7.07a4.15,4.15,0,0,0,3.76,0l13.88-8a1.15,1.15,0,0,0,.74-1.46,1.14,1.14,0,0,0-.74-.74l-12.07-7.07a4.15,4.15,0,0,0-3.76,0Z"></path><path id="Path-213" class="cls-2" d="M230.21,103l12.06,7.07a4.15,4.15,0,0,0,3.76,0l13.88-8a1.35,1.35,0,0,0,.81-1.1v1.45a1.35,1.35,0,0,1-.81,1.1l-13.88,8a4.15,4.15,0,0,1-3.76,0l-12.06-7.07a1.2,1.2,0,0,1-.75-1.11v-1.45A1.2,1.2,0,0,0,230.21,103Z"></path><path id="Path-214" class="cls-3" d="M232.41,81A3.8,3.8,0,0,0,230.7,84l.05,19.22L248.39,93l0-19.24c0-1.06-.75-1.51-1.71-1Z"></path><path id="Path-215" class="cls-2" d="M231.11,80.29,245.39,72a1.13,1.13,0,0,1,1.2-.1l1.3.75a1.13,1.13,0,0,0-1.2.1L232.41,81A3.8,3.8,0,0,0,230.7,84l.05,19.22-1.29-.75L229.4,83.2A3.72,3.72,0,0,1,231.11,80.29Z"></path><path id="Path-216" class="cls-1" d="M253.4,105.18a1.15,1.15,0,0,0-.74,1.46,1.14,1.14,0,0,0,.74.74l12,7.07a4.09,4.09,0,0,0,3.76,0l13.88-8a1.15,1.15,0,0,0,.74-1.46,1.18,1.18,0,0,0-.74-.74l-12-7.07a4.13,4.13,0,0,0-3.75,0Z"></path><path id="Path-217" class="cls-2" d="M266.81,114.94a1.1,1.1,0,0,0,.82-.33,1.15,1.15,0,0,0,.34-.82h0V98.92a1.16,1.16,0,0,0-2.31,0h0v14.92a1.11,1.11,0,0,0,1.13,1.1Z"></path><path id="Path-218" class="cls-2" d="M253.75,107.18a1.18,1.18,0,0,0,1.15-1.2h0V89.63a1.16,1.16,0,0,0-2.09-.81,1.21,1.21,0,0,0-.21.61V106a1.17,1.17,0,0,0,1.15,1.2h0Z"></path><path id="Path-219" class="cls-2" d="M282.72,105.82a1.15,1.15,0,0,0,1.15-1.18h0V88.3a1.13,1.13,0,0,0-.49-1,1.14,1.14,0,0,0-1.13-.07,1.12,1.12,0,0,0-.63.93v16.51a1.16,1.16,0,0,0,1.1,1.19Z"></path><path id="Path-220" class="cls-2" d="M253.4,87.36a1.16,1.16,0,0,0,0,2.2l12.07,7.07a4.15,4.15,0,0,0,3.76,0l13.88-8a1.15,1.15,0,0,0,.74-1.46,1.14,1.14,0,0,0-.74-.74L271,79.35a4.13,4.13,0,0,0-3.75,0Z"></path><path id="Path-221" class="cls-2" d="M253.4,89.5l12.07,7.08a4.21,4.21,0,0,0,3.76,0l13.88-8a1.31,1.31,0,0,0,.8-1.1v1.45a1.36,1.36,0,0,1-.8,1.11l-13.88,8a4.15,4.15,0,0,1-3.76,0L253.4,91a1.19,1.19,0,0,1-.76-1.09V88.4a1.14,1.14,0,0,0,.76,1Z"></path><path id="Path-222" class="cls-3" d="M255.61,67.58A3.53,3.53,0,0,0,254,70.49V89.71L271.63,79.5l-.05-19.23c0-1.05-.75-1.5-1.7-1Z"></path><path id="Path-223" class="cls-2" d="M254.3,66.83l14.28-8.26a1.16,1.16,0,0,1,1.2-.11l1.31.76a1.15,1.15,0,0,0-1.21.1l-14.27,8.26A3.53,3.53,0,0,0,254,70.49V89.71l-1.3-.75V69.74a3.6,3.6,0,0,1,1.66-2.91Z"></path><path id="Path-224" class="cls-1" d="M349.84,143.08c4.11,2.4,4.16,6.25.05,8.61l-53.55,31.39a16.4,16.4,0,0,1-14.94,0l-54.76-31.57c-4.1-2.4-4.15-6.25,0-8.61l53.55-31.39a16.4,16.4,0,0,1,14.94,0Z"></path><path id="Path-225" class="cls-2" d="M288.91,184.93a1.5,1.5,0,0,1-1.5-1.5h0V158.24a1.5,1.5,0,0,1,3,0v25.19A1.54,1.54,0,0,1,288.91,184.93Z"></path><path id="Path-226" class="cls-2" d="M225.14,149a1.57,1.57,0,0,1-1.5-1.61v-27a1.5,1.5,0,1,1,3,0h0v27a1.49,1.49,0,0,1-.4,1.12,1.58,1.58,0,0,1-1.1.49Z"></path><path id="Path-227" class="cls-2" d="M351.44,149.59a1.59,1.59,0,0,1-1.53-1.61V121a1.51,1.51,0,0,1,3,0h0v27a1.52,1.52,0,0,1-.41,1.11A1.56,1.56,0,0,1,351.44,149.59Z"></path><path id="Path-228" class="cls-2" d="M349.84,116.44a17.53,17.53,0,0,0,3.1,1.15s.06,2.5,0,3.36c0,1.5-1.09,3-3.05,4.1l-53.55,31.4a16.46,16.46,0,0,1-14.94,0l-54.76-31.6c-1.95-1.1-3-2.55-3.1-4a21.76,21.76,0,0,1,0-3.61l56.58-32.34a16.38,16.38,0,0,1,14.93,0Z"></path><path id="Path-229" class="cls-2" d="M349.84,113.54c4.11,2.4,4.16,6.25.05,8.61l-53.55,31.39a16.4,16.4,0,0,1-14.94,0L226.64,122c-4.1-2.4-4.15-6.26,0-8.61L280.19,82a16.34,16.34,0,0,1,14.94,0Z"></path><path id="Path-230" class="cls-2" d="M329.05,126.56a3.44,3.44,0,0,0,3.11,0l15-8.61c.88-.51.88-1.31,0-1.77l-10-6.19A3.43,3.43,0,0,0,334,110l-15,8.61c-.88.5-.88,1.3,0,1.77Z"></path><path id="Path-231" class="cls-17" d="M321.13,105.23a3.46,3.46,0,0,0-1.55,2.65l.05,12.77c0,.2,18.19-10.16,18.19-10.16l-.15-13c0-1-.7-1.4-1.56-.88Z"></path><path id="Path-232" class="cls-3" d="M318.33,107.23a3.43,3.43,0,0,1,1.55-2.7l14.93-8.62a1,1,0,0,1,1.11-.09l1.24.7a1.07,1.07,0,0,0-1.09.1l-14.94,8.61a3.46,3.46,0,0,0-1.55,2.65l.05,12.77,9.42,5.81a3.38,3.38,0,0,0,3.11.05l15-8.59a1.14,1.14,0,0,0,.65-.88l-.05,1.4a1.1,1.1,0,0,1-.66.88L332.16,128a3.38,3.38,0,0,1-3.11,0l-10-6.19a1.1,1.1,0,0,1-.65-.89V120Z"></path><line id="Path-233" class="cls-8" x1="342.68" y1="113.44" x2="324.74" y2="123.7"></line><path id="Path-234" class="cls-3" d="M336,122.55a.85.85,0,0,0,.7,0l3.41-2a.22.22,0,0,0,.15-.21.19.19,0,0,0-.15-.19l-2.25-1.4a.88.88,0,0,0-.71,0l-3.4,2a.2.2,0,0,0-.15.2.19.19,0,0,0,.15.19Z"></path><line id="Path-235" class="cls-16" x1="333.41" y1="101.27" x2="326.64" y2="110.28"></line><line id="Path-236" class="cls-16" x1="330.96" y1="108.04" x2="326.64" y2="113.79"></line><path id="Path-237" class="cls-1" d="M344.18,161.85a1.16,1.16,0,0,0,0,2.2l12.07,7.07a4.15,4.15,0,0,0,3.76,0l13.88-8a1.15,1.15,0,0,0,.74-1.46,1.18,1.18,0,0,0-.74-.74l-12.08-7.07a4.15,4.15,0,0,0-3.76,0Z"></path><path id="Path-238" class="cls-2" d="M357.56,171.61a1.1,1.1,0,0,0,.82-.33,1.14,1.14,0,0,0,.33-.82V155.55a1.16,1.16,0,0,0-2.31-.21.74.74,0,0,0,0,.21h0v14.91a1.15,1.15,0,0,0,.34.82,1.09,1.09,0,0,0,.82.33Z"></path><path id="Path-239" class="cls-2" d="M344.53,163.89a1.24,1.24,0,0,0,.83-.36,1.25,1.25,0,0,0,.33-.84h0V146.33a1.16,1.16,0,0,0-1.06-1.25,1.15,1.15,0,0,0-1.25,1h0v16.52a1.18,1.18,0,0,0,1.15,1.21h0Z"></path><path id="Path-240" class="cls-2" d="M373.53,162.5a1.22,1.22,0,0,0,1.14-1.26V144.93a1.14,1.14,0,0,0-.51-1,1.1,1.1,0,0,0-1.12-.08,1.15,1.15,0,0,0-.63.94v16.46a1.14,1.14,0,0,0,.29.88A1.17,1.17,0,0,0,373.53,162.5Z"></path><path id="Path-241" class="cls-2" d="M344.18,144a1.15,1.15,0,0,0-.74,1.46,1.18,1.18,0,0,0,.74.74l12.07,7.07a4.15,4.15,0,0,0,3.76,0l13.88-8a1.16,1.16,0,0,0,0-2.2L361.81,136a4.09,4.09,0,0,0-3.76,0Z"></path><path id="Path-242" class="cls-3" d="M358,131l13.72-7.91a1.11,1.11,0,0,1,1.16-.1l1.25.75a1.18,1.18,0,0,0-1.15.1l-13.73,8a3.5,3.5,0,0,0-1.6,2.8l-.1,19.45a6,6,0,0,1-1.11-.6l-.05-19.63a3.56,3.56,0,0,1,1.61-2.86Z"></path><path id="Path-243" class="cls-3" d="M374.67,144.18h0V124.66c0-1-.76-1.46-1.6-.89l-13.73,8a3.5,3.5,0,0,0-1.6,2.8l0,18a.86.86,0,0,1-.26.63.87.87,0,0,1-.64.27,1.12,1.12,0,0,1-.4-.1l-.15-.05-12-7a1.18,1.18,0,0,1-.75-1.11v1.46a1.41,1.41,0,0,0,.75,1.1l12.07,7.07a4.15,4.15,0,0,0,3.76,0l13.87-8a1.35,1.35,0,0,0,.81-1.1Z"></path><path id="Path-244" class="cls-1" d="M324,174.27a1.16,1.16,0,0,0,0,2.2l12.07,7.07a4.09,4.09,0,0,0,3.76,0l13.88-8a1.15,1.15,0,0,0,.74-1.46,1.18,1.18,0,0,0-.74-.74l-12.08-7.07a4.15,4.15,0,0,0-3.76,0Z"></path><path id="Path-245" class="cls-2" d="M337.42,184a1.18,1.18,0,0,0,.82-.33,1.14,1.14,0,0,0,.33-.82h0V168a1.16,1.16,0,0,0-2.31-.2v.2h0v14.92a1.14,1.14,0,0,0,.36.79A1.08,1.08,0,0,0,337.42,184Z"></path><path id="Path-246" class="cls-2" d="M324.39,176.27a1.24,1.24,0,0,0,.83-.36,1.25,1.25,0,0,0,.33-.84V158.75a1.12,1.12,0,0,0-.51-1,1.1,1.1,0,0,0-1.12-.08,1.14,1.14,0,0,0-.63.94v16.47a1.13,1.13,0,0,0,.28.88A1.15,1.15,0,0,0,324.39,176.27Z"></path><path id="Path-247" class="cls-2" d="M353.39,174.92a1.21,1.21,0,0,0,.84-.37,1.16,1.16,0,0,0,.32-.84V157.39a1.13,1.13,0,0,0-1.62-1.08,1.12,1.12,0,0,0-.63.93v16.47a1.11,1.11,0,0,0,1,1.2Z"></path><path id="Path-248" class="cls-2" d="M324,156.45a1.16,1.16,0,0,0-.74,1.46,1.18,1.18,0,0,0,.74.74l12.07,7.07a4.15,4.15,0,0,0,3.76,0l13.88-8a1.15,1.15,0,0,0,.74-1.46,1.18,1.18,0,0,0-.74-.74l-12.08-7.07a4.15,4.15,0,0,0-3.76,0Z"></path><path id="Path-249" class="cls-3" d="M337.87,143.38l13.77-8a1.07,1.07,0,0,1,1.15-.09l1.26.75a1.18,1.18,0,0,0-1.15.1l-13.78,7.91a3.5,3.5,0,0,0-1.6,2.8l-.1,19.45q-.57-.28-1.11-.6l-.05-19.63a3.51,3.51,0,0,1,1.61-2.8Z"></path><path id="Path-250" class="cls-3" d="M354.55,156.6h0l-.05-19.45c0-1-.75-1.45-1.6-1l-13.78,8a3.52,3.52,0,0,0-1.6,2.8v18a.94.94,0,0,1-.26.65.85.85,0,0,1-.64.25.9.9,0,0,1-.4-.09.21.21,0,0,1-.1-.06l-12.08-7.07a1.21,1.21,0,0,1-.75-1.1V159a1.39,1.39,0,0,0,.75,1.1l12.08,7.08a4.15,4.15,0,0,0,3.76,0l13.88-8a1.31,1.31,0,0,0,.79-1.11Z"></path><path id="Path-251" class="cls-2" d="M258.66,113.94a3.78,3.78,0,0,0,3.45,0l16.64-9.56a1.06,1.06,0,0,0,.66-1.35,1.08,1.08,0,0,0-.66-.66l-11.12-6.85a3.8,3.8,0,0,0-3.46,0l-16.64,9.56c-.94.55-1,1.45,0,2Z"></path><path id="Path-252" class="cls-18" d="M258.61,115.49l-11.12-6.85a1.3,1.3,0,0,1-.71-1l.06-1.55a1.24,1.24,0,0,0,.69,1l11.13,6.86a3.78,3.78,0,0,0,3.45,0l16.64-9.56a1.22,1.22,0,0,0,.75-1l-.05,1.55a1.12,1.12,0,0,1-.75,1l-16.63,9.56A3.69,3.69,0,0,1,258.61,115.49Z"></path><path id="Path-253" class="cls-3" d="M261.87,98.52a4,4,0,0,0-1.77,3v13.26c0,1.11.8,1.56,1.77,1l16.57-9.57a4,4,0,0,0,1.77-3l0-13.22c0-1.1-.81-1.55-1.77-1Z"></path><path id="Path-254" class="cls-2" d="M260.51,97.72l16.54-9.57a1.27,1.27,0,0,1,1.25-.1l1.35.81a1.22,1.22,0,0,0-1.25.1l-16.59,9.56a4.05,4.05,0,0,0-1.77,3l.06,13.26a1.2,1.2,0,0,0,.49,1.11l-1.35-.81a1.21,1.21,0,0,1-.5-1.09l-.05-13.22A4,4,0,0,1,260.51,97.72Z"></path><path id="Path-255" class="cls-4" d="M270.13,100.48a4.4,4.4,0,0,0-2,3.53c0,1.3.88,1.77,2.05,1.15a4.53,4.53,0,0,0,2-3.53C272.18,100.37,271.28,99.82,270.13,100.48Z"></path><path id="Path-256" class="cls-1" d="M300.15,188.79a1.16,1.16,0,0,0,0,2.2l12.06,7.07a4.15,4.15,0,0,0,3.76,0l13.88-8a1.16,1.16,0,0,0,0-2.2l-12.07-7.07a4.15,4.15,0,0,0-3.76,0Z"></path><path id="Path-257" class="cls-2" d="M307.86,177.92v.51s-2.86-1.11-3.54-1-1.65,2.65-.81,3.54,2.11,1.2,2.91,2.65,5.36,1.77,5.77.35a15.62,15.62,0,0,0,.15-3.06Z"></path><path id="Path-258" class="cls-2" d="M312.17,180l-.05-5.87h0V160a3.64,3.64,0,0,0-3.21-3.61h0a3.64,3.64,0,0,0-4,3.16,1.65,1.65,0,0,0,0,.7l1.15,14.47a2.66,2.66,0,0,0,1.77,3Z"></path><path id="Path-259" class="cls-2" d="M299.44,182.13l.5,7.45s-6.81,1.16-11.49-1.09c0,0-1-2.86,1.71-3.36s4.51.88,5.11-.89l-.06-1.6Z"></path><path id="Path-260" class="cls-2" d="M294.58,183l-1.45-17.22,7.51.45v16.25S298.49,185.28,294.58,183Z"></path><path id="Path-261" class="cls-2" d="M313.47,198.55a1.12,1.12,0,0,0,1.15-1.08V182.53a1.11,1.11,0,0,0-1.2-1.05,1.17,1.17,0,0,0-1.06,1.05v15a1.11,1.11,0,0,0,1.11,1.1Z"></path><path id="Path-262" class="cls-2" d="M300.49,190.79a1.23,1.23,0,0,0,1.16-1.25V173.22a1.13,1.13,0,0,0-1-1.2,1.1,1.1,0,0,0-1.2,1v16.49a1.11,1.11,0,0,0,1,1.24h.12Z"></path><path id="Path-263" class="cls-2" d="M329.5,189.43a1.15,1.15,0,0,0,.83-.36,1.21,1.21,0,0,0,.33-.83V171.91a1.16,1.16,0,0,0-2.31-.19v16.52a1.18,1.18,0,0,0,1.15,1.19Z"></path><path id="Path-264" class="cls-2" d="M300.15,171a1.16,1.16,0,0,0,0,2.21l12.06,7.07a4.15,4.15,0,0,0,3.76,0l13.88-8a1.15,1.15,0,0,0,.74-1.46,1.14,1.14,0,0,0-.74-.74L317.78,163a4.15,4.15,0,0,0-3.76,0Z"></path><path id="Path-265" class="cls-2" d="M298.74,168.76l10.61,3.75a19.85,19.85,0,0,0,12.17.41,13.26,13.26,0,0,0,1.25-.45c4.11-1.6,4.31-11.12,4.31-11.12a17,17,0,0,1-16.79,2.06l-11.43-3a4.6,4.6,0,0,0-5.65,3.2,4.12,4.12,0,0,0-.15,1.6l.15,2"></path><path id="Path-266" class="cls-13" d="M299.36,146.48l2.85-1.43a1,1,0,0,0,.5-1.12l-2.39-8.32a.77.77,0,0,0-.94-.56l-.17.06-2.85,1.44a.94.94,0,0,0-.49,1.11l2.38,8.32a.77.77,0,0,0,.94.57l.17-.07Z"></path><path id="Path-267" class="cls-19" d="M310,153.49s-5.56,5-7.76,4.24-5.05-10-5.05-10c-4.42-5.24-.49-7.13-.49-7.13l1.28,4s.15-1,.81-.89.76,3.12.76,3.12l3.79,5.85,2.5-2.9"></path><path id="Path-268" class="cls-20" d="M309.71,153.89a7.66,7.66,0,0,1-5.16-3.53l4.46-6.81s10-6.19,16.13-6.26,2.55,24.13,2.55,24.13-1.14,4.56-8.41,6.31-9.73-4-9.73-4Z"></path><path id="Path-269" class="cls-14" d="M312.87,128.53s-1.15-3,.45-4,5.91-1.46,6.52,1.85c0,0,6.25,3.85.19,8.91C315.07,139.47,312.87,128.53,312.87,128.53Z"></path><path id="Path-270" class="cls-3" d="M316.23,140l-.66-3.54s-3.75-.24-4-2.8a19.79,19.79,0,0,1,.89-5.45.6.6,0,0,1,.27-.39.67.67,0,0,1,.48-.06.57.57,0,0,1,.4.34,4.58,4.58,0,0,0,1.76,2l-.39,1.1.88.45a2.17,2.17,0,0,1,1.86-1.05c1.2,0-.21,3.05-.21,3.05s-.15,2.2,2.56,1.66l.75,2.9S319.85,140.13,316.23,140Z"></path><path id="Path-271" class="cls-3" d="M314,158l13.72-8a1.09,1.09,0,0,1,1.16-.09l1.25.75a1.18,1.18,0,0,0-1.15.1l-13.77,7.95a3.53,3.53,0,0,0-1.61,2.81l-.1,19.45-1.11-.6V160.74A3.66,3.66,0,0,1,314,158Z"></path><path id="Path-272" class="cls-3" d="M330.6,171.11h0l-.05-19.52c0-1-.75-1.45-1.6-.89l-13.77,8a3.51,3.51,0,0,0-1.61,2.8l.05,18a.83.83,0,0,1-.27.63.86.86,0,0,1-.63.26.79.79,0,0,1-.4-.1l-.11-.05-12.06-7.07a1.18,1.18,0,0,1-.75-1.11v1.5a1.42,1.42,0,0,0,.75,1.11l12.06,7.07a4.15,4.15,0,0,0,3.76,0l13.88-8a1.34,1.34,0,0,0,.81-1.09v-1.51Z"></path><line id="Path-273" class="cls-8" x1="313.12" y1="150.19" x2="309.66" y2="153.44"></line><polygon id="Path-274" class="cls-21" points="240.82 254.12 219.28 266.83 167.63 236.55 189.17 223.83 240.82 254.12"></polygon><polygon id="Path-275" class="cls-21" points="240.82 254.12 240.77 273.75 219.24 286.46 219.28 266.83 240.82 254.12"></polygon><polygon id="Path-276" class="cls-21" points="219.28 266.83 219.24 286.46 167.58 256.17 167.63 236.55 173.24 239.8 176 241.35 219.28 266.83"></polygon><polygon id="Path-277" class="cls-21" points="223.74 244.56 219.33 247.26 167.68 216.97 172.09 214.22 223.74 244.56"></polygon><polygon id="Path-278" class="cls-21" points="223.74 244.56 223.69 264.18 219.28 266.89 219.33 247.26 223.74 244.56"></polygon><polygon id="Path-279" class="cls-21" points="219.33 247.26 219.28 266.89 167.63 236.6 167.68 216.97 173.34 220.22 176.05 221.78 219.33 247.26"></polygon><path id="Path-280" class="cls-1" d="M496.24,384.13c4.3,2.46,4.3,6.51,0,9l-17.43,10.11c-4.26,2.5-11.17,2.5-15.48,0l-79.86-45.16c-4.31-2.5-4.31-6.5-.05-9l17.44-10.15c4.25-2.45,11.16-2.45,15.48,0Z"></path><path id="Path-281" class="cls-19" d="M471.14,405.06a1.56,1.56,0,0,1-1.56-1.55V377.33a1.56,1.56,0,0,1,1.67-1.44,1.55,1.55,0,0,1,1.43,1.44h0v26.15a1.49,1.49,0,0,1-1.42,1.55h-.12Z"></path><path id="Path-282" class="cls-19" d="M382,355.45a1.62,1.62,0,0,1-1.56-1.65v-28a1.58,1.58,0,0,1,1.4-1.72,1.63,1.63,0,0,1,.87.16,1.59,1.59,0,0,1,.84,1.36V353.8a1.59,1.59,0,0,1-.42,1.16A1.51,1.51,0,0,1,382,355.45Z"></path><path id="Path-283" class="cls-19" d="M497.89,390.9a1.63,1.63,0,0,1-1.56-1.66V361.1a1.59,1.59,0,0,1,1.45-1.69,1.5,1.5,0,0,1,1.17.36,1.57,1.57,0,0,1,.54,1.09v28.38A1.7,1.7,0,0,1,497.89,390.9Z"></path><path id="Path-284" class="cls-19" d="M496.24,356.4a17.13,17.13,0,0,0,3.25,1.2s.05,2.6,0,3.54c-.05,1.56-1.15,3.1-3.16,4.3l-17.43,10c-4.26,2.5-11.18,2.5-15.48,0l-79.86-45.16c-2-1.16-3.1-2.65-3.21-4.21a23.6,23.6,0,0,1,0-3.76l20.59-11.11c4.26-2.45,11.18-2.45,15.48,0Z"></path><path id="Path-285" class="cls-19" d="M496.24,353.45c4.3,2.45,4.3,6.5,0,9l-17.43,10.13c-4.26,2.51-11.17,2.51-15.48,0l-79.86-45.17c-4.31-2.51-4.31-6.52-.05-9l17.44-10.11c4.25-2.45,11.16-2.45,15.48,0Z"></path><path id="Path-286" class="cls-19" d="M429.3,338.94c.89.5.89,1.26,0,1.77l-5.46,3.15a3.21,3.21,0,0,1-3,0l-19.18-10.67c-.89-.49-.89-1.24,0-1.76l5.45-3.16a3.21,3.21,0,0,1,3,0Z"></path><path id="Path-287" class="cls-19" d="M470.84,363.69a3.88,3.88,0,0,1-3.54.05L450.19,354c-1-.56-1-1.46,0-2.06l11.43-7.07a3.86,3.86,0,0,1,3.53-.06l17.09,9.82c1,.55,1,1.45,0,2Z"></path><path id="Path-288" class="cls-22" d="M479.87,339.43a3.85,3.85,0,0,1,1.77,3.06l-.05,14.56c0,.25-20.69-11.56-20.69-11.56l.15-14.87c0-1.1.8-1.61,1.77-1Z"></path><path id="Path-289" class="cls-20" d="M483,341.68a3.74,3.74,0,0,0-1.77-3.05l-17-9.81a1.25,1.25,0,0,0-1.25-.11l-1.4.81a1.25,1.25,0,0,1,1.25.09l17,9.82a3.85,3.85,0,0,1,1.77,3.06l-.05,14.56-10.81,6.64a3.83,3.83,0,0,1-3.53.05L450.14,354a1.22,1.22,0,0,1-.75-1l.05,1.61a1.23,1.23,0,0,0,.75,1l17.08,9.81a4,4,0,0,0,3.54-.05l11.42-7.07a1.23,1.23,0,0,0,.7-1.05v-1Z"></path><line id="Path-290" class="cls-23" x1="455.25" y1="348.79" x2="475.69" y2="360.5"></line><path id="Path-291" class="cls-24" d="M462.87,359.2a.77.77,0,0,1-.8,0l-3.86-2.2c-.25-.1-.25-.35,0-.45l2.6-1.6a.79.79,0,0,1,.81,0l3.85,2.2c.26.1.26.36,0,.45Z"></path><line id="Path-292" class="cls-25" x1="465.88" y1="334.87" x2="473.54" y2="345.19"></line><line id="Path-293" class="cls-25" x1="468.63" y1="342.64" x2="473.54" y2="349.2"></line><path id="Path-294" class="cls-19" d="M436.31,328.07c.89.49.89,1.24,0,1.76L430.85,333a3.21,3.21,0,0,1-3,0l-11-6.31a.89.89,0,0,1-.6-.95V324l6.07-2.1a3.19,3.19,0,0,1,3,0Z"></path><path id="Path-295" class="cls-19" d="M436.31,326.11c.89.51.89,1.26,0,1.77l-5.46,3.1a3.52,3.52,0,0,1-3,0l-11-6.31c-.88-.49-.88-1.25,0-1.77l5.47-3.15a3.19,3.19,0,0,1,3,0Z"></path><path id="Path-296" class="cls-3" d="M441.93,303a6.45,6.45,0,0,1,2.95,5.11l-.05,22.53c0,1.85-1.36,2.6-3,1.7l-28.29-16.27a6.5,6.5,0,0,1-2.95-5.11V288.41c0-1.9,1.35-2.65,3-1.7Z"></path><path id="Path-297" class="cls-20" d="M444.23,301.63l-28.29-16.27a2.06,2.06,0,0,0-2.11-.2l-2.3,1.35a2.21,2.21,0,0,1,2.11.2L441.93,303a6.45,6.45,0,0,1,2.95,5.11l-.05,22.53a2.09,2.09,0,0,1-.89,1.9l2.31-1.35a2,2,0,0,0,.88-1.9l.06-22.54A6.54,6.54,0,0,0,444.23,301.63Z"></path><line id="Path-298" class="cls-5" x1="423.39" y1="301.38" x2="432.1" y2="313.05"></line><line id="Path-299" class="cls-5" x1="426.54" y1="310.15" x2="432.1" y2="317.55"></line><path id="Path-300" class="cls-1" d="M451.89,399.81a1.18,1.18,0,0,1,.76,1.49,1.16,1.16,0,0,1-.76.76l-12.52,7.36a4.16,4.16,0,0,1-3.91,0L421,401.11a1.18,1.18,0,0,1-.77-1.49,1.21,1.21,0,0,1,.77-.77l12.51-7.35a4.11,4.11,0,0,1,3.91,0Z"></path><path id="Path-301" class="cls-19" d="M438,410a1.21,1.21,0,0,1-1.2-1.19V393.3a1.12,1.12,0,0,1,.34-.88,1.18,1.18,0,0,1,.89-.35,1.12,1.12,0,0,1,.88.34,1.22,1.22,0,0,1,.34.88h0v15.49a1.23,1.23,0,0,1-1.21,1.21Z"></path><path id="Path-302" class="cls-19" d="M451.58,401.91a1.23,1.23,0,0,1-.88-.38,1.21,1.21,0,0,1-.34-.88h0v-17a1.18,1.18,0,0,1,2.35-.24V400.6a1.2,1.2,0,0,1-1.11,1.3h0Z"></path><path id="Path-303" class="cls-19" d="M421.43,400.51a1.28,1.28,0,0,1-1.2-1.26v-17a1.19,1.19,0,0,1,2.34-.39.62.62,0,0,1,0,.13v17.18a1.22,1.22,0,0,1-1.15,1.3Z"></path><path id="Path-304" class="cls-19" d="M451.89,381.28a1.18,1.18,0,0,1,.76,1.49,1.16,1.16,0,0,1-.76.76l-12.52,7.37a4.22,4.22,0,0,1-3.91,0L421,382.59a1.19,1.19,0,0,1,0-2.26L433.55,373a4.16,4.16,0,0,1,3.91,0Z"></path><path id="Path-305" class="cls-20" d="M437.57,367.77l-14.28-8.27a1.15,1.15,0,0,0-1.2-.09l-1.31.75a1.13,1.13,0,0,1,1.2.1l14.28,8.25a3.57,3.57,0,0,1,1.65,2.91l.11,20.27a10,10,0,0,0,1.18-.59l.06-20.42A3.7,3.7,0,0,0,437.57,367.77Z"></path><path id="Path-306" class="cls-20" d="M420.23,383a1.39,1.39,0,0,0,.81,1.14l14.42,8.31a4.11,4.11,0,0,0,3.91,0l12.52-7.35a1.41,1.41,0,0,0,.81-1.11v-1.5a1.37,1.37,0,0,1-.81,1.11l-12.52,7.35-.15.05a1,1,0,0,1-1.31-.39,1.8,1.8,0,0,1-.09-.45l.05-18.78a3.72,3.72,0,0,0-1.65-2.9l-14.28-8.21c-1-.55-1.71-.1-1.71.95l-.05,20.27h0Z"></path><path id="Path-307" class="cls-1" d="M405.56,375.43a1.18,1.18,0,0,1,.76,1.49,1.2,1.2,0,0,1-.76.76L393,385a4.16,4.16,0,0,1-3.91,0l-14.45-8.26a1.18,1.18,0,0,1-.77-1.49,1.21,1.21,0,0,1,.77-.77l12.52-7.35a4.16,4.16,0,0,1,3.91,0Z"></path><path id="Path-308" class="cls-19" d="M397.54,364.11v.55s2.95-1.15,3.7-1,1.77,2.76.89,3.7-2.16,1.26-3,2.76-5.61,1.85-6,.35a24.45,24.45,0,0,1-.21-3.2Z"></path><path id="Path-309" class="cls-19" d="M393,366.35l.05-6.11h0V345.47a3.81,3.81,0,0,1,3.35-3.75h0a3.8,3.8,0,0,1,4.17,3.3,2.06,2.06,0,0,1,0,.7l-1.21,15a2.73,2.73,0,0,1-1.85,3.1Z"></path><path id="Path-310" class="cls-26" d="M406.31,368.51l-.51,7.76s7.08,1.21,11.93-1.14c0,0,1-3-1.77-3.54s-4.7,1-5.3-1V369Z"></path><path id="Path-311" class="cls-19" d="M411.36,369.37l1.51-17.93-7.82.5v16.8S407.25,371.77,411.36,369.37Z"></path><path id="Path-312" class="cls-19" d="M391.68,385.58a1.16,1.16,0,0,1-1.21-1.11v0h0V369a1.17,1.17,0,0,1,1.16-1.19h.05a1.11,1.11,0,0,1,.88.33,1.23,1.23,0,0,1,.34.89h0V384.5a1.21,1.21,0,0,1-1.21,1.15Z"></path><path id="Path-313" class="cls-19" d="M405.2,377.53a1.26,1.26,0,0,1-1.2-1.26v-17a1.19,1.19,0,0,1,2.34-.39c0,.05,0,.1,0,.15v17.22a1.23,1.23,0,0,1-1.15,1.3Z"></path><path id="Path-314" class="cls-19" d="M375,376.12a1.26,1.26,0,0,1-1.21-1.24v-17a1.2,1.2,0,0,1,1.67-1.21,1.23,1.23,0,0,1,.7,1v17.17a1.22,1.22,0,0,1-1.12,1.29Z"></path><path id="Path-315" class="cls-19" d="M405.56,356.9a1.19,1.19,0,0,1,.77,1.48,1.16,1.16,0,0,1-.77.77L393,366.51a4.11,4.11,0,0,1-3.91,0l-14.45-8.31a1.18,1.18,0,0,1-.77-1.49,1.19,1.19,0,0,1,.77-.76l12.52-7.36a4.16,4.16,0,0,1,3.91,0Z"></path><path id="Path-316" class="cls-19" d="M407,354.6l-11,3.9a20.54,20.54,0,0,1-12.62.4l-1.3-.45c-4.26-1.65-4.46-11.49-4.46-11.49a17.67,17.67,0,0,0,17.43,2.1L407,346a4.74,4.74,0,0,1,5.85,3.28v.07A4.2,4.2,0,0,1,413,351l-.15,2.11"></path><path id="Path-317" class="cls-19" d="M399.49,334.72l2.5,2.9,7.08-3.4s1.9-2,2.55-1.77.25,1.15.25,1.15,5.21-1.86,5.76-.15-.75,2.86-6.06,4.1l-8.37,4.81a2.5,2.5,0,0,1-2.75-.15l-5.16-3.76"></path><path id="Path-318" class="cls-20" d="M395.79,348.67s-2.46,5.71-9.73,4-8.41-6.37-8.41-6.37-3.54-24.22,2.55-24.13,16.13,6.2,16.13,6.2l4.43,6.81a7.61,7.61,0,0,1-5.16,3.53Z"></path><path id="Path-319" class="cls-19" d="M388.81,324.71l.66-3.6a20.71,20.71,0,0,0,.64-3.91c.11-1.56,3.06-3,2.61-4.66a.64.64,0,0,0-.31-.39.67.67,0,0,0-.5-.06.5.5,0,0,0-.39.35,4.85,4.85,0,0,1-1.77,2.06l.4,1.14-.89.46a2.42,2.42,0,0,0-1.9-1.1c-1.25.05.2,3.16.2,3.16s.16,2.24-2.65,1.69l-.75,3C384.06,322.86,385.06,324.86,388.81,324.71Z"></path><path id="Path-320" class="cls-20" d="M391.17,343.36l-14.28-8.26a1.15,1.15,0,0,0-1.2-.1l-1.3.75a1.17,1.17,0,0,1,1.2.1l14.28,8.26a3.61,3.61,0,0,1,1.66,2.9l.09,20.28a12.72,12.72,0,0,0,1.16-.6l.05-20.43A3.57,3.57,0,0,0,391.17,343.36Z"></path><path id="Path-321" class="cls-20" d="M373.89,358.6a1.4,1.4,0,0,0,.8,1.15l14.43,8.31a4.11,4.11,0,0,0,3.91,0l12.53-7.35a1.41,1.41,0,0,0,.79-1.15v-1.51a1.39,1.39,0,0,1-.79,1.15L393,366.57h-.15a.91.91,0,0,1-.72.07,1,1,0,0,1-.54-.47,1.71,1.71,0,0,1-.09-.45l.05-18.78a3.78,3.78,0,0,0-1.65-2.9l-14.29-8.26c-.89-.55-1.65-.1-1.7,1L373.89,357h0Z"></path><line id="Path-322" class="cls-23" x1="392.07" y1="335.32" x2="395.64" y2="338.67"></line><path id="Path-323" class="cls-27" d="M392.07,318.61s0,5.05-3.35,4.42c-1.91-.36-5.21-1.15-4.81-3.21.55-3.11-.88-2.81-.6-5.05s1-9.57,6.19-5.61c0,0,5.16-1.15,4.51,2.35C393.38,314.8,396.33,317.5,392.07,318.61Z"></path><polyline id="Path-324" class="cls-28" points="358.16 296.27 358.16 226.18 321.44 247.76 321.44 317.8"></polyline><line id="Path-325" class="cls-28" x1="339.77" y1="237" x2="339.77" y2="307.24"></line><polygon id="Path-326" class="cls-1" points="294.44 240.36 264.27 257.88 202.39 222.18 232.56 204.66 294.44 240.36"></polygon><polygon id="Path-327" class="cls-29" points="294.44 220.28 264.27 237.8 202.39 202.1 232.56 184.58 294.44 220.28"></polygon><polygon id="Path-328" class="cls-29" points="294.44 220.28 264.27 237.8 264.22 257.77 294.44 240.25 294.44 220.28"></polygon><polygon id="Path-329" class="cls-29" points="202.39 202.1 202.39 222.13 205.15 223.83 205.15 206.11 261.47 238.6 261.47 256.12 264.22 257.77 264.27 237.8 202.39 202.1"></polygon><polygon id="Path-330" class="cls-30" points="225.34 200.95 234.96 206.5 248.04 198.94 238.42 193.39 225.34 200.95"></polygon><polygon id="Path-331" class="cls-31" points="222.68 207.51 232.31 213.12 245.39 205.56 235.77 199.95 222.68 207.51"></polygon><path id="Path-332" class="cls-28" d="M381,35.29C322.28,1.64,252.75-8.5,187.17,8.29c-18.94,4.82-36.52,11.5-51.41,20.14C70.64,66,70.28,127,135,164.5L424.59,331.59c64.73,37.6,170,37.6,235.17,0s65.53-98.53.8-136.07Z"></path><polygon id="Path-333" class="cls-3" points="610.61 388.34 596.43 396.6 582.15 388.34 596.33 380.13 610.61 388.34"></polygon><polygon id="Path-334" class="cls-3" points="610.61 388.34 610.57 408.76 596.38 416.98 596.43 396.6 610.61 388.34"></polygon><polygon id="Path-335" class="cls-3" points="596.43 396.6 596.38 416.98 582.11 408.76 582.15 388.34 588.07 391.75 590.87 393.4 596.43 396.6"></polygon><polygon id="Path-336" class="cls-4" points="605.61 384.94 596.43 390.3 587.22 384.94 596.38 379.63 605.61 384.94"></polygon><polygon id="Path-337" class="cls-4" points="605.61 384.94 605.55 388.14 596.38 393.44 596.43 390.3 605.61 384.94"></polygon><polygon id="Path-338" class="cls-4" points="596.43 390.3 596.38 393.44 587.16 388.14 587.22 384.94 591.02 387.14 592.82 388.19 596.43 390.3"></polygon><line id="Path-339" class="cls-5" x1="602.74" y1="384.94" x2="602.74" y2="375.03"></line><line id="Path-340" class="cls-5" x1="596.43" y1="382.33" x2="596.43" y2="372.42"></line><path id="Path-341" class="cls-3" d="M558.46,406,545,398.17l-12.33,7.16L509,404.72V419.1l.7.4h0a66.75,66.75,0,0,0,17.73,6.81,94.61,94.61,0,0,0,41.69,0A67.65,67.65,0,0,0,584.19,421V406.62Z"></path><path id="Path-342" class="cls-3" d="M509.05,404.72l.7.39h0a65.94,65.94,0,0,0,17.73,6.81,94.56,94.56,0,0,0,41.68,0,67.32,67.32,0,0,0,15-5.36L545,383.79Z"></path><path id="Path-343" class="cls-3" d="M558.46,391.6,545,383.83,532.7,391l-23.65-.6v14.37l.7.41h0a66.25,66.25,0,0,0,17.73,6.8,94.26,94.26,0,0,0,41.68,0,67.29,67.29,0,0,0,15-5.35V392.25Z"></path><path id="Path-344" class="cls-3" d="M509.05,390.09l.7.4h0a64.5,64.5,0,0,0,17.75,6.8,94.47,94.47,0,0,0,41.66,0,70.89,70.89,0,0,0,15.1-5.3L545,369.17Z"></path><path id="Path-345" class="cls-3" d="M558.46,377,545,369.2l-12.33,7.16-23.69-.6v14.37l.7.4h0a64.12,64.12,0,0,0,17.79,6.8,94.26,94.26,0,0,0,41.68,0A70.1,70.1,0,0,0,584.26,392V377.63Z"></path><path id="Path-346" class="cls-3" d="M509.05,375.52l.7.41h0a66.28,66.28,0,0,0,17.73,6.81,94.56,94.56,0,0,0,41.68,0,67.82,67.82,0,0,0,15-5.36L545,354.6Z"></path><path id="Path-347" class="cls-3" d="M558.46,362.81,545,355.05l-12.33,7.16-23.69-.6V376l.7.41h0a66.88,66.88,0,0,0,17.73,6.81,94.61,94.61,0,0,0,41.69,0,70,70,0,0,0,15.13-5.35V363.46Z"></path><path id="Path-348" class="cls-3" d="M509.05,361.55l.7.41h0a65.94,65.94,0,0,0,17.78,6.81,94.61,94.61,0,0,0,41.69,0,67.14,67.14,0,0,0,15.07-5.36L545,340.63Z"></path><line id="Path-349" class="cls-9" x1="546.04" y1="371.12" x2="546.04" y2="428.59"></line><line id="Path-350" class="cls-9" x1="509.31" y1="375.88" x2="523.39" y2="367.72"></line><line id="Path-351" class="cls-9" x1="509.31" y1="389.85" x2="522.94" y2="381.93"></line><line id="Path-352" class="cls-9" x1="509.31" y1="404.31" x2="523.39" y2="396.1"></line><line id="Path-353" class="cls-9" x1="509.31" y1="418.73" x2="523.39" y2="410.57"></line><line id="Path-354" class="cls-9" x1="584.26" y1="377.63" x2="568.58" y2="369.07"></line><line id="Path-355" class="cls-9" x1="584.01" y1="391.95" x2="569.18" y2="383.14"></line><line id="Path-356" class="cls-9" x1="584.01" y1="406.41" x2="568.58" y2="397.46"></line><line id="Path-357" class="cls-9" x1="584.01" y1="420.89" x2="569.18" y2="411.92"></line><polygon id="Path-358" class="cls-32" points="513.17 369.62 514.77 370.62 519.43 368.07 517.77 367.06 513.17 369.62"></polygon><polygon id="Path-359" class="cls-32" points="513.17 369.62 513.17 376.78 514.82 377.78 514.77 370.62 513.17 369.62"></polygon><polygon id="Path-360" class="cls-32" points="514.77 370.62 514.82 377.78 519.43 375.22 519.43 368.07 517.32 369.22 516.38 369.82 514.77 370.62"></polygon><polygon id="Path-361" class="cls-33" points="516.68 371.42 518.28 372.42 522.94 369.87 521.28 368.87 516.68 371.42"></polygon><polygon id="Path-362" class="cls-33" points="516.68 371.42 516.68 378.63 518.33 379.58 518.28 372.42 516.68 371.42"></polygon><polygon id="Path-363" class="cls-33" points="518.28 372.42 518.33 379.58 522.94 377.03 522.94 369.87 520.83 371.02 519.83 371.63 518.28 372.42"></polygon><polygon id="Path-364" class="cls-32" points="560.26 387.69 561.86 388.7 566.48 386.09 564.87 385.13 560.26 387.69"></polygon><polygon id="Path-365" class="cls-32" points="560.26 387.69 560.26 394.85 561.86 395.85 561.86 388.7 560.26 387.69"></polygon><polygon id="Path-366" class="cls-32" points="561.86 388.7 561.86 395.85 566.52 393.3 566.48 386.09 564.42 387.29 563.42 387.89 561.86 388.7"></polygon><polygon id="Path-367" class="cls-32" points="563.72 389.49 565.37 390.49 569.98 387.89 568.38 386.94 563.72 389.49"></polygon><polygon id="Path-368" class="cls-32" points="563.72 389.49 563.77 396.65 565.37 397.65 565.37 390.49 563.72 389.49"></polygon><polygon id="Path-369" class="cls-32" points="565.37 390.49 565.37 397.65 570.03 395.1 569.98 387.89 567.93 389.09 566.93 389.69 565.37 390.49"></polygon><polygon id="Path-370" class="cls-32" points="530.9 402.21 532.51 403.21 537.12 400.66 535.52 399.66 530.9 402.21"></polygon><polygon id="Path-371" class="cls-32" points="530.9 402.21 530.9 409.42 532.51 410.37 532.51 403.21 530.9 402.21"></polygon><polygon id="Path-372" class="cls-32" points="532.51 403.21 532.51 410.37 537.16 407.82 537.12 400.66 535.07 401.81 534.06 402.41 532.51 403.21"></polygon><polygon id="Path-373" class="cls-32" points="534.41 404.01 536.01 405.02 540.63 402.46 539.02 401.46 534.41 404.01"></polygon><polygon id="Path-374" class="cls-32" points="534.41 404.01 534.41 411.22 536.01 412.18 536.01 405.02 534.41 404.01"></polygon><polygon id="Path-375" class="cls-32" points="536.01 405.02 536.01 412.18 540.67 409.62 540.63 402.46 538.57 403.66 537.57 404.21 536.01 405.02"></polygon><polygon id="Path-376" class="cls-32" points="530.9 417.18 532.51 418.18 537.12 415.57 535.52 414.63 530.9 417.18"></polygon><polygon id="Path-377" class="cls-32" points="530.9 417.18 530.9 424.34 532.51 425.34 532.51 418.18 530.9 417.18"></polygon><polygon id="Path-378" class="cls-32" points="532.51 418.18 532.51 425.34 537.16 422.79 537.12 415.57 535.07 416.77 534.06 417.38 532.51 418.18"></polygon><polygon id="Path-379" class="cls-32" points="534.41 418.99 536.01 419.98 540.63 417.43 539.02 416.43 534.41 418.99"></polygon><polygon id="Path-380" class="cls-32" points="534.41 418.99 534.41 426.14 536.01 427.14 536.01 419.98 534.41 418.99"></polygon><polygon id="Path-381" class="cls-32" points="536.01 419.98 536.01 427.14 540.67 424.59 540.63 417.43 538.57 418.58 537.57 419.18 536.01 419.98"></polygon><path id="Path-382" class="cls-3" d="M429.25,242.35s-.65,6.41,4.65,7.66l15.91-9.16-3.75-2.1Z"></path><path id="Path-383" class="cls-2" d="M446.63,217.82l2.3,12.32,10.27,7.66a1.52,1.52,0,0,1,.62,1.06,1.57,1.57,0,0,1-.32,1.2.24.24,0,0,0-.09.15h0a1.63,1.63,0,0,1-1.91.3l-10.22-5.17a5,5,0,0,1-2.66-3.4l-2.95-10.21"></path><path id="Path-384" class="cls-10" d="M440.77,208s4.06.88,4.76-.65c0,0-.88-3.21-3.21-3.53s-2.6-.65-4.9-.05c-1.05.25-4.17,3.25-1.2,6.81s1.9,1.5,1.9,1.5l.95-.2,1-3.88Z"></path><path id="Path-385" class="cls-2" d="M428.44,233.84c-.45-3.8-.64-8.05.16-10.61,1.76-5.45,13.88-11.26,16.58-7.91a7.38,7.38,0,0,1,1.9,4.7c0,.56,0,1.77-.1,3.46-.05.55-.05,1.1-.09,1.77-.41,5.81-1.06,14.27-1.06,14.27s-2.1,7.71-15.23,3.53h0l-1.35-.45Z"></path><path id="Path-386" class="cls-3" d="M441.52,218.17l.41-1.76s2.8,0,3.53-.89-.75-7.41-.75-7.41a12,12,0,0,1-6-1l.3,1.76-.66,2.25-.65,0s-.4-1.24-1.4-.55,1.19,2.78,1.19,2.78l-.25,2.95C437.27,216.37,437.76,219.32,441.52,218.17Z"></path><polygon id="Path-387" class="cls-14" points="441.33 218.47 441.37 220.77 442.53 237.39 441.42 241.15 440.02 238.95 440.32 220.98 440.32 220.98 439.82 218.78 441.33 218.47"></polygon><path id="Path-388" class="cls-2" d="M434.51,225.19,435,235l10.17,9.52a1.63,1.63,0,0,1,.1,2.3l-.15.15h0a1.58,1.58,0,0,1-1.91.1l-11.12-6.9a5,5,0,0,1-2.2-3.66L428.08,226"></path><path id="Path-389" class="cls-3" d="M439.37,215.22a4.72,4.72,0,0,0,2.41,1.1"></path><path id="Path-390" class="cls-3" d="M460.06,238.45s5,3.06,2.55,4.81-6.1-3.31-6.1-3.31S457.86,236.65,460.06,238.45Z"></path><path id="Path-391" class="cls-3" d="M446.28,245.16s5,3.06,2.55,4.81-6.12-3.31-6.12-3.31S444.08,243.41,446.28,245.16Z"></path><path id="Path-392" class="cls-10" d="M445.23,212.27s-2.1.45-2.7,1.85l3-.89Z"></path><path id="Path-393" class="cls-2" d="M409.15,149.29l2.25,12.31,10.26,7.66a1.54,1.54,0,0,1,.62,1.07,1.52,1.52,0,0,1-.32,1.18c0,.06-.09.1-.09.15h0a1.58,1.58,0,0,1-1.9.3l-10.18-5.15a5,5,0,0,1-2.65-3.4l-2.95-10.22"></path><path id="Path-394" class="cls-3" d="M422.51,169.83s5,3.06,2.56,4.81-6.11-3.3-6.11-3.3S420.33,168,422.51,169.83Z"></path><path id="Path-395" class="cls-10" d="M403.35,139.47s4,.89,4.76-.65c0,0-.88-3.2-3.21-3.54s-2.61-.65-4.9-.05a4.21,4.21,0,0,0-1.21,6.81c3,3.55,1.9,1.5,1.9,1.5l1-.19,1-3.91Z"></path><path id="Path-396" class="cls-2" d="M391,165.25c-.45-3.8-.64-8.05.15-10.61,1.77-5.45,13.88-11.26,16.59-7.95a7.43,7.43,0,0,1,1.9,4.7c0,.5-.05,1.77-.1,3.46-.05.55-.05,1.1-.1,1.77-.4,5.8-1,14.26-1,14.26s-2.1,7.71-15.23,3.54h0l-1.35-.45Z"></path><path id="Path-397" class="cls-3" d="M404.05,149.63l.4-1.77s2.8,0,3.54-.88-.71-7.45-.71-7.45a12,12,0,0,1-6.09-1l.3,1.77-.66,2.24-.65.06s-.4-1.26-1.4-.55,1.25,2.8,1.25,2.8l-.25,2.95C399.79,147.84,400.3,150.79,404.05,149.63Z"></path><path id="Path-398" class="cls-2" d="M397,156.64l5.86,8,8.53-6.64c.59-.65,3,1.33,2.56,1.94,0,0-6.74,10.6-10.66,10.6s-11.17-9.63-11.17-9.63"></path><path id="Path-399" class="cls-13" d="M412.89,164.6l6.15-3.1a1.69,1.69,0,0,0,.88-1.07l2.42-8.84a.37.37,0,0,0-.13-.41.38.38,0,0,0-.44-.05l-6.14,3.09a1.68,1.68,0,0,0-.89,1.06l-2.42,8.84a.43.43,0,0,0,.13.43A.42.42,0,0,0,412.89,164.6Z"></path><path id="Path-400" class="cls-3" d="M412.22,162.12a11.19,11.19,0,0,0,5.16-2.54c1.6-1.41,1.88-5.31-5.94-1.64C411.44,158,411.31,160.9,412.22,162.12Z"></path><path id="Path-401" class="cls-3" d="M401.9,146.68a4.69,4.69,0,0,0,2.4,1.1"></path><path id="Path-402" class="cls-2" d="M506.39,269.36l1.88,10.46a4.94,4.94,0,0,1-.89,4.23l-6.83,9.12a1.61,1.61,0,0,1-1.85.57h0c0-.05-.08-.07-.15-.09a1.54,1.54,0,0,1-.72-2.11l5.81-11.42-3.43-12"></path><path id="Path-403" class="cls-3" d="M501.13,293.64s-.54,6.24-3.53,6-.32-5.44-.32-5.44C498.27,291.52,501.13,293.64,501.13,293.64Z"></path><path id="Path-404" class="cls-2" d="M506.39,339.31c.1.66.81,2.16.89,3,.09,1.7-10.45,4-11.22,2.65-1.11-1.94,6.29-5.38,6.29-5.38"></path><path id="Path-405" class="cls-2" d="M509.13,302.05l-1.34,37a8.16,8.16,0,0,1-6.44.36l-1.28-48.31,10.31,2.65"></path><path id="Path-406" class="cls-10" d="M507.08,258.49l.89,3.92.94.23s-1.12,2,1.95-1.43a4.21,4.21,0,0,0-1-6.84c-2.28-.68-2.7-.34-4.91-.11s-3.33,3.34-3.33,3.34c.65,1.58,4.75.81,4.75.81Z"></path><path id="Path-407" class="cls-2" d="M516.8,293.27l-1.36.41h0c-13.26,3.79-15.37-2.55-15.37-2.55s-.13-9.91-.34-15.73v-5.22a7.44,7.44,0,0,1,2-4.65c2.81-3.27,14.75,2.92,16.33,8.44.72,2.57.38,6.82-.19,10.61Z"></path><path id="Path-408" class="cls-3" d="M509.67,266.84l-.15-3s2.31-2,1.33-2.76-1.41.51-1.41.51l-.66-.07-.62-2.28.37-1.76a12.1,12.1,0,0,1-6.07.8s-1.61,6.57-.94,7.44,3.48,1,3.48,1l.34,1.82C509.05,269.83,509.67,266.9,509.67,266.84Z"></path><path id="Path-409" class="cls-2" d="M513.92,282l-10.35,2.58a5,5,0,0,1-4.24-.57l-10.77-7.45a1.57,1.57,0,0,1-.66-1.77h0l.08-.19a1.65,1.65,0,0,1,2.15-.83l12.77,5.54,9.24-3.54"></path><path id="Path-410" class="cls-3" d="M505.17,266.7a4.88,4.88,0,0,0,2.43-1"></path><path id="Path-411" class="cls-3" d="M489.15,276.81s-6.11-1.39-5.46-4.29,5.43.42,5.43.42C491.6,274.27,489.15,276.81,489.15,276.81Z"></path><path id="Path-412" class="cls-2" d="M517.45,343.24a10.9,10.9,0,0,1,.83,2.73c.09,1.77-8.2,5.65-9.66,5.07-2.91-1.16,4.76-7.58,4.76-7.58"></path><path id="Path-413" class="cls-2" d="M516.8,293.27c2.47,5.86.88,10.66.82,14s1,35.92,1,35.92-3.54,2.37-7.16.39l-4.22-39.64"></path><path id="Path-414" class="cls-13" d="M488.71,274l-3.95-1.72-1.66-5.51a.76.76,0,0,1,1-.88l1.63.71a1.87,1.87,0,0,1,1.05,1.18Z"></path><path id="Path-415" class="cls-13" d="M190,133c.1,0,2.56-3.48,3.37-4a2.42,2.42,0,0,1,3,.32c1.47,1.39,2.27,3.14,1.77,3.65-.69.69-3.46-1-3.46-1s-2.91,7.34-3.89,6.94-5.18-8.84-5.11-8.84,3.35-3,3.35-3l1.77,5"></path><path id="Path-416" class="cls-2" d="M175.84,193.77a11.63,11.63,0,0,0-.67,2.78c0,1.77,8.52,5.19,9.92,4.51,2.84-1.33-5.16-7.3-5.16-7.3"></path><path id="Path-417" class="cls-2" d="M184.23,189.8c-.06.67-.69,2.19-.69,3,0,1.7,10.66,3.42,11.36,2,1-2-6.59-5-6.59-5"></path><path id="Path-418" class="cls-2" d="M179.42,152.73l4.81,37.06c1.36,1,4.17,0,4.17,0s2.84-38.3-.53-48.45l-11.63,2.5"></path><path id="Path-419" class="cls-3" d="M183.05,121.46a3.73,3.73,0,0,1,4.61,1.7c1.3,2.3,2.75,5.7,1.91,8.61a50.19,50.19,0,0,0-1.71,9.56s-4.91,5.26-11.63,2.51c0,0,1-8.27-1.2-8.51s-2.95-9.37-1.1-10.27C175.18,124.36,179.89,122.61,183.05,121.46Z"></path><path id="Path-420" class="cls-11" d="M183.8,120.51l.25,1.46a2.3,2.3,0,0,1,2.21,2.41v.09c0,1.55-1.56,2.2-2.46,2.56-1.77.69-5.61,1.09-6.06-2.26-.2-1.71,2-2.46,2-2.46l.51-3.43s-2.66-.94-2.21-2.6,1.91-.54,1.91-.54l1.09.3s-1.15-4.09-.39-3.84a8.41,8.41,0,0,0,3,.11,3,3,0,0,0,2.45-1.21s.65.3.75,1.51S188.12,121.22,183.8,120.51Z"></path><path id="Path-421" class="cls-2" d="M176.23,143.84c-2.14,6-2.5,10.15-2.25,13.45s1.86,36.48,1.86,36.48,2.66,1.14,4.09,0l4.66-39.42"></path><path id="Path-422" class="cls-27" d="M187.44,113.5a1.66,1.66,0,0,0-.45-1.61c-1.17,1.35-4.77.42-5.51,0s-.25,3.69-.25,3.69l-1-.5s-1.21-1.4-2,.19,1.68,3,1.68,3l-.16,4a22.68,22.68,0,0,1-3.47,1.4c-2,.6-3.54,3.43-3.54,3.43-1.86-3.18,2.22-4.6.89-9.94-1.34-5.51,3.53-8.45,3.53-8.45,1.77-5.37,7.17-2,7.17-2,4.51.39,3.42,3.2,3.64,5a1.87,1.87,0,0,1-.54,1.77Z"></path><path id="Path-423" class="cls-12" d="M187.44,113.5c-.12,1.2-.27,8.66-4.42,7.16"></path><path id="Path-424" class="cls-3" d="M172.91,128.18c.07-1.53.39-2.8,1-3.11a31.75,31.75,0,0,1,5.81-2.73"></path><path id="Path-425" class="cls-12" d="M184.28,120.88l-.23,1.09a2.3,2.3,0,0,1,2.21,2.41v.09c0,1.55-1.56,2.2-2.46,2.56-1.77.69-5.61,1.09-6.06-2.26-.2-1.71,2-2.46,2-2.46"></path><path id="Path-426" class="cls-13" d="M186.5,144.23l6.19-3.09a1.69,1.69,0,0,0,.88-1.07l2.41-8.84a.4.4,0,0,0-.29-.49.49.49,0,0,0-.27,0l-6.19,3.1a1.63,1.63,0,0,0-.88,1.07l-2.43,8.84a.45.45,0,0,0,.14.42.44.44,0,0,0,.44,0Z"></path><path id="Path-427" class="cls-3" d="M173.09,131.22s1.32,7.55,2.92,9.19,10.27,0,10.27,0a11.18,11.18,0,0,0,5.15-2.55c1.6-1.4,2.65-4.57-4.55-.46l-7.64.16-1.26-6a4.69,4.69,0,0,1-4.89-.32Z"></path><ellipse id="Oval-2" class="cls-34" cx="480.35" cy="240.17" rx="33.69" ry="33.72" transform="translate(166.31 675.83) rotate(-80.78)"></ellipse><ellipse id="Oval-3" class="cls-35" cx="480.32" cy="240.15" rx="20.54" ry="20.53"></ellipse><ellipse id="Oval-4" class="cls-36" cx="480.32" cy="239.91" rx="17.53" ry="17.52"></ellipse><line id="Path-428" class="cls-37" x1="474.16" y1="234.14" x2="487.49" y2="247.46"></line><line id="Path-429" class="cls-37" x1="487.49" y1="234.14" x2="474.16" y2="247.46"></line><ellipse id="Oval-5" class="cls-38" cx="329.5" cy="68.33" rx="33.72" ry="33.69"></ellipse><ellipse id="Oval-6" class="cls-39" cx="329.5" cy="68.33" rx="20.54" ry="20.53"></ellipse><ellipse id="Oval-7" class="cls-40" cx="329.5" cy="68.13" rx="17.53" ry="17.52"></ellipse><path id="Shape" class="cls-11" d="M338.17,61.47a1.48,1.48,0,0,0-1.1-.49c-2.51,0-6-1.77-7.12-2.52a1.24,1.24,0,0,0-.75-.19,1.61,1.61,0,0,0-.75.19c-.05.06-4.16,2.52-7.08,2.52a1.42,1.42,0,0,0-1.1.49,1.31,1.31,0,0,0-.3,1.15l.45,3.46a20.19,20.19,0,0,0,7.91,13.36,1.4,1.4,0,0,0,.89.25,1.83,1.83,0,0,0,.88-.25,20.33,20.33,0,0,0,8-13.36l.5-3.46A1.41,1.41,0,0,0,338.17,61.47Zm-4.66,3.76-4.61,7.35a.5.5,0,0,1-.35.21h-.05a.56.56,0,0,1-.35-.15l-2.56-2.41a.49.49,0,0,1,.2-.88.5.5,0,0,1,.51.18l2.15,2,4.26-6.85a.44.44,0,0,1,.29-.22.39.39,0,0,1,.36.07.45.45,0,0,1,.22.32.52.52,0,0,1-.07.38Z"></path><ellipse id="Oval-8" class="cls-38" cx="250.17" cy="167.53" rx="33.72" ry="33.69"></ellipse><ellipse id="Oval-9" class="cls-39" cx="250.17" cy="167.53" rx="20.54" ry="20.53"></ellipse><ellipse id="Oval-10" class="cls-40" cx="250.17" cy="167.27" rx="17.53" ry="17.52"></ellipse><path id="Shape-2" class="cls-11" d="M258.85,160.61a1.48,1.48,0,0,0-1.1-.49c-2.51,0-6-1.77-7.08-2.51a1.17,1.17,0,0,0-.75-.2,1.53,1.53,0,0,0-.75.2s-4.16,2.51-7.12,2.51a1.45,1.45,0,0,0-1.1.49,1.39,1.39,0,0,0-.3,1.16l.45,3.45a20.28,20.28,0,0,0,8,13.37,1.36,1.36,0,0,0,.88.25,2.08,2.08,0,0,0,.88-.25,20.26,20.26,0,0,0,8-13.37l.5-3.45A1.37,1.37,0,0,0,258.85,160.61Zm-4.61,3.76-4.61,7.35a.5.5,0,0,1-.34.21h-.06a.58.58,0,0,1-.35-.15l-2.56-2.41a.5.5,0,0,1,.06-.65.48.48,0,0,1,.65,0l2.15,2,4.26-6.86a.44.44,0,0,1,.29-.23.45.45,0,0,1,.36.07.55.55,0,0,1,.15.7Z"></path><ellipse id="Oval-11" class="cls-38" cx="553.8" cy="219.62" rx="33.72" ry="33.69"></ellipse><ellipse id="Oval-12" class="cls-39" cx="553.8" cy="219.62" rx="20.54" ry="20.53"></ellipse><ellipse id="Oval-13" class="cls-40" cx="553.8" cy="219.38" rx="17.53" ry="17.52"></ellipse><path id="Shape-3" class="cls-11" d="M562.46,212.72a1.44,1.44,0,0,0-1.09-.5c-2.51,0-6-1.77-7.08-2.51a1.17,1.17,0,0,0-.75-.2,1.53,1.53,0,0,0-.75.2c0,.06-4.15,2.51-7.07,2.51a1.46,1.46,0,0,0-1.1.5,1.36,1.36,0,0,0-.3,1.15l.45,3.46a20.19,20.19,0,0,0,8,13.36,1.39,1.39,0,0,0,.88.25,2.16,2.16,0,0,0,.89-.25,20.28,20.28,0,0,0,8-13.36l.5-3.46a1.37,1.37,0,0,0-.3-1.15Zm-4.66,3.75-4.6,7.36a.49.49,0,0,1-.36.2h0a.51.51,0,0,1-.35-.15l-2.55-2.4a.51.51,0,0,1-.19-.51.5.5,0,0,1,.58-.39.51.51,0,0,1,.3.19l2.16,2,4.26-6.86a.4.4,0,0,1,.29-.22.46.46,0,0,1,.36.07.55.55,0,0,1,.1.7Z"></path><path id="Path-430" class="cls-13" d="M252.29,221.36l2.84-1.44a.94.94,0,0,0,.5-1.12l-2.38-8.31a.76.76,0,0,0-.43-.51.81.81,0,0,0-.68,0l-2.85,1.43a1,1,0,0,0-.49,1.13l2.38,8.31a.8.8,0,0,0,1.11.52Z"></path><path id="Path-431" class="cls-3" d="M279.51,223.68l2.65,6.54L275.78,240s-3.92,6.82-1.88,7.4c3,.88,4-5.12,4-5.12l7.67-9.84a3.46,3.46,0,0,0,.68-3.08l-1.66-6.18C282.66,220,279.49,223.64,279.51,223.68Z"></path><path id="Path-432" class="cls-3" d="M279,212.31c4.16,2.31,5.55,10.82,5.55,10.82a8.86,8.86,0,0,1-5.89,2.94l-3.91-7.75"></path><path id="Path-433" class="cls-2" d="M281.58,287.73c-.32.6.88,3.61-1.54,5s-14-4.35-11.93-6.09,8.84.07,8.84.07"></path><path id="Path-434" class="cls-2" d="M280.62,236.24a62.62,62.62,0,0,1,.5,15.65c-.15,3.32.32,35.95.32,35.95a7.31,7.31,0,0,1-7.16.25l-7.81-58.18"></path><path id="Path-435" class="cls-2" d="M266.23,294.79c-.32.59.89,3.61-1.54,5s-13.95-4.35-11.93-6.08,8.84.07,8.84.07"></path><path id="Path-436" class="cls-2" d="M275.83,245.54c1.12,6.26-1.48,10.61-2.26,13.81s-6.85,35.29-6.85,35.29a7.32,7.32,0,0,1-7.07-1.18l2.83-54.86"></path><path id="Path-437" class="cls-19" d="M262.94,228.33s-5.57,5-7.77,4.23-5-10-5-10c-4.43-5.23-.5-7.11-.5-7.11l1.29,4s.14-1,.8-.89.77,3.13.77,3.13l3.78,5.85,2.5-2.91"></path><path id="Path-438" class="cls-20" d="M262.63,228.73a7.64,7.64,0,0,1-5.16-3.54l4.42-6.8s10-6.19,16.14-6.26,2.55,24.13,2.55,24.13-1.15,4.56-8.41,6.31-9.73-4-9.73-4Z"></path><path id="Path-439" class="cls-41" d="M273.4,209.76c6.19-5.26-.24-9.27-.24-9.27-.66-3.4-5.11-3-6.77-1.9s-.47,4.2-.47,4.2S268.2,214.16,273.4,209.76Z"></path><path id="Path-440" class="cls-11" d="M274.15,212.81l-.75-3c-2.8.55-2.65-1.71-2.65-1.71s1.45-3.1.2-3.15a2.34,2.34,0,0,0-1.92,1.11l-.89-.45.41-1.16a4.76,4.76,0,0,1-1.77-2,.51.51,0,0,0-.41-.35.65.65,0,0,0-.49.06.59.59,0,0,0-.3.39,21.29,21.29,0,0,0-.89,5.66c.21,2.65,4.12,2.91,4.12,2.91l.65,3.6C273.2,214.81,274.21,212.76,274.15,212.81Z"></path><path id="Path-441" class="cls-42" d="M265.49,202.45a20.81,20.81,0,0,0-.88,5.65c.2,2.66,4.11,2.91,4.11,2.91l.65,3.6c3.76.15,4.76-1.85,4.76-1.85l-.75-3"></path><line id="Path-442" class="cls-23" x1="262.63" y1="228.63" x2="266.19" y2="225.27"></line><polyline id="Path-443" class="cls-28" points="420.18 261.23 291.53 335.32 291.53 255.27 527.35 119.4 527.35 199.5 522.84 202.1"></polyline></g></g></g></svg> 