<svg enable-background="new 0 0 24.4 24.4" viewBox="0 0 24.4 24.4" xmlns="http://www.w3.org/2000/svg"><text transform="translate(4.91 16.916)"><tspan fill="#dbded7" font-family="'UnitedSansReg-Medium'" font-size="14.128" x="0" y="0">4</tspan><tspan fill="#dbded7" font-family="'UnitedSansReg-Medium'" font-size="11.271" x="8.1" y="0">B</tspan></text><path d="m12.2 24.4v-1c.7 0 1.3-.1 1.9-.2l.2 1c-.7.1-1.4.2-2.1.2zm-2.1-.2c-.7-.1-1.4-.3-2.1-.5l.3-.9c.6.2 1.2.4 1.9.5zm6.3-.5-.4-1c.6-.2 1.2-.5 1.8-.8l.5.9c-.6.3-1.3.6-1.9.9zm-10.3-.9c-.6-.4-1.2-.8-1.7-1.2l.6-.8c.5.4 1 .8 1.6 1.1zm14-1.3-.6-.8c.5-.4 1-.9 1.4-1.4l.8.6c-.6.7-1.1 1.2-1.6 1.6zm-17.2-1.4c-.5-.5-.9-1.1-1.2-1.7l.9-.5c.3.6.7 1.1 1.1 1.6zm19.9-1.8-.9-.5c.3-.6.6-1.2.8-1.8l.9.3c-.2.7-.5 1.4-.8 2zm-22.1-1.9-.6-2.1 1-.2c.1.6.3 1.3.5 1.9zm23.5-2.1-1-.2c.1-.6.2-1.3.2-1.9h1c0 .7-.1 1.4-.2 2.1zm-24.2-2.1c0-.7.1-1.4.2-2.1l1 .2c-.1.6-.2 1.3-.2 1.9zm23.2-2c-.1-.6-.3-1.3-.5-1.9l1-.3.6 2.1zm-21.5-1.8-1-.3c.3-.7.6-1.4.9-2l.9.5c-.3.6-.6 1.2-.8 1.8zm20.2-1.8c-.3-.6-.7-1.1-1.1-1.6l.8-.6c.5.5.9 1.1 1.2 1.7zm-18.3-1.6-.8-.6 1.5-1.5.7.7c-.5.5-1 .9-1.4 1.4zm15.8-1.4c-.5-.4-1-.8-1.6-1.1l.5-.9c.6.4 1.2.8 1.7 1.2zm-12.8-1.1-.5-.8c.6-.4 1.2-.7 1.9-1l.3.9c-.6.3-1.2.6-1.7.9zm9.4-.8c-.6-.2-1.2-.4-1.9-.5l.2-1c.7.1 1.4.3 2.1.5zm-5.8-.5-.2-1c.7-.1 1.5-.2 2.2-.2v1c-.7 0-1.3.1-2 .2z" fill="#e22228"/></svg>