<svg width="32" height="32" xmlns="http://www.w3.org/2000/svg" fill="none">
 <defs>
  <filter height="200%" width="200%" y="-50%" x="-50%" id="svg_26_blur">
   <feGaussianBlur stdDeviation="0" in="SourceGraphic"/>
  </filter>
 </defs>
 <g>
  <title>Layer 1</title>
  <path filter="url(#svg_26_blur)" id="svg_9" fill="#ffaa56" d="m11.79912,4.97312c-0.51974,0.90361 -1.12612,1.98439 -1.35134,2.3919l-0.4158,0.74415l0.39847,0.83274c0.3465,0.70871 0.43313,0.7973 0.6237,0.58469c0.12128,-0.14175 0.9702,-1.57689 1.88842,-3.22465l1.66321,-2.95887l-0.93556,0l-0.93555,0l-0.93555,1.63004z"/>
  <path filter="url(#svg_26_blur)" id="svg_10" fill="#ffaa56" d="m13.51417,6.99321l-2.07899,3.66759l0.4158,0.76187c0.2079,0.42523 0.45045,0.77958 0.51975,0.77958c0.10394,0 4.79895,-8.18563 4.98955,-8.69945c0.0347,-0.08859 -0.3465,-0.15946 -0.8662,-0.15946l-0.9182,0l-2.06171,3.64987z"/>
  <path filter="url(#svg_26_blur)" id="svg_11" fill="#ffaa56" d="m17.77608,4.53032c-1.9058,3.36638 -4.5045,7.99073 -4.69508,8.34509c-0.19057,0.35435 -0.15592,0.51379 0.25988,1.22249c0.3465,0.6024 0.50242,0.7442 0.60637,0.567c0.0693,-0.1417 1.26473,-2.25016 2.63343,-4.6775l2.5121,-4.42945l1.23,-0.05315l1.2301,-0.05316l-0.5544,-1.04535l-0.5717,-1.06307l-0.9875,0l-0.9875,0l-0.6757,1.1871z"/>
  <path filter="url(#svg_26_blur)" id="svg_12" fill="#ff5656" d="m7.3119,7.02831l-0.45045,0.83274l2.77199,4.92555l2.77198,4.9078l0.93555,0c0.93551,0 0.93551,0 0.74501,-0.4075c-0.12131,-0.2126 -1.29941,-2.3033 -2.63343,-4.64204l-2.40816,-4.25227l0.53707,-0.9922c0.29453,-0.54925 0.53707,-1.04535 0.53707,-1.11622c0,-0.05316 -0.51974,-0.10631 -1.16077,-0.10631l-1.17809,0l-0.46777,0.85045z"/>
  <path filter="url(#svg_26_blur)" id="svg_13" fill="#56aaff" d="m19.68188,6.39064c-0.1906,0.26577 -0.7277,1.32884 -0.7277,1.47058c0,0.05315 1.5939,0.08859 3.5517,0.08859c1.9577,0 3.5516,-0.05315 3.5516,-0.12402c0,-0.05316 -0.1906,-0.46067 -0.4332,-0.8859l-0.4504,-0.76186l-2.6507,0c-1.9231,0 -2.7027,0.05315 -2.8413,0.21261z"/>
  <path filter="url(#svg_26_blur)" id="svg_14" fill="#ff5656" d="m6.16844,9.04814c-0.08662,0.12403 -0.29452,0.4961 -0.45045,0.79731l-0.2772,0.58468l2.02702,3.63217l2.04434,3.6144l0.91822,0.0177c0.4851,0 0.9009,-0.0354 0.9009,-0.1063c0,-0.1063 -4.86831,-8.75257 -4.9376,-8.75257c-0.01733,0 -0.12128,0.10631 -0.22523,0.21261z"/>
  <path filter="url(#svg_26_blur)" id="svg_15" fill="#56aaff" d="m17.86278,9.5795l-0.4331,0.76187l4.9376,0.05315c2.7373,0.01772 4.9896,0 5.0242,-0.03544c0.052,-0.03543 -0.0866,-0.38979 -0.2945,-0.7973l-0.3465,-0.72643l-4.2273,0l-4.2272,0l-0.4332,0.74415z"/>
  <path filter="url(#svg_26_blur)" id="svg_16" fill="#ff5656" d="m4.50526,12.00702c-0.24255,0.38979 -0.45045,0.7973 -0.45045,0.88589c0,0.08859 0.58905,1.22249 1.31669,2.48049l1.3167,2.321l0.93554,0l0.95287,0l-0.43312,-0.7618c-0.22522,-0.4075 -1.0395,-1.8427 -1.80179,-3.207l-1.386,-2.44501l-0.45044,0.72643z"/>
  <path filter="url(#svg_26_blur)" id="svg_17" fill="#56aaff" d="m16.47688,12.05995c-0.2426,0.42523 -0.3985,0.81502 -0.3465,0.88589c0.0346,0.08859 2.4255,0.14174 5.3014,0.14174l5.2495,0l0.5024,0.97452c0.2945,0.5315 0.589,0.9567 0.6583,0.9213c0.0866,-0.0177 0.3812,-0.4784 0.6757,-1.0276l0.5371,-0.99224l-0.4851,-0.81502l-0.4678,-0.83274l-5.596,0l-5.5959,0l-0.4331,0.74415z"/>
  <path filter="url(#svg_26_blur)" id="svg_18" fill="#ff5656" d="m18.78098,14.0801c0,0.0708 1.0915,2.0552 2.4428,4.4294c1.3514,2.3919 2.4775,4.4826 2.5295,4.6775c0.052,0.1949 -0.1386,0.7619 -0.4505,1.3289l-0.537,0.9744l1.2127,0l1.2127,0l0.4332,-0.7264c0.2598,-0.3898 0.4331,-0.8327 0.3984,-0.9568c-0.0346,-0.1417 -1.2647,-2.4096 -2.7373,-5.0318l-2.6854,-4.7838l-0.9009,-0.0177c-0.5024,0 -0.9182,0.0531 -0.9182,0.1063z"/>
  <path filter="url(#svg_26_blur)" id="svg_19" fill="#ff5656" d="m22.10738,15.0013c3.1531,5.6697 4.4005,7.8136 4.5391,7.7782c0.0693,-0.0355 0.3292,-0.3721 0.5544,-0.7442l0.3985,-0.7087l-1.2647,-2.2147c-0.693,-1.2226 -1.6286,-2.8703 -2.079,-3.6853l-0.8316,-1.4529l-0.9529,0l-0.9355,0l0.5717,1.0276z"/>
  <path filter="url(#svg_26_blur)" id="svg_20" fill="#ff5656" d="m24.49818,14.0623c0,0.1418 3.4823,6.2899 3.5689,6.2899c0.0347,0 0.2599,-0.3544 0.5024,-0.7796l0.4505,-0.7796l-1.3514,-2.4096l-1.3513,-2.3919l-0.9009,-0.0178c-0.5024,0 -0.9182,0.0355 -0.9182,0.0886z"/>
  <path filter="url(#svg_26_blur)" id="svg_21" fill="#56aaff" d="m4.59188,17.535c-0.29452,0.5316 -0.53707,1.0277 -0.53707,1.134c0,0.0886 0.17325,0.5138 0.38115,0.9213l0.39847,0.7619l5.66525,0l5.6826,0l0.3465,-0.7088c0.1905,-0.372 0.3465,-0.7441 0.3465,-0.7973c0,-0.0531 -2.3389,-0.0885 -5.19751,-0.0885l-5.19747,0l-0.4851,-0.8151c-0.86625,-1.506 -0.79695,-1.4883 -1.40332,-0.4075z"/>
  <path filter="url(#svg_26_blur)" id="svg_22" fill="#ffaa56" d="m16.45948,21.592l-2.56413,4.6067l-1.19541,0c-0.65835,0 -1.19542,0.0531 -1.19542,0.1063c0,0.0708 0.24254,0.5492 0.53707,1.063l0.51975,0.9568l1.02217,0l1.00487,0l2.772,-4.9255l2.7719,-4.9079l-0.3984,-0.7087c-0.2079,-0.3721 -0.4678,-0.7087 -0.5371,-0.7441c-0.0866,-0.0178 -1.3167,2.0375 -2.7373,4.5534z"/>
  <path filter="url(#svg_26_blur)" id="svg_23" fill="#ffaa56" d="m18.10528,23.789c-1.3513,2.3742 -2.4428,4.3763 -2.4428,4.4295c0,0.0532 0.4158,0.1063 0.9182,0.1063c0.8663,0 0.9182,-0.0354 1.2647,-0.6733c0.1906,-0.3543 1.1088,-1.9844 2.0271,-3.6321l1.6805,-2.9589l-0.3465,-0.691c-0.1906,-0.3898 -0.4158,-0.7441 -0.5025,-0.7973c-0.0866,-0.0531 -1.2473,1.8427 -2.5987,4.2168z"/>
  <path filter="url(#svg_26_blur)" id="svg_24" fill="#56aaff" d="m5.44079,21.309c0,0.1771 0.77963,1.4351 0.95288,1.5591c0.08662,0.0709 1.97504,0.1418 4.19263,0.1418l4.01938,0l0.4504,-0.7619c0.2426,-0.4252 0.4332,-0.8327 0.4332,-0.8859c0,-0.0709 -2.25227,-0.124 -5.02426,-0.124c-2.75466,0 -5.02423,0.0354 -5.02423,0.0709z"/>
  <path filter="url(#svg_26_blur)" id="svg_25" fill="#ffaa56" d="m20.49608,24.6399c-0.7796,1.3997 -1.5766,2.7994 -1.7498,3.1183l-0.3465,0.5847l0.9875,-0.0532l0.9702,-0.0531l1.2994,-2.3033l1.2994,-2.3034l-0.3465,-0.7618c-0.1906,-0.4075 -0.4332,-0.7442 -0.5198,-0.7442c-0.0866,0 -0.7969,1.134 -1.5939,2.516z"/>
  <path filter="url(#svg_26_blur)" id="svg_26" fill="#56aaff" d="m7,23.9135c0,0.1063 0.17325,0.5138 0.38115,0.8858l0.38115,0.691l2.72001,0l2.73734,0l0.43312,-0.7441c0.24255,-0.4075 0.39851,-0.7973 0.3465,-0.8859c-0.1386,-0.2303 -6.99927,-0.1772 -6.99927,0.0532z"/>
 </g>
</svg>