<svg enable-background="new 0 0 412 547" viewBox="0 0 412 547" xmlns="http://www.w3.org/2000/svg"><path d="m392.3 235.4h1v1h-1zm-14.3 273.5h-2v-1h2zm-4 0h-2v-1h2zm-4 0h-2v-1h2zm-4 0h-2v-1h2zm-3.9 0h-2v-1h2zm-4 0h-2v-1h2zm-4 0h-2v-1h2zm-4 0h-2v-1h2zm-4 0h-2v-1h2zm-3.9 0h-2v-1h2zm-4 0h-2v-1h2zm-4 0h-2v-1h2zm-4 0h-2v-1h2zm-4 0h-2v-1h2zm-3.9 0h-2v-1h2zm-4 0h-2v-1h2zm-4 0h-2v-1h2zm-4 0h-2v-1h2zm-4 0h-2v-1h2zm-3.9 0h-2v-1h2zm-4 0h-2v-1h2zm-4 0h-2v-1h2zm-4 0h-2v-1h2zm-3.9 0h-2v-1h2zm93.5-.1-.1-1c.6-.1 1.3-.2 1.9-.3l.3 1zm4-1.1-.4-.9c.6-.2 1.2-.5 1.7-.9l.5.9c-.6.4-1.2.7-1.8.9zm3.5-2.1-.6-.8c.5-.4 1-.8 1.4-1.3l.7.7c-.4.6-1 1-1.5 1.4zm2.8-2.9-.8-.6c.4-.5.7-1.1 1-1.6l.9.5c-.3.5-.7 1.1-1.1 1.7zm2-3.6-.9-.4.6-1.8 1 .2c-.3.7-.5 1.3-.7 2zm.9-4-1-.1c.1-.5.1-1 .1-1.6v-.4h1v.4c0 .6 0 1.1-.1 1.7zm.1-4.1h-1v-2h1zm0-3.9h-1v-2h1zm0-4h-1v-2h1zm0-4h-1v-2h1zm0-4h-1v-2h1zm0-4h-1v-2h1zm0-3.9h-1v-2h1zm0-4h-1v-2h1zm0-4h-1v-2h1zm0-4h-1v-2h1zm0-4h-1v-2h1zm0-3.9h-1v-2h1zm0-4h-1v-2h1zm0-4h-1v-2h1zm0-4h-1v-2h1zm0-3.9h-1v-2h1zm0-4h-1v-2h1zm0-4h-1v-2h1zm0-4h-1v-2h1zm0-4h-1v-2h1zm0-3.9h-1v-2h1zm0-4h-1v-2h1zm0-4h-1v-2h1zm0-4h-1v-2h1zm0-4h-1v-2h1zm0-3.9h-1v-2h1zm0-4h-1v-2h1zm0-4h-1v-2h1zm0-4h-1v-2h1zm0-4h-1v-2h1zm0-3.9h-1v-2h1zm0-4h-1v-2h1zm0-4h-1v-2h1zm0-4h-1v-2h1zm0-4h-1v-2h1zm0-3.9h-1v-2h1zm0-4h-1v-2h1zm0-4h-1v-2h1zm0-4h-1v-2h1zm0-3.9h-1v-2h1zm0-4h-1v-2h1zm0-4h-1v-2h1zm0-4h-1v-2h1zm0-4h-1v-2h1zm0-3.9h-1v-2h1zm0-4h-1v-2h1zm0-4h-1v-2h1zm0-4h-1v-2h1zm0-4h-1v-2h1zm0-3.9h-1v-2h1zm0-4h-1v-2h1zm0-4h-1v-2h1zm0-4h-1v-2h1zm0-4h-1v-2h1zm0-3.9h-1v-2h1zm0-4h-1v-2h1zm0-4h-1v-2h1zm0-4h-1v-2h1zm0-4h-1v-2h1zm0-3.9h-1v-2h1zm0-4h-1v-2h1zm0-4h-1v-2h1zm0-4h-1v-2h1zm0-3.9h-1v-2h1zm-111.8 267.5h1v1h-1zm.9-476h1v1h-1zm110.9 131.5h-1v-2h1zm0-4h-1v-2h1zm0-3.9h-1v-2h1zm0-4h-1v-2h1zm0-4h-1v-2h1zm0-3.9h-1v-2h1zm0-4h-1v-2h1zm0-4h-1v-2h1zm0-3.9h-1v-2h1zm0-4h-1v-2h1zm0-4h-1v-2h1zm0-4h-1v-2h1zm0-3.9h-1v-2h1zm0-4h-1v-2h1zm0-4h-1v-2h1zm0-3.9h-1v-2h1zm0-4h-1v-2h1zm0-4h-1v-2h1zm0-3.9h-1v-2h1zm0-4h-1v-2h1zm0-4h-1v-2h1zm0-3.9h-1v-2h1zm0-4h-1v-2h1zm0-4h-1v-2h1zm0-3.9h-1v-2h1zm0-4h-1v-2h1zm0-4h-1v-2h1zm0-3.9h-1v-2h1zm0-4h-1v-2h1zm0-4h-1v-1.9l1-.1zm-1.3-3.8c-.1-.6-.3-1.3-.5-1.9l.9-.3c.2.6.4 1.3.5 2zm-1.2-3.7c-.3-.6-.6-1.1-.9-1.7l.8-.5c.4.6.7 1.2 1 1.8zm-2.1-3.2c-.4-.5-.9-.9-1.3-1.4l.7-.8c.5.4 1 .9 1.4 1.5zm-2.8-2.5c-.5-.4-1.1-.7-1.7-.9l.4-.9c.6.3 1.2.6 1.8 1zm-3.5-1.6c-.6-.2-1.2-.3-1.9-.4l.2-1c.7.1 1.3.3 2 .5zm-3.7-.6h-2v-1h2zm-4 0h-2v-1h2zm-4 0h-2v-1h2zm-3.9 0h-2v-1h2zm-4 0h-2v-1h2zm-4 0h-2v-1h2zm-3.9 0h-2v-1h2zm-4 0h-2v-1h2zm-4 0h-2v-1h2zm-4 0h-2v-1h2zm-3.9 0h-2v-1h2zm-4 0h-2v-1h2zm-4 0h-2v-1h2zm-3.9 0h-2v-1h2zm-4 0h-2v-1h2zm-4 0h-2v-1h2zm-3.9 0h-2v-1h2zm-4 0h-2v-1h2zm-4 0h-2v-1h2zm-3.9 0h-2v-1h2zm-4 0h-2v-1h2zm-4 0h-2v-1h2zm-3.9 0h-2v-1h2zm-4 0h-2v-1h2zm104.9 132.5h1v1h-1z" fill="#f1f2ef"/><path d="m99.3 127.3h2.6v-9.7h-2.6v-1.6h4.8v11.3h2.5v1.7h-7.3z" fill="#dbded7"/><path d="m102.8 151.4c-.2 0-.3-.1-.4-.2-.7-.9-16.3-22-16.3-31 0-9.2 7.5-16.7 16.7-16.7s16.7 7.5 16.7 16.7c0 9-15.6 30.1-16.3 31-.1.1-.3.2-.4.2zm0-47c-8.6 0-15.7 7-15.7 15.7 0 7.9 13.2 26.5 15.7 29.9 2.5-3.4 15.7-22 15.7-29.9 0-8.6-7.1-15.7-15.7-15.7z" fill="#55c4c2"/><path d="m55.5 195.8 1.5-1.5h4.9l.5-.5v-3l-.7-.7h-3.4l-.6.6v1.3h-2.2v-2l1.7-1.7h5.7l1.8 1.8v4.4l-1.5 1.5h-4.9l-.5.5v3h6.9v1.8h-9.1v-5.5z" fill="#dbded7"/><path d="m60 223.8c-.2 0-.3-.1-.4-.2-.7-.9-16.3-22-16.3-31 0-9.2 7.5-16.7 16.7-16.7s16.7 7.5 16.7 16.7c0 9-15.6 30.1-16.3 31-.1.1-.2.2-.4.2zm0-46.9c-8.6 0-15.7 7-15.7 15.7 0 7.9 13.2 26.5 15.7 29.9 2.5-3.4 15.7-22 15.7-29.9 0-8.7-7.1-15.7-15.7-15.7z" fill="#55c4c2"/><path d="m14.3 272.1v-2.1h2.2v1.5l.7.7h3.8l.7-.7v-2.6l-.9-.9h-4.5v-1.7h4.5l.8-.8v-2.3l-.7-.7h-3.7l-.7.8v1.4h-2.2v-2.1l1.7-1.7h6.2l1.7 1.7v3.3l-1.4 1.4 1.4 1.4v3.6l-1.7 1.7h-6.2z" fill="#dbded7"/><path d="m19.2 296.2c-.2 0-.3-.1-.4-.2-.7-.9-16.3-22-16.3-31 0-9.2 7.5-16.7 16.7-16.7s16.7 7.5 16.7 16.7c0 9-15.6 30.1-16.3 31-.1.2-.2.2-.4.2zm0-46.9c-8.6 0-15.7 7-15.7 15.7 0 7.9 13.2 26.5 15.7 29.9 2.5-3.4 15.7-22 15.7-29.9 0-8.7-7-15.7-15.7-15.7z" fill="#55c4c2"/><path d="m326 270h-6.8v-1.4l2.4-8h2l-2.1 7.6h4.5v-7.6h2.2v7.6h1.2v1.8h-1.2v3.4h-2.2zm5.1-6.8h6.1l1.3 1.3v2.5l-1.1 1.1 1.1 1.1v2.9l-1.3 1.3h-6.1zm5 4.2.7-.6v-1.8l-.6-.6h-3.4v3zm.1 4.7.6-.5v-2.1l-.7-.7h-3.2v3.3z" fill="#dbded7"/><path d="m329.8 295.7h-.8s-.2-.3-.6-.8l.8-.6c.1.1.1.2.2.3.1-.1.1-.2.2-.3l.8.6c-.4.5-.6.8-.6.8zm-2.5-2.4c-.3-.5-.7-1-1.1-1.6l.8-.6c.4.6.8 1.1 1.1 1.6zm4.2 0-.8-.6c.3-.5.7-1 1.1-1.6l.8.6c-.3.5-.7 1.1-1.1 1.6zm-6.5-3.3c-.4-.5-.7-1.1-1.1-1.7l.8-.6c.4.6.7 1.1 1.1 1.7zm8.8 0-.8-.6c.4-.5.7-1.1 1.1-1.7l.8.6c-.4.6-.7 1.2-1.1 1.7zm-11-3.3c-.4-.5-.7-1.1-1.1-1.7l.8-.5c.4.6.7 1.1 1.1 1.7zm13.2 0-.8-.5c.4-.5.7-1.1 1.1-1.7l.8.5c-.4.5-.7 1.1-1.1 1.7zm-15.3-3.4c-.3-.6-.7-1.1-1-1.7l.9-.5c.3.6.7 1.1 1 1.7zm17.4 0-.9-.5c.3-.6.7-1.1 1-1.7l.9.5c-.3.5-.6 1.1-1 1.7zm-19.5-3.5c-.3-.6-.7-1.2-1-1.7l.9-.5c.3.6.6 1.2 1 1.7zm21.6 0-.9-.5c.3-.6.6-1.2 1-1.7l.9.5c-.4.6-.7 1.2-1 1.7zm-23.5-3.5-.9-1.8.9-.4.9 1.8zm25.4 0-.9-.5.9-1.8.9.4c-.3.7-.6 1.3-.9 1.9zm-27.1-3.6c-.3-.6-.5-1.3-.8-1.9l.9-.4c.2.6.5 1.2.7 1.8zm28.8 0-.9-.4c.3-.6.5-1.2.7-1.8l.9.4c-.2.5-.4 1.2-.7 1.8zm-30.2-3.8c-.2-.7-.4-1.4-.5-2l1-.2c.1.6.3 1.2.5 1.9zm31.6 0-1-.3c.2-.7.4-1.3.5-1.9l1 .2c-.1.6-.3 1.3-.5 2zm-31.3-4h-1c0-.7.1-1.4.2-2l1 .1c-.1.6-.1 1.2-.2 1.9zm31 0c0-.6-.1-1.3-.1-1.9l1-.1c.1.7.1 1.4.2 2zm-30.4-3.8-1-.3c.2-.7.4-1.3.7-1.9l.9.4c-.3.5-.5 1.2-.6 1.8zm29.8 0-.6-1.8.9-.4c.3.6.5 1.3.7 1.9zm-28.4-3.6-.9-.5c.3-.6.7-1.2 1.1-1.7l.8.6c-.3.5-.7 1.1-1 1.6zm27 0c-.3-.6-.7-1.1-1-1.6l.8-.6c.4.5.8 1.1 1.1 1.7zm-24.7-3.1-.7-.7c.5-.5 1-1 1.5-1.4l.6.8c-.5.4-1 .9-1.4 1.3zm22.4 0c-.4-.5-.9-.9-1.4-1.3l.6-.8c.5.4 1 .9 1.5 1.4zm-19.4-2.4-.5-.8c.6-.4 1.2-.7 1.8-1l.4.9c-.6.3-1.2.6-1.7.9zm16.4 0c-.5-.3-1.1-.6-1.7-.9l.4-.9c.6.3 1.2.6 1.8 1zm-12.9-1.6-.3-1c.6-.2 1.3-.4 2-.5l.2 1c-.7.1-1.3.3-1.9.5zm9.4 0c-.6-.2-1.2-.4-1.9-.5l.2-1c.7.1 1.3.3 2 .5zm-5.7-.7-.1-1h2l-.1 1c-.5-.1-1.1-.1-1.8 0z" fill="#e22228"/><path d="m389.4 197.9h-6.9v-1.4l2.5-8.1h2.1l-2.1 7.7h4.5v-7.7h2.2v7.7h1.3v1.8h-1.3v3.5h-2.2v-3.5zm7.2-6.9h2.6l3 10.4h-1.8l-.7-2.6h-3.7l-.7 2.6h-1.7zm-.2 6.4h2.9l-1.4-5.3z" fill="#dbded7"/><path d="m392.2 223c-.2 0-.3-.1-.4-.2-.3-.4-.7-1-1.2-1.6-.2-.2-.1-.5.1-.7s.5-.1.7.1c.5.7.9 1.2 1.2 1.6.2.2.1.5-.1.7-.1 0-.2.1-.3.1zm1.2 0c-.1 0-.2 0-.3-.1-.2-.2-.3-.5-.1-.7.3-.4.7-1 1.2-1.6.2-.2.5-.3.7-.1s.3.5.1.7c-.5.7-.9 1.2-1.2 1.6-.1.1-.2.2-.4.2zm-3.5-3.3c-.2 0-.3-.1-.4-.2-.4-.5-.7-1.1-1.1-1.7-.2-.2-.1-.5.1-.7s.5-.1.7.1c.4.6.8 1.1 1.1 1.7.2.2.1.5-.1.7-.1.1-.2.1-.3.1zm5.8 0c-.1 0-.2 0-.3-.1-.2-.2-.3-.5-.1-.7.4-.5.7-1.1 1.1-1.7.2-.2.5-.3.7-.1s.3.5.1.7c-.4.6-.8 1.1-1.1 1.7-.1.1-.2.2-.4.2zm-8-3.3c-.2 0-.3-.1-.4-.2-.4-.5-.7-1.1-1.1-1.7-.1-.2-.1-.5.1-.7s.5-.1.7.1c.4.6.7 1.1 1.1 1.7.2.2.1.5-.1.7-.2 0-.3.1-.3.1zm10.3 0c-.1 0-.2 0-.3-.1-.2-.2-.3-.5-.1-.7.4-.5.7-1.1 1.1-1.7.1-.2.5-.3.7-.1.2.1.3.5.1.7-.4.6-.7 1.1-1.1 1.7-.1.1-.3.2-.4.2zm-12.5-3.4c-.2 0-.3-.1-.4-.2-.4-.6-.7-1.1-1.1-1.7-.1-.2-.1-.5.2-.7s.5-.1.7.2c.4.6.7 1.1 1.1 1.7.1.2.1.5-.2.7zm14.6 0c-.1 0-.2 0-.3-.1-.2-.1-.3-.5-.2-.7.4-.6.7-1.1 1.1-1.7.1-.2.5-.3.7-.2s.3.5.2.7c-.4.6-.7 1.1-1.1 1.7 0 .2-.2.3-.4.3zm-16.7-3.4c-.2 0-.3-.1-.4-.2-.3-.6-.7-1.2-1-1.7-.1-.2-.1-.5.2-.7.2-.1.5-.1.7.2.3.6.7 1.2 1 1.7.1.2.1.5-.2.7zm18.8 0c-.1 0-.2 0-.3-.1-.2-.1-.3-.4-.2-.7.3-.6.7-1.1 1-1.7.1-.2.4-.3.7-.2.2.1.3.4.2.7-.3.6-.7 1.2-1 1.7 0 .2-.2.3-.4.3zm-20.8-3.5c-.2 0-.3-.1-.4-.3l-.9-1.8c-.1-.2 0-.5.2-.7.2-.1.5 0 .7.2l.9 1.8c.1.2 0 .5-.2.7-.1.1-.2.1-.3.1zm22.8 0c-.1 0-.2 0-.2-.1-.2-.1-.3-.4-.2-.7l.9-1.8c.1-.2.4-.3.7-.2.2.1.3.4.2.7l-.9 1.8c-.2.2-.3.3-.5.3zm-24.6-3.6c-.2 0-.4-.1-.5-.3-.3-.6-.6-1.2-.8-1.8-.1-.3 0-.5.3-.7.3-.1.5 0 .7.3.3.6.5 1.2.8 1.8.1.2 0 .5-.2.7zm26.4 0h-.2c-.2-.1-.4-.4-.2-.7.3-.6.6-1.2.8-1.8.1-.3.4-.4.7-.3s.4.4.3.7c-.3.6-.5 1.2-.8 1.8-.2.2-.4.3-.6.3zm-28-3.6c-.2 0-.4-.1-.5-.3-.3-.7-.5-1.3-.7-1.9-.1-.3.1-.5.3-.6.3-.1.5.1.6.3.2.6.4 1.2.6 1.9.1.3 0 .5-.3.6zm29.6-.1h-.2c-.3-.1-.4-.4-.3-.6.2-.7.5-1.3.6-1.9.1-.3.4-.4.6-.3.3.1.4.4.3.6-.2.6-.4 1.2-.7 1.9.1.2-.1.3-.3.3zm-30.8-3.8c-.2 0-.4-.2-.5-.4-.1-.8-.2-1.5-.2-2.1v-.8c0-.3.2-.5.5-.5s.5.2.5.5v.8c0 .6.1 1.2.2 1.9.1.3-.1.6-.5.6.1 0 .1 0 0 0zm32 0c-.1 0-.1 0 0 0-.4-.1-.5-.3-.5-.6.1-.7.2-1.3.2-1.9h1c0 .6-.1 1.3-.2 2.1-.1.2-.3.4-.5.4zm0-4c-.2 0-.5-.2-.5-.4-.1-.6-.2-1.3-.4-1.9-.1-.3.1-.5.4-.6s.5.1.6.4c.2.7.3 1.3.4 2 .1.2-.1.5-.5.5.1 0 .1 0 0 0zm-31.9-.8c-.1 0-.1 0 0 0-.4-.1-.5-.3-.5-.6.1-.7.3-1.3.5-2 .1-.3.4-.4.6-.3.3.1.4.4.3.6-.2.6-.3 1.2-.5 1.9 0 .3-.2.4-.4.4zm31-3c-.2 0-.4-.1-.5-.3-.2-.6-.5-1.2-.8-1.8-.1-.2 0-.5.2-.7s.5 0 .7.2c.3.6.6 1.2.9 1.9.1.3 0 .5-.3.6-.1 0-.2.1-.2.1zm-29.9-.8h-.2c-.3-.1-.4-.4-.3-.7.3-.6.6-1.2 1-1.8.1-.2.5-.3.7-.2s.3.5.2.7c-.3.5-.6 1.1-.9 1.7-.1.2-.3.3-.5.3zm28-2.8c-.2 0-.3-.1-.4-.2l-1.2-1.5c-.2-.2-.2-.5 0-.7s.5-.2.7 0c.5.5.9 1 1.3 1.6.2.2.1.5-.1.7-.1.1-.2.1-.3.1zm-25.9-.6c-.1 0-.2 0-.3-.1-.2-.2-.3-.5-.1-.7.4-.5.9-1.1 1.4-1.5.2-.2.5-.2.7 0s.2.5 0 .7c-.5.5-.9.9-1.3 1.4-.1.1-.3.2-.4.2zm23.2-2.3c-.1 0-.2 0-.3-.1l-1.5-1.2c-.2-.2-.3-.5-.1-.7s.5-.3.7-.1c.6.4 1.1.8 1.6 1.2.2.2.2.5.1.7-.2.1-.4.2-.5.2zm-20.4-.5c-.1 0-.3-.1-.4-.2-.2-.2-.1-.5.1-.7.5-.4 1.1-.8 1.7-1.2.2-.1.5-.1.7.2.1.2.1.5-.2.7-.6.3-1.1.7-1.6 1.1 0 .1-.2.1-.3.1zm17-1.7c-.1 0-.1 0-.2-.1-.6-.3-1.2-.5-1.8-.7-.3-.1-.4-.4-.3-.6.1-.3.4-.4.6-.3.6.2 1.3.5 1.9.8.2.1.4.4.2.7 0 .1-.2.2-.4.2zm-13.5-.3c-.2 0-.4-.1-.5-.3-.1-.3 0-.5.3-.7.6-.3 1.3-.5 1.9-.7.3-.1.5.1.6.3.1.3-.1.5-.3.6-.6.2-1.2.4-1.8.7-.1.1-.2.1-.2.1zm9.8-1h-.1c-.6-.1-1.3-.2-1.9-.3-.3 0-.5-.3-.5-.5 0-.3.3-.5.5-.5.7.1 1.4.2 2 .3.3.1.4.3.4.6s-.2.4-.4.4zm-6-.1c-.2 0-.5-.2-.5-.4 0-.3.1-.5.4-.6.7-.1 1.4-.2 2-.2.3 0 .5.2.5.5s-.2.5-.5.5c-.5 0-1.2.1-1.9.2z" fill="#55c4c2"/><path d="m282.4 49.1h1v1h-1zm5.6 213.3-.7-.7 1.3-1.5.7.7zm2.6-3-.7-.7 1.3-1.5.7.7zm2.7-3-.7-.7 1.3-1.5.7.7zm2.7-2.9-.7-.7 1.3-1.5.7.7zm2.6-3-.7-.7 1.3-1.5.7.7zm2.7-3-.7-.7 1.3-1.5.7.7zm2.7-3-.7-.7 1.3-1.5.7.7zm2.7-3-.7-.7 1.3-1.5.7.7zm2.6-2.9-.7-.7 1.3-1.5.7.7zm2.7-3-.7-.7 1.3-1.5.7.7zm2.7-3-.7-.7 1.3-1.5.7.7zm2.6-3-.7-.7 1.3-1.5.7.7zm2.7-2.9-.7-.7 1.3-1.5.7.7zm2.7-3-.7-.7 1.3-1.5.7.7zm2.6-3-.7-.7 1.3-1.5.7.7zm2.7-3-.7-.7 1.3-1.5.7.7zm2.7-3-.7-.7 1.3-1.5.7.7zm2.6-2.9-.7-.7 1.3-1.5.7.7zm2.7-3-.7-.7 1.3-1.5.7.7zm2.7-3-.7-.7 1.3-1.5.7.7zm2.7-3-.7-.7 1.3-1.5.7.7zm2.5-3.4h-1v-2h1zm0-4h-1v-2h1zm0-4h-1v-2h1zm0-4h-1v-2h1zm0-4h-1v-2h1zm0-4h-1v-2h1zm0-4h-1v-2h1zm0-4h-1v-2h1zm0-4h-1v-2h1zm0-4h-1v-2h1zm0-4h-1v-2h1zm0-4h-1v-2h1zm0-4h-1v-2h1zm0-4h-1v-2h1zm0-4h-1v-2h1zm0-4h-1v-2h1zm0-4h-1v-2h1zm0-4h-1v-2h1zm0-4h-1v-2h1zm0-4h-1v-2h1zm0-4h-1v-2h1zm0-4h-1v-2h1zm0-4h-1v-2h1zm0-4h-1v-2h1zm0-4h-1v-2h1zm0-4h-1v-2h1zm0-4h-1v-2h1zm0-4h-1v-2h1zm0-4h-1v-2h1zm0-4h-1v-2h1zm0-4h-1v-2h1zm0-4h-1v-2h1zm0-4h-1v-2h1zm0-4h-1v-2h1zm-1-3.9c0-.6-.1-1.3-.2-1.9l1-.2c.1.7.2 1.4.2 2zm-.7-3.9c-.2-.6-.4-1.2-.7-1.8l.9-.4c.3.6.5 1.3.7 1.9zm-1.5-3.5c-.3-.6-.7-1.1-1.1-1.6l.8-.6c.4.5.8 1.1 1.2 1.7zm-2.4-3-1.5-1.2.6-.8c.6.4 1.1.8 1.6 1.3zm-3.2-2.1c-.6-.3-1.2-.5-1.8-.6l.2-1c.7.2 1.3.4 2 .7zm-3.7-.9h-2v-1h2zm-4 0h-2v-1h2zm-4 0h-2v-1h2zm-4 0h-2v-1h2zm-4 0h-2v-1h2zm-4 0h-2v-1h2zm-4 0h-2v-1h2zm-4 0h-2v-1h2zm-4 0h-2v-1h2zm-4 0h-2v-1h2zm-4 0h-2v-1h2zm-4 0h-2v-1h2zm-1.52 213.102.745.667-.667.744-.745-.667zm-2.38 227.398h1v1h-1zm47.6 1h-.4v-1h.4c.5 0 1 0 1.6-.1l.2 1c-.6 0-1.2.1-1.8.1zm-2.4 0h-2v-1h2zm-4 0h-2v-1h2zm-4 0h-2v-1h2zm-4 0h-2v-1h2zm-4.1 0h-2v-1h2zm-4 0h-2v-1h2zm-4 0h-2v-1h2zm-4 0h-2v-1h2zm-4 0h-2v-1h2zm-4.1 0h-2v-1h2zm-4 0h-2v-1h2zm46.4-.7-.3-.9c.6-.2 1.2-.5 1.7-.8l.5.9c-.7.3-1.3.6-1.9.8zm3.6-2.1-.6-.8c.5-.4.9-.9 1.4-1.4l.8.7c-.6.5-1.1 1-1.6 1.5zm2.7-3.1-.8-.5c.3-.5.7-1.1.9-1.7l.9.4c-.3.6-.6 1.2-1 1.8zm1.8-3.8-.9-.3c.2-.6.4-1.2.5-1.9l1 .2c-.2.7-.4 1.4-.6 2zm.8-4-1-.1c0-.5.1-1.1.1-1.6v-.4h1v.4c0 .5 0 1.1-.1 1.7zm.1-4.1h-1v-2h1zm0-4h-1v-2h1zm0-4h-1v-2h1zm0-4h-1v-2h1zm0-4.1h-1v-2h1zm0-4h-1v-2h1zm0-4h-1v-2h1zm0-4h-1v-2h1zm0-4.1h-1v-2h1zm0-4h-1v-2h1zm0-4h-1v-2h1zm0-4h-1v-2h1zm0-4h-1v-2h1zm0-4.1h-1v-2h1zm0-4h-1v-2h1zm0-4h-1v-2h1zm0-4h-1v-2h1zm0-4h-1v-2h1zm0-4.1h-1v-2h1zm0-4h-1v-2h1zm0-4h-1v-2h1zm0-4h-1v-2h1zm0-4.1h-1v-2h1zm0-4h-1v-2h1zm0-4h-1v-2h1zm0-4h-1v-2h1zm0-4h-1v-2h1zm0-4.1h-1v-2h1zm0-4h-1v-2h1zm0-4h-1v-2h1zm0-4h-1v-2h1zm0-4h-1v-2h1zm0-4.1h-1v-.6l-.7-.8.8-.6.8.9.1.3zm-3-2.9-1.3-1.5.8-.6 1.3 1.5zm-2.6-3.1-1.3-1.5.8-.6 1.3 1.5zm-2.6-3-1.3-1.5.8-.6 1.3 1.5zm-2.6-3.1-1.3-1.5.8-.6 1.3 1.5zm-2.6-3.1-1.3-1.5.8-.6 1.3 1.5zm-2.6-3-1.3-1.5.8-.6 1.3 1.5zm-2.6-3.1-1.3-1.5.8-.6 1.3 1.5zm-2.6-3-1.3-1.5.8-.6 1.3 1.5zm-2.6-3.1-1.3-1.5.8-.6 1.3 1.5zm-2.6-3.1-1.3-1.5.8-.6 1.3 1.5zm-2.6-3-1.3-1.5.8-.6 1.3 1.5zm-2.6-3.1-1.3-1.5.8-.6 1.3 1.5-.8.6zm-2.6-3.1-1.3-1.5.8-.6 1.3 1.5zm-2.6-3-1.3-1.5.8-.6 1.3 1.5zm-2.6-3.1-1.3-1.5.8-.6 1.3 1.5zm-2.6-3.1-1.3-1.5.8-.6 1.3 1.5zm-2.6-3-1.3-1.5.8-.6 1.3 1.5zm-2.7-3.1-1.3-1.5.8-.6 1.3 1.5zm-2.6-3-1.3-1.5.8-.6 1.3 1.5zm-2.6-3.1-1.3-1.5.8-.6 1.3 1.5zm-2.6-3.1-1.3-1.5.8-.6 1.3 1.5zm-2.423-4.48.647.762-.76.648-.65-.762z" fill="#e22228"/><path d="m143.2 261.8-.7-.7 2.4-2.4-2.4-2.4.7-.7 2.7 2.8v.7zm2.4-2.6h-31.9c-6.3 0-11.4-5.1-11.4-11.4v-85.7h1v85.7c0 5.7 4.7 10.4 10.4 10.4h31.9zm-42.3-163.8h-1v-34.9c0-6.3 5.1-11.4 11.4-11.4h31.1v1h-31.1c-5.7 0-10.4 4.7-10.4 10.4zm42.3 180.4h-73.3c-7 0-12.8-6-12.8-13.3v-28.5h1v28.5c0 6.8 5.3 12.3 11.8 12.3h73.3zm-85.1-108.8h-1v-121.7c0-7.3 5.7-13.3 12.8-13.3h72.5v1h-72.5c-6.5 0-11.8 5.5-11.8 12.3zm84.3 341.9h-111.2c-8.2 0-14.9-6.9-14.9-15.5v-185.3h1v185.3c0 8 6.2 14.5 13.9 14.5h111.2zm-125.1-270.9h-1v-208.4c0-8.5 6.7-15.5 14.9-15.5h111.2v1h-111.2c-7.6 0-13.9 6.5-13.9 14.5zm122.7-202.4-.7-.7 2.4-2.4-2.4-2.4.7-.7 2.7 2.7v.7zm0-17.8-.7-.7 2.4-2.4-2.4-2.4.7-.7 2.7 2.7v.7zm0 493.7-.7-.7 2.4-2.4-2.4-2.4.7-.7 2.7 2.7v.7zm103.2-210.2-.1-1c.9-.1 21.5-3.1 21.5-23.9 0-6.5-2.6-12.6-7.3-17.2-4.7-4.5-10.9-6.9-17.4-6.6h-.3l-.1-.3c-5.5-11.7-17.5-19.3-30.4-19.3-17.7 0-32.5 13.9-33.5 31.6v.6l-.6-.1c-5.3-1.1-10.7.2-14.9 3.6s-6.6 8.4-6.6 13.8c0 4.9 1.7 16.3 17.4 17.7l-.1 1c-4.3-.4-18.3-2.9-18.3-18.7 0-5.7 2.5-11 6.9-14.6 4.3-3.5 9.8-4.9 15.1-3.9 1.4-18 16.4-32 34.5-32 13.2 0 25.3 7.7 31.1 19.5 6.7-.1 13 2.3 17.8 6.9 4.9 4.7 7.6 11.1 7.6 17.9.1 21.9-22 25-22.3 25z" fill="#f1f2ef"/><path d="m211.1 264.6c-12 0-21.7 9.7-21.7 21.7s9.7 21.7 21.7 21.7 21.7-9.7 21.7-21.7-9.7-21.7-21.7-21.7zm0 37.8c-8.8 0-16-7.2-16-16s7.2-16 16-16 16 7.2 16 16-7.2 16-16 16z" fill="#dbded7"/><circle cx="216.5" cy="280.9" fill="#dbded7" r="4.5"/><circle cx="216.5" cy="291.8" fill="#dbded7" r="4.5"/><circle cx="205.7" cy="291.8" fill="#dbded7" r="4.5"/><circle cx="205.7" cy="280.9" fill="#dbded7" r="4.5"/><g fill="#f1f2ef"><path d="m259.8 156.4h-96.6l-.5-.5v-23.1l.5-.5h96.6l.5.5v23.1zm-96.2-1h95.6v-22.1h-95.6zm11.2-11.9h36.7v1h-36.7zm58.3 2.8c-1.3 0-2.3-1-2.3-2.3s1-2.3 2.3-2.3 2.3 1 2.3 2.3-1 2.3-2.3 2.3zm0-3.6c-.7 0-1.3.6-1.3 1.3s.6 1.3 1.3 1.3 1.3-.6 1.3-1.3-.6-1.3-1.3-1.3zm-10.7 3.6c-1.3 0-2.3-1-2.3-2.3s1-2.3 2.3-2.3 2.3 1 2.3 2.3-1.1 2.3-2.3 2.3zm0-3.6c-.7 0-1.3.6-1.3 1.3s.6 1.3 1.3 1.3 1.3-.6 1.3-1.3-.6-1.3-1.3-1.3zm21.5 3.6c-1.3 0-2.3-1-2.3-2.3s1-2.3 2.3-2.3 2.3 1 2.3 2.3-1 2.3-2.3 2.3zm0-3.6c-.7 0-1.3.6-1.3 1.3s.6 1.3 1.3 1.3 1.3-.6 1.3-1.3-.6-1.3-1.3-1.3zm-71.4 10.9h1v6.2h-1zm77.8 0h1v6.2h-1zm-6.6-47.9h1v27.1h-1zm-65.5 0h1v27.1h-1zm-27.2-35.7h117.7v1h-117.7zm116.4 4.7h-2.4c-.5 0-.8-.4-.8-.8s.4-.8.8-.8h2.4c.5 0 .8.4.8.8s-.3.8-.8.8zm4.5 3.1v-.5l-.2.2.2-.3v-.4c-.2 0-.4.2-.4.4v-6.2h-9.3l-.5-.5v-61.8c0-2.9-2.4-5.3-5.3-5.3h-89.9c-2.9 0-5.3 2.4-5.3 5.3v61.8l-.5.5h-9.4v6.2c0-.2-.2-.4-.4-.4v1c-.3 0-.6-.3-.6-.6v-6.6c0-.3.3-.6.6-.6h9.2v-61.3c0-3.5 2.8-6.3 6.3-6.3h89.9c3.5 0 6.3 2.8 6.3 6.3v61.3h9.2c.3 0 .6.3.6.6v6.6c.2.3-.1.6-.5.6zm-105.5-63.6h89.9v1h-89.9z"/><circle cx="170.6" cy="11.5" r=".9"/><circle cx="174.5" cy="11.5" r=".9"/><circle cx="178.3" cy="11.5" r=".9"/><path d="m256.3 65.3h-89.9l-.5-.5v-56.5l.5-.5h89.9l.5.5v56.5zm-89.3-1h88.9v-55.5h-88.9zm-16.1 12.4h121.2v1h-121.2z"/><path d="m205.7 76.9h11.3v55.8h-11.3zm0 95.2v4.4l5.3 4.9 5.9-5v-4.4l-5.9 5zm11.2 11v-4.1l-5.9 5.1-5.3-4.9v4l5.3 5zm-5.9-7.4 5.9-5v-14.8h-11.2v14.8zm0 16.5-5.3-4.9v3.7l5.4 5 5.8-5v-3.9z" opacity=".2"/><path d="m259.8 414.1h-96.6l-.5-.5v-23.1l.5-.5h96.6l.5.5v23.1zm-96.2-1h95.6v-22.1h-95.6zm11.2-11.9h36.7v1h-36.7zm58.3 2.8c-1.3 0-2.3-1-2.3-2.3s1-2.3 2.3-2.3 2.3 1 2.3 2.3-1 2.3-2.3 2.3zm0-3.6c-.7 0-1.3.6-1.3 1.3s.6 1.3 1.3 1.3 1.3-.6 1.3-1.3-.6-1.3-1.3-1.3zm-10.7 3.6c-1.3 0-2.3-1-2.3-2.3s1-2.3 2.3-2.3 2.3 1 2.3 2.3-1.1 2.3-2.3 2.3zm0-3.6c-.7 0-1.3.6-1.3 1.3s.6 1.3 1.3 1.3 1.3-.6 1.3-1.3-.6-1.3-1.3-1.3zm21.5 3.6c-1.3 0-2.3-1-2.3-2.3s1-2.3 2.3-2.3 2.3 1 2.3 2.3-1 2.3-2.3 2.3zm0-3.6c-.7 0-1.3.6-1.3 1.3s.6 1.3 1.3 1.3 1.3-.6 1.3-1.3-.6-1.3-1.3-1.3zm-71.4 10.9h1v6.2h-1zm77.8 0h1v6.2h-1zm-6.6-47.9h1v27.1h-1zm-65.5 0h1v27.1h-1zm-27.2 173.4h117.7v1h-117.7zm116.4 4.7h-2.4c-.5 0-.8-.4-.8-.8s.4-.8.8-.8h2.4c.5 0 .8.4.8.8s-.3.8-.8.8zm4.5 3.1v-.5l-.2.2.2-.3-.4.1.4-.1v-.4c-.2 0-.4.2-.4.4v-6.2h-9.3l-.5-.5v-61.8c0-2.9-2.4-5.3-5.3-5.3h-89.9c-2.9 0-5.3 2.4-5.3 5.3v61.8l-.5.5h-9.4v6.2c0-.2-.2-.4-.4-.4v1c-.3 0-.6-.3-.6-.6v-6.6c0-.3.3-.6.6-.6h9.2v-61.3c0-3.5 2.8-6.3 6.3-6.3h89.9c3.5 0 6.3 2.8 6.3 6.3v61.3h9.2c.3 0 .6.3.6.6v6.6c.2.3-.1.6-.5.6zm-105.5-63.6h89.9v1h-89.9z"/><circle cx="170.6" cy="478.3" r=".9"/><circle cx="174.5" cy="478.3" r=".9"/><circle cx="178.3" cy="478.3" r=".9"/><path d="m256.3 532.1h-89.9l-.5-.5v-56.5l.5-.5h89.9l.5.5v56.5zm-89.3-1h88.9v-55.5h-88.9zm-16.1 12.4h121.2v1h-121.2z"/><path d="m205.7 413.7h11.3v55.8h-11.3zm5.9-43.1-5.9 5.1v14.7h11.2v-14.8zm5.3 3.6v-4.3l-5.3-5-5.9 5v4.5l5.9-5.1zm-5.3-16-5.9 5v4.1l5.9-5.1 5.3 4.9v-4zm0-4 5.3 4.9v-3.8l-5.4-5-5.8 5v3.9z" opacity=".2"/></g></svg>