<?xml version="1.0" encoding="UTF-8"?>
<svg xmlns="http://www.w3.org/2000/svg" xmlns:xlink="http://www.w3.org/1999/xlink" width="538.1" height="370" viewBox="0 0 538.1 370">
  <defs>
    <style>.k{fill:#d9d8d6;}.l{fill:#fff;}.m{filter:url(#e);}.n{stroke:#a7daec;stroke-miterlimit:10;stroke-width:4px;}.n,.o{fill:none;}.p{filter:url(#i);}.q{filter:url(#c);}.r{fill:#30353f;}.s{filter:url(#g);}.o{stroke:#fff;stroke-miterlimit:9.5;stroke-width:2.9px;}.t{fill:#a7daec;}</style>
    <filter id="c" filterUnits="userSpaceOnUse">
      <feOffset dx="0" dy="0"></feOffset>
      <feGaussianBlur result="d" stdDeviation="5"></feGaussianBlur>
      <feFlood flood-color="#000" flood-opacity=".2"></feFlood>
      <feComposite in2="d" operator="in"></feComposite>
      <feComposite in="SourceGraphic"></feComposite>
    </filter>
    <filter id="e" filterUnits="userSpaceOnUse">
      <feOffset dx="0" dy="0"></feOffset>
      <feGaussianBlur result="f" stdDeviation="3"></feGaussianBlur>
      <feFlood flood-color="#000" flood-opacity=".2"></feFlood>
      <feComposite in2="f" operator="in"></feComposite>
      <feComposite in="SourceGraphic"></feComposite>
    </filter>
    <filter id="g" filterUnits="userSpaceOnUse">
      <feOffset dx="0" dy="0"></feOffset>
      <feGaussianBlur result="h" stdDeviation="3"></feGaussianBlur>
      <feFlood flood-color="#000" flood-opacity=".2"></feFlood>
      <feComposite in2="h" operator="in"></feComposite>
      <feComposite in="SourceGraphic"></feComposite>
    </filter>
    <filter id="i" filterUnits="userSpaceOnUse">
      <feOffset dx="0" dy="0"></feOffset>
      <feGaussianBlur result="j" stdDeviation="3"></feGaussianBlur>
      <feFlood flood-color="#000" flood-opacity=".2"></feFlood>
      <feComposite in2="j" operator="in"></feComposite>
      <feComposite in="SourceGraphic"></feComposite>
    </filter>
  </defs>
  <g id="a"></g>
  <g id="b">
    <g>
      <circle class="k" cx="54.8" cy="261" r="5.2"></circle>
      <circle class="k" cx="76" cy="261" r="5.2"></circle>
      <circle class="k" cx="97.2" cy="261" r="5.2"></circle>
      <circle class="k" cx="118.4" cy="261" r="5.2"></circle>
      <circle class="k" cx="139.6" cy="261" r="5.2" transform="translate(-130.6 381.8) rotate(-85.9)"></circle>
      <circle class="k" cx="160.8" cy="261" r="5.2"></circle>
      <circle class="k" cx="160.9" cy="282.2" r="5.2"></circle>
      <circle class="k" cx="160.9" cy="303.4" r="5.2"></circle>
      <circle class="k" cx="160.9" cy="324.6" r="5.2"></circle>
      <circle class="k" cx="54.8" cy="282.2" r="5.2"></circle>
      <circle class="k" cx="76" cy="282.2" r="5.2"></circle>
      <circle class="k" cx="97.2" cy="282.2" r="5.2"></circle>
      <circle class="k" cx="118.4" cy="282.2" r="5.2"></circle>
      <circle class="k" cx="139.6" cy="282.2" r="5.2" transform="translate(-151.7 401.5) rotate(-85.9)"></circle>
      <circle class="k" cx="54.8" cy="303.4" r="5.2"></circle>
      <circle class="k" cx="76" cy="303.4" r="5.2"></circle>
      <circle class="k" cx="97.2" cy="303.4" r="5.2"></circle>
      <circle class="k" cx="118.4" cy="303.4" r="5.2"></circle>
      <circle class="k" cx="139.6" cy="303.4" r="5.2" transform="translate(-172.9 421.2) rotate(-85.9)"></circle>
      <circle class="k" cx="54.8" cy="324.6" r="5.2"></circle>
      <circle class="k" cx="76" cy="324.6" r="5.2"></circle>
      <circle class="k" cx="97.2" cy="324.6" r="5.2"></circle>
      <circle class="k" cx="118.4" cy="324.6" r="5.2"></circle>
      <circle class="k" cx="139.6" cy="324.6" r="5.2" transform="translate(-194.1 440.9) rotate(-85.9)"></circle>
    </g>
    <circle class="k" cx="427.5" cy="50.6" r="5.2"></circle>
    <circle class="k" cx="427.5" cy="29.3" r="5.2"></circle>
    <circle class="k" cx="448.7" cy="29.3" r="5.2"></circle>
    <circle class="k" cx="470" cy="29.3" r="5.2"></circle>
    <circle class="k" cx="491.2" cy="29.3" r="5.2"></circle>
    <circle class="k" cx="448.7" cy="50.6" r="5.2"></circle>
    <circle class="k" cx="470" cy="93" r="5.2"></circle>
    <circle class="k" cx="470" cy="71.8" r="5.2"></circle>
    <circle class="k" cx="470" cy="50.6" r="5.2"></circle>
    <circle class="k" cx="491.2" cy="93" r="5.2"></circle>
    <circle class="k" cx="491.2" cy="71.8" r="5.2"></circle>
    <circle class="k" cx="491.2" cy="50.6" r="5.2"></circle>
    <g class="q">
      <rect class="l" x="92" y="108.9" width="200.9" height="193.5" rx="9" ry="9"></rect>
    </g>
    <rect class="t" x="81.4" y="209.8" width="223.9" height="73.2"></rect>
    <path class="k" d="M381.5,97c-4.5,0-8.1-3.6-8.1-8.1,0-4.5,3.6-8.1,8.1-8.1,4.5,0,8.1,3.6,8.1,8.1h0c0,4.5-3.6,8.1-8.1,8.1Zm0-12.3c-2.3,0-4.2,1.9-4.3,4.2,0,2.3,1.9,4.2,4.2,4.3,2.3,0,4.2-1.9,4.3-4.2h0c0-2.3-1.9-4.2-4.2-4.3h0Z"></path>
    <path class="r" d="M468.4,349.2h-21.7c-.6,0-1.2-.4-1.2-1,0-.6,.4-1.2,1-1.2h22c7.5,0,13.6-6.1,13.6-13.6v-13.8c0-.6,.5-1.1,1.1-1.1s1.1,.5,1.1,1.1v13.8c0,8.7-7.1,15.8-15.8,15.8h0Z"></path>
    <path class="r" d="M433.7,349.2h-8.7c-.6,0-1.2-.4-1.2-1,0-.6,.4-1.2,1-1.2h9c.6,0,1.1,.4,1.2,1h0c0,.6-.4,1.2-1,1.3h-.3Z"></path>
    <g class="m">
      <rect class="l" x="403.1" y="50.3" width="68.7" height="68.7" rx="9" ry="9"></rect>
    </g>
    <g class="s">
      <rect class="l" x="403.1" y="158.9" width="68.7" height="68.7" rx="9" ry="9"></rect>
    </g>
    <g class="p">
      <rect class="l" x="403.1" y="267.5" width="68.7" height="68.7" rx="9" ry="9"></rect>
    </g>
    <rect class="k" x="150.5" y="86.4" width="224.9" height="3.8"></rect>
    <path class="k" d="M375.4,303.7h-36.3c-1.1,0-1.9-.9-1.9-1.9h0V89h3.8v210.9h34.4v3.8Z"></path>
    <rect class="k" x="339.1" y="193.5" width="36.3" height="3.8"></rect>
    <path class="k" d="M381.5,203.5c-4.5,0-8.1-3.6-8.1-8.1s3.6-8.1,8.1-8.1,8.1,3.6,8.1,8.1h0c0,4.4-3.6,8.1-8.1,8.1Zm0-12.3c-2.3,0-4.2,1.9-4.2,4.2,0,2.3,1.9,4.2,4.2,4.2s4.2-1.9,4.2-4.2h0c0-2.3-1.9-4.3-4.2-4.3h0Z"></path>
    <path class="k" d="M381.5,309.9c-4.5,0-8.1-3.6-8.1-8.1s3.6-8.1,8.1-8.1,8.1,3.6,8.1,8.1h0c0,4.4-3.6,8.1-8.1,8.1Zm0-12.3c-2.3,0-4.2,1.9-4.2,4.2,0,2.3,1.9,4.2,4.2,4.2,2.3,0,4.2-1.9,4.2-4.2h0c0-2.3-1.9-4.2-4.2-4.2h0Z"></path>
    <circle class="r" cx="97.6" cy="88.2" r="55.7"></circle>
    <path class="r" d="M162.2,72.5c-.5,0-.9-.3-1.1-.8-1.8-7-4.8-13.7-8.8-19.7l-.7-1c-.3-.5-.2-1.2,.3-1.5h0c.5-.3,1.2-.2,1.5,.3l.7,1c1.5,2.3,2.9,4.7,4.1,7.2,2.1,4.2,3.8,8.6,5,13.2,.2,.6-.2,1.2-.8,1.3,0,0-.2,0-.3,0Z"></path>
    <path class="r" d="M141,38.5c-.3,0-.5,0-.7-.3-14.6-12.5-34-18-53-15-.6,.1-1.2-.3-1.3-.9h0c-.1-.6,.3-1.2,.9-1.3h0c19.7-3.2,39.7,2.5,54.9,15.5,.5,.4,.5,1.1,.1,1.6-.2,.2-.5,.4-.8,.4h0Z"></path>
    <g>
      <polygon class="r" points="232.5 164.1 219.5 178.7 215.5 174.7 213.6 176.6 219.6 182.6 234.4 165.9 232.5 164.1"></polygon>
      <path class="r" d="M244,171.8c0-10.5-8.6-19.1-19.1-19.1s-19.1,8.6-19.1,19.1,.7,6,2.1,8.7l.3,.7h-11.7l1-5.9c.2-1.1,.3-2.1,.3-3.2,0-10.7-8.7-19.4-19.4-19.4h-13.7c-10.7,0-19.4,8.7-19.4,19.4s0,2.1,.3,3.2l1.4,8.3v.2c-1.1,1.2-1.6,2.6-1.6,4.1,0,3.7,3,6.7,6.7,6.7h1v.3c1.5,4.8,4.8,9,9.2,11.5l.3,.2-1,5.1-12.9,2.3c-4,.7-7.7,2.9-10.3,6.1-2.4,3-3.7,6.8-3.7,10.6v31.4h73.8v-7.1h35.6v-83.1Zm-92,20c-2.2,0-4-1.8-4-4s1.8-4,4-4h.5v.5c0,.6,0,1.1,0,1.7v3.6c0,.5,0,1.1,0,1.7v.5h-.5Zm1.1-10.7h-1.1c-.7,0-1.4,.1-2.2,.4l-.5,.2-1.1-6.9c-.2-.9-.2-1.8-.2-2.8,0-9.2,7.5-16.7,16.7-16.7h13.7c9.2,0,16.7,7.5,16.7,16.7s0,1.8-.2,2.8l-1.1,6.8-.5-.2c-.7-.2-1.4-.4-2.1-.4h-1.3v-.2c-1.3-2.1-3.5-3.3-5.9-3.3h-8.9c-5.2,0-10.1-2.5-13.2-6.6l-.8-1.1-1.1,.8c-3.3,2.5-5.7,6-6.8,10.1v.3Zm42,6.7c0,2.2-1.8,4-4,4h-.6v-.5c.1-.7,.1-1.2,.1-1.7v-5.8h.5c2.3,0,4.1,1.8,4.1,4Zm-40.1,1.8v-3.6c0-4.5,1.9-8.9,5.2-12l.3-.3,.3,.3c3.6,4,8.8,6.2,14.1,6.2h8.9c2.2,0,4,1.8,4,4v5.3c0,9.1-7.4,16.5-16.5,16.5s-16.5-7.4-16.5-16.5Zm20.1,33.1l-1.1,4.7h-5l-1.1-4.7,3.7-2.9,3.7,2.9Zm-11.1-10.6l.9-4.5,.5,.2c3.9,1.3,8.1,1.3,12,0l.5-.2,.9,4.5-7.4,4.4-7.4-4.4Zm9.7,6.1l6.8-4.1,2.8,.5-3.6,8.4-6-4.8Zm7.7-6.6l-.6-2.9h17.7v6.6l-.6-.3c-1.2-.5-2.4-.9-3.6-1.1l-12.9-2.3Zm-19.2,2.5l6.8,4.1-6,4.8-3.6-8.4,2.8-.5Zm-10.9,45.3v-24.9h-2.7v24.9h-11.6v-28.7c0-3.3,1.1-6.4,3.2-9,2.2-2.7,5.2-4.5,8.7-5.2l7.8-1.4,5.2,12.2,3.5-2.8,1,4.3h0l-5.1,30.6h-10Zm12.7,0l4.9-29.4h4.9l4.9,29.4h-14.7Zm41.6,0h-11.6v-24.9h-2.7v24.9h-10l-5.1-30.6,1-4.3,3.5,2.8,5.2-12.2,7.8,1.4c3.4,.6,6.5,2.5,8.7,5.2,2,2.5,3.1,5.7,3.1,9v28.7Zm35.6-7.1h-32.9v-8h10.7v-13.3h-10.7v-.4c0-3.8-1.4-7.5-3.7-10.5-.9-1.1-2-2.2-3.2-3.1h-.2v-10.9h-20l1.2-.8c2.5-1.8,4.6-4.2,6-7v-.2h52.8v54.3Zm-32.9-10.7v-8h8v8h-8Zm32.9-46.2h-50.2v-.9c3.7,0,6.7-3,6.7-6.7s-.3-2.3-.9-3.3l-.4-.7h13.5v.2c3.8,4.4,9.2,7,14.9,7s12-3,15.6-8.2l.8-1.2v13.8Zm-16.5-7.1c-9.1,0-16.5-7.4-16.5-16.5s7.4-16.5,16.5-16.5,16.5,7.4,16.5,16.5-7.4,16.5-16.5,16.5Z"></path>
      <path class="r" d="M223.5,230.9v13.3h13.3v-13.3h-13.3Zm10.7,10.7h-8v-8h8v8Z"></path>
      <rect class="r" x="209.3" y="206" width="27.6" height="2.7"></rect>
      <rect class="r" x="209.3" y="213.1" width="27.6" height="2.7"></rect>
      <rect class="r" x="209.3" y="220.2" width="13.3" height="2.7"></rect>
      <rect class="r" x="227.1" y="220.2" width="2.7" height="2.7"></rect>
      <rect class="r" x="234.2" y="220.2" width="2.7" height="2.7"></rect>
    </g>
    <g>
      <path class="l" d="M108.1,95.6c-6,0-10.8-4.9-10.8-10.8s4.9-10.8,10.8-10.8,10.8,4.9,10.8,10.8h0c0,6-4.9,10.8-10.8,10.8Zm0-18.9c-4.4,0-8.1,3.6-8.1,8.1s3.6,8.1,8.1,8.1,8.1-3.6,8.1-8.1h0c0-4.4-3.6-8.1-8.1-8.1Z"></path>
      <circle class="o" cx="74.7" cy="83.7" r="11.3"></circle>
      <path class="o" d="M74.7,95h0c-6.3-.6-10.9-6.1-10.3-12.4,.5-5.5,4.8-9.8,10.3-10.3h0c6.3,0,11.3,5.1,11.3,11.4,0,3-1.2,5.9-3.3,8-2.1,2.1-5,3.3-8,3.3Z"></path>
      <polygon class="l" points="70.6 67.9 73.8 71.8 67.3 74.4 66.8 69.4 70.6 67.9"></polygon>
      <polygon class="l" points="78.8 99.3 75.7 95.4 82.1 92.8 82.6 97.8 78.8 99.3"></polygon>
      <polygon class="l" points="82.9 69.6 82.4 74.6 76 71.9 79.1 68 82.9 69.6"></polygon>
      <polygon class="l" points="66.4 97.7 67 92.7 73.4 95.3 70.2 99.2 66.4 97.7"></polygon>
      <polygon class="l" points="88.7 91.9 83.8 91.3 86.4 84.9 90.3 88.1 88.7 91.9"></polygon>
      <polygon class="l" points="60.7 75.3 65.7 76 62.9 82.4 59.1 79.1 60.7 75.3"></polygon>
      <polygon class="l" points="58.9 87.7 62.9 84.6 65.5 91 60.5 91.5 58.9 87.7"></polygon>
      <polygon class="l" points="90.2 79.3 86.4 82.4 83.8 76 88.8 75.4 90.2 79.3"></polygon>
      <path class="l" d="M101.2,116.8h-1.4c-6.3,0-12.7-.3-18.9-.7-3.9-.3-7-3.4-7.2-7.2-.2-1.5-.4-12.8-.4-14.6h2.8c0,1.9,.2,13.1,.3,14.4,.2,2.5,2.2,4.5,4.7,4.6,6.2,.5,12.5,.7,18.8,.7s14.4-.2,21.4-.7c2.5-.1,4.5-2.1,4.7-4.6,.4-6.5,.6-13.1,.6-19.6s-.2-13.7-.6-20.7c-.2-2.5-2.2-4.5-4.6-4.7-6.8-.6-13.7-.9-20.6-.9s-13.2,.4-19.8,.9c-2.5,.2-4.4,2.2-4.6,4.6v3.4l-2.8,.2v-2.3c0-.5,0-1,0-1.5,.3-3.8,3.3-6.8,7-7.1,6.7-.6,13.4-.9,20.1-1,6.7,0,13.9,.4,20.8,1,3.9,.2,6.9,3.4,7,7.2,.6,7.1,.7,13.8,.7,20.9s-.3,13.2-.6,19.8c-.3,3.9-3.4,6.9-7.3,7.2-6.7,.5-13.5,.7-20.3,.7Z"></path>
      <path class="l" d="M90.5,115.5l-2.7-.7c3.4-11.8,15.7-18.6,27.5-15.3,5.5,1.6,10.1,5.1,13,10l-2.4,1.4c-3.5-5.9-9.8-9.5-16.7-9.5-8.7,0-16.3,5.8-18.7,14.2Z"></path>
      <polygon class="l" points="72.9 88.7 68.3 84.1 70.4 82 72.9 84.4 78.9 78.4 81.1 80.5 72.9 88.7"></polygon>
      <path class="l" d="M72.9,89l-4.9-4.8,2.4-2.4,2.5,2.4,6-6,2.4,2.4-8.4,8.4Zm-4.4-4.8l4.4,4.4,7.9-8-1.9-1.9-6,6-2.5-2.5-1.9,1.9Z"></path>
    </g>
    <g>
      <path class="r" d="M450.1,184.7h-5.3c-1.2,0-2.1,.9-2.1,2.1h0v5.9c0,1.2,.9,2.1,2.1,2.1h5.8c1.2,0,2.1-.8,2.2-2,0,0,0,0,0,0v-1c0-.4-.3-.7-.7-.7-.4,0-.7,.3-.7,.7h0v1c0,.5-.4,.9-.9,.9h-5.8c-.5,0-.9-.4-.9-.9v-5.9c0-.4,.4-.8,.9-.8h5.3c.4,0,.7-.3,.7-.7s-.3-.7-.7-.7Z"></path>
      <path class="r" d="M445.1,190.2l2.2,2.2c.2,.2,.6,.3,.8,0,0,0,0,0,0,0l6.6-5.8c.2,0,.3-.3,.3-.5,0-.2,0-.3-.2-.5l-.5-.2-.4,.2-6.2,5.4-1.8-1.7c0-.1-.2-.2-.4-.2-.2,0-.4,0-.5,.2-.2,.2-.3,.6,0,.8,0,0,0,0,0,0Z"></path>
      <path class="r" d="M452.1,206.5c-.4,0-.7,.3-.7,.7h0v1c0,.5-.4,.9-.9,.9h-5.8c-.5,0-.9-.4-.9-.9v-5.9c0-.4,.4-.8,.9-.8h5.3c.4,0,.7-.3,.7-.7s-.3-.7-.7-.7h-5.3c-1.2,0-2.1,.9-2.1,2.1h0v5.9c0,1.2,.9,2.1,2.1,2.1h5.8c1.2,0,2.1-.8,2.2-2,0,0,0,0,0,0v-1c0-.4-.3-.7-.7-.7Z"></path>
      <path class="r" d="M445.1,205.6l2.2,2.2c.2,.2,.6,.3,.8,0,0,0,0,0,0,0l6.6-5.8c.2,0,.3-.3,.3-.5,0-.2,0-.3-.2-.5l-.5-.2h-.4l-6.2,5.6-1.8-1.8h-.4c-.2,0-.4,0-.5,.2-.2,.2-.2,.5,0,.8Z"></path>
      <path class="r" d="M438.9,189.2h-18.4c-.3,0-.6,.3-.6,.6h0c0,.3,.2,.6,.6,.7h18.4c.4,0,.7-.3,.7-.7h0c0-.3-.3-.6-.7-.6Z"></path>
      <path class="r" d="M438.9,185.5h-18.4c-.3,0-.6,.3-.6,.7,0,.3,.3,.6,.6,.6h18.4c.3,0,.6-.2,.7-.6,0-.4-.3-.7-.7-.7Z"></path>
      <path class="r" d="M430.8,192.8h-10.3c-.4,0-.7,.3-.7,.7s.3,.7,.7,.7h10.3c.4,0,.7-.3,.7-.7s-.3-.7-.7-.7h0Z"></path>
      <path class="r" d="M438.9,204.6h-18.4c-.3,0-.6,.3-.6,.6h0c0,.3,.2,.6,.6,.7h18.4c.4,0,.7-.3,.7-.7h0c0-.3-.3-.6-.7-.6Z"></path>
      <path class="r" d="M438.9,200.9h-18.4c-.3,0-.6,.3-.6,.7,0,.3,.3,.6,.6,.6h18.4c.3,0,.6-.2,.7-.6,0-.4-.3-.7-.7-.7Z"></path>
      <path class="r" d="M430.8,208.2h-10.3c-.3,0-.6,.3-.6,.7,0,.3,.3,.7,.6,.7h10.3c.3,0,.6-.3,.7-.7,0-.4-.3-.7-.7-.7Z"></path>
      <rect class="t" x="416.1" y="172.4" width="42.5" height="7.3" rx="1.4" ry="1.4"></rect>
      <path class="r" d="M456.5,171.6h-38.1c-1.5,0-2.8,1.2-2.9,2.8v38.1c0,1.6,1.3,2.9,2.9,2.9h38.1c1.5,0,2.8-1.1,2.9-2.7,0,0,0-.1,0-.2v-38.1c0-1.5-1.2-2.8-2.8-2.8,0,0,0,0,0,0Zm1.6,40.9c0,.9-.7,1.6-1.6,1.6h-38.1c-.9,0-1.5-.8-1.5-1.6v-32.3h41.3v32.3Zm0-33.6h-41.3v-4.6c0-.8,.7-1.5,1.5-1.5h38.1c.9,0,1.6,.7,1.6,1.5v4.6Z"></path>
      <path class="r" d="M420.8,177.2c-.7,0-1.3-.6-1.3-1.3s.6-1.3,1.3-1.3c.7,0,1.3,.6,1.3,1.3,0,.7-.6,1.3-1.3,1.3Zm0-1.9c-.3,0-.6,.2-.7,.6,0,.4,.3,.7,.7,.7h0c.3,0,.6-.3,.6-.7,0-.3-.3-.6-.6-.6h0Z"></path>
      <path class="r" d="M424.5,177.2c-.7,0-1.3-.6-1.3-1.3,0-.7,.6-1.3,1.3-1.3,.7,0,1.3,.6,1.3,1.3s-.6,1.3-1.3,1.3Zm0-1.9c-.3,0-.6,.3-.6,.6h0c0,.3,.2,.6,.6,.7,.4,0,.7-.3,.7-.7h0c0-.3-.3-.6-.7-.6Z"></path>
      <path class="r" d="M428.2,177.2c-.7,0-1.3-.6-1.3-1.3,0-.7,.6-1.3,1.3-1.3,.7,0,1.3,.6,1.3,1.3,0,.7-.6,1.3-1.3,1.3Zm0-1.9c-.3,0-.6,.2-.7,.6,0,.4,.3,.7,.7,.7h0c.4,0,.6-.3,.6-.7s-.3-.6-.6-.6h0Z"></path>
      <path class="r" d="M454.1,175.2h-2.9c-.4,0-.7,.3-.7,.7s.3,.7,.7,.7h2.9c.4,0,.7-.3,.7-.7s-.3-.7-.7-.7Z"></path>
    </g>
    <g>
      <ellipse class="t" cx="437.1" cy="93.2" rx="3.4" ry="4"></ellipse>
      <polygon class="t" points="430.8 103.2 431.2 103.8 444.1 103.8 443.8 100.1 440.5 98.4 436.2 97.5 431.9 99.4 430.8 103.2"></polygon>
    </g>
    <g>
      <ellipse class="t" cx="450.2" cy="85.7" rx="3.4" ry="4"></ellipse>
      <polygon class="t" points="443.6 95.4 443.9 96 456.9 96 456.5 92.3 453.2 90.6 449 89.7 444.6 91.5 443.6 95.4"></polygon>
    </g>
    <g>
      <ellipse class="t" cx="436.3" cy="77.7" rx="3.4" ry="4"></ellipse>
      <polygon class="t" points="429.9 87.7 430.3 88.3 443.3 88.3 442.9 84.7 439.6 82.9 435.4 82 431 83.9 429.9 87.7"></polygon>
    </g>
    <g>
      <ellipse class="t" cx="423.4" cy="85.7" rx="3.4" ry="4"></ellipse>
      <polygon class="t" points="416.9 95.4 417.3 96 430.2 96 429.9 92.3 426.6 90.6 422.3 89.7 418 91.5 416.9 95.4"></polygon>
    </g>
    <g>
      <path class="r" d="M447.9,102h10.1c5,0,9.4-3.5,9.4-9s-4.4-8.9-9.4-8.9h-.5v-.3c.2-.6,.3-1.2,.3-1.8,0-5-4-9-9-9-1.2,0-2.4,.2-3.6,.7h-.4c-1-2.8-2.7-5.2-4.9-6.9-6.6-5-16-3.7-21.1,2.9-2,2.6-3,5.7-3,9,0,1.2,.1,2.3,.4,3.5v.3h-.2c-5.3,1.3-8.5,6.7-7.2,12,1.1,4.4,5,7.5,9.5,7.5h9.2c.4,0,.7-.3,.7-.7h0c0-.4-.3-.6-.7-.6h-9.2c-4.7,0-8.6-3.8-8.6-8.6,0-4.2,3-7.8,7.1-8.5h.3c.2,0,.4,0,.5-.3,.1-.2,.2-.4,0-.6-.4-1.3-.6-2.7-.6-4.1,0-7.6,6.3-13.6,13.8-13.6,6,0,11.3,4,13,9.8,0,.2,.2,.4,.4,.4,.2,0,.4,0,.6,0,1.2-.7,2.5-1.1,3.9-1.1,4.2,0,7.7,3.4,7.7,7.7,0,.9-.2,1.8-.5,2.7,0,.2,0,.5,.1,.6,.1,.2,.4,.3,.6,.2h1.3c4.2-.4,7.9,2.7,8.2,7,.3,4.2-2.9,7.9-7.1,8.2-.4,0-.8,0-1.1,0h-10.1c-.4,0-.7,.3-.7,.6,0,.4,.3,.7,.7,.7h0Z"></path>
      <path class="r" d="M443.9,88.4v-2.6c0-2.5-3.2-3.5-4.6-3.8h0c.8-.9,1.2-2,1.2-3.2v-1.3c0-2.5-1.8-4.4-4.2-4.4-2.3,0-4.2,1.9-4.2,4.3,0,0,0,0,0,0v1.3c0,1.2,.5,2.4,1.4,3.3h0c-1.4,.5-3.9,1.6-3.9,3.7v2.6h1.5v-2.6c0-1.5,3-2.5,5.1-2.7h.7c1.9,0,5.7,1,5.7,2.7v2.6h1.5Zm-5-9.6c0,1.4-.9,2.6-2.2,2.9h-.7c-1.5-.2-2.5-1.4-2.5-2.9v-1.3c0-1.5,1.2-2.8,2.7-2.9h0c1.5,0,2.7,1.3,2.7,2.8h0v1.3Z"></path>
      <path class="r" d="M444.8,103.8v-2.5c0-2.5-3.2-3.5-4.6-3.8h0c.8-.9,1.2-2,1.2-3.2v-1.3c0-2.4-1.8-4.4-4.2-4.4h0c-2.3,0-4.2,2-4.2,4.4v1.3c0,1.2,.5,2.4,1.4,3.3h0c-1.4,.5-3.9,1.6-3.9,3.7v2.5h1.5v-2.5c0-1.5,3.1-2.5,5.1-2.7h.7c1.9,0,5.6,1,5.6,2.7v2.5h1.5Zm-4.9-9.6c0,1.4-.9,2.6-2.3,2.9h-.6c-1.4,0-2.5-1.4-2.5-2.9v-1.3c0-1.6,1.2-2.9,2.7-2.9,1.6,0,2.8,1.4,2.7,2.9v1.3Z"></path>
      <path class="r" d="M457.7,96.1v-2.5c0-2.5-3.2-3.6-4.6-3.9h0c.8-1,1.2-2.1,1.2-3.2v-1.2c0-2.5-1.8-4.4-4.2-4.4-2.4,0-4.3,2-4.2,4.4h0v1.3c0,1.3,.5,2.5,1.4,3.3h0c-1.4,.5-3.9,1.5-3.9,3.7v2.5h1.5v-2.5c0-1.5,3-2.5,5.1-2.7h.7c1.9,0,5.6,1,5.6,2.7v2.5h1.5Zm-5-9.6c0,1.4-.9,2.7-2.2,2.9h-.7c-1.5-.2-2.5-1.5-2.5-2.9v-1.2c0-1.6,1.2-2.9,2.7-2.9,1.5,0,2.7,1.3,2.7,2.9v1.3Z"></path>
      <path class="r" d="M431,96.1v-2.5c0-2.5-3.2-3.6-4.6-3.9h0c.8-.9,1.2-2.1,1.2-3.2v-1.2c0-2.4-1.8-4.4-4.2-4.4h0c-2.3,0-4.2,2-4.2,4.4v1.2c0,1.2,.5,2.4,1.4,3.3h0c-1.4,.5-3.9,1.5-3.9,3.7v2.5h1.5v-2.5c0-1.5,3.1-2.5,5.1-2.7h.7c1.9,0,5.6,1,5.6,2.7v2.5h1.5Zm-4.9-9.6c0,1.4-.9,2.6-2.3,2.9h-.6c-1.5-.2-2.5-1.5-2.5-2.9v-1.2c0-1.6,1.2-2.9,2.7-2.9,1.6,0,2.8,1.4,2.7,2.9v1.3Z"></path>
    </g>
    <circle class="n" cx="445.5" cy="304.1" r="10"></circle>
    <g>
      <path class="r" d="M440.9,305.7l2.1,2c.4,.4,1,.6,1.5,.6s1.2-.2,1.6-.7l3.9-4c.4-.4,.6-1,.6-1.6,0-.6-.2-1.1-.7-1.6-.9-.9-2.3-.8-3.1,0l-2.4,2.4-.5-.5c-.4-.4-1-.6-1.5-.6s-1.2,.2-1.6,.7c-.9,.9-.8,2.3,0,3.1Zm.9-2.2c.2-.2,.4-.3,.6-.3,.2,0,.5,0,.7,.3l.9,.9c.3,.2,.7,.2,.9,0l2.8-2.9c.2-.2,.4-.3,.6-.3h0c.2,0,.5,0,.6,.3,.2,.2,.3,.4,.3,.6,0,.2,0,.5-.3,.7l-3.9,4c-.2,.2-.4,.3-.6,.3h0c-.2,0-.5,0-.6-.3l-2.1-2c-.4-.4-.4-.9,0-1.3Z"></path>
      <path class="r" d="M438.5,310.8c1.8,1.8,4.2,2.8,6.8,2.8s5-1,6.8-2.8c1.8-1.8,2.8-4.2,2.8-6.8s-1-5-2.8-6.8c-3.7-3.7-9.8-3.7-13.6,0-2.6,2.6-3.5,6.3-2.4,9.7,.1,.3,.5,.5,.8,.4,.2,0,.3-.2,.4-.3s0-.3,0-.5c-1-3-.2-6.2,2-8.4,3.2-3.2,8.5-3.2,11.8,0,1.6,1.6,2.4,3.7,2.4,5.9s-.9,4.3-2.4,5.9c-1.6,1.6-3.7,2.4-5.9,2.4s-4.3-.9-5.9-2.4-.5-.6-.8-.9h0c-.1-.1-.3-.2-.4-.3,0,0,0,0,0,0-.1,0-.3,0-.4,.1-.1,.1-.2,.3-.3,.4,0,.2,0,.3,.1,.5,.3,.4,.6,.7,.9,1Z"></path>
      <path class="r" d="M459,322.5c.6,.6,1.5,1,2.4,1s1.8-.4,2.4-1c.6-.6,1-1.5,1-2.4,0-.9-.4-1.8-1-2.4h0l-4.7-4.7c-.3-.2-.7-.3-.9,0h-.1l-1.9-1.8h0c1.2-1.9,1.9-4.1,2.1-6.3,0-.4-.2-.7-.6-.7-.3,0-.7,.2-.7,.6-.2,2.8-1.4,5.5-3.4,7.5-2.2,2.2-5.1,3.4-8.3,3.4h0c-3.1,0-6-1.2-8.2-3.4-2.2-2.2-3.4-5.2-3.4-8.3s1.2-6.1,3.4-8.3c4.6-4.6,12-4.6,16.6,0,1.7,1.7,2.8,3.9,3.3,6.2,0,.3,.4,.6,.7,.5,.4,0,.6-.4,.5-.7-.5-2.6-1.7-5-3.6-6.9-.9-.9-2-1.7-3.1-2.3h0v-6.1c0-.2,0-.3-.2-.5l-9.2-9.2c-.1-.1-.3-.2-.5-.2h-25.1c-1.2,0-2.1,1-2.1,2.1v6.3c0,.4,.3,.6,.6,.6s.6-.3,.6-.6v-6.3c0-.5,.4-.8,.8-.8h24.4v7.1c0,1.2,1,2.1,2.1,2.1h7.1v4.8h-.1c-1.4-.6-2.9-.9-4.5-.9h-16.7c-.4,0-.6,.3-.6,.6s.3,.6,.6,.6h10.8l-.4,.2c-1.1,.6-2.1,1.3-3,2.1h-7.5c-.4,0-.6,.3-.6,.7s.3,.6,.6,.6h6.3v.2c-1.3,1.6-2.2,3.3-2.6,5.3h-3.8c-.4,0-.6,.4-.6,.7s.3,.6,.6,.6h3.6c0,.5,0,.9,0,1.3s0,.6,0,1h-3.5c-.4,.1-.6,.4-.6,.8s.3,.6,.6,.6h3.7c.4,2.1,1.2,4,2.5,5.6v.2h-6.2c-.4,0-.6,.3-.6,.6s.3,.6,.6,.6h7.5c.9,.9,1.9,1.6,2.9,2.1l.4,.2h-10.8c-.4,0-.6,.3-.6,.6s.3,.6,.6,.6h16.5c1.6,0,3.2-.3,4.6-.8h.1v8.8c0,.5-.4,.8-.8,.8h-32.8c-.5,0-.8-.4-.8-.8v-37.1c0-.4-.3-.6-.6-.6s-.6,.3-.6,.6v37.1c0,1.2,1,2.1,2.1,2.1h32.8c1.2,0,2.1-1,2.1-2.1v-9.5h0c.3-.2,.7-.4,1-.6h0l1.9,1.9h0c-.1,.2-.2,.4-.2,.5,0,.2,0,.4,.2,.5l4.7,4.7Zm-16-36.8c-.5,0-.8-.4-.8-.8v-6.2l7,7h-6.2Zm15.7,28.6h0l4.2,4.2c.4,.4,.6,.9,.6,1.5s-.2,1.1-.6,1.5c-.4,.4-.9,.6-1.5,.6h0c-.6,0-1.1-.2-1.5-.6l-4.2-4.2h0l2.9-3Zm-5.2-.2h0c.3-.3,.6-.6,.9-.9,.3-.3,.6-.6,.8-.9h0l1.8,1.7-1.9,1.9-1.8-1.8Z"></path>
      <path class="r" d="M419.4,295.1c0,.9,.7,1.6,1.6,1.6h3.3c.9,0,1.6-.7,1.6-1.6v-3.3c0-.9-.7-1.6-1.6-1.6h-3.3c-.9,0-1.6,.7-1.6,1.6v3.3Zm1.3-3.3c0-.2,.1-.3,.3-.3h3.3c.2,0,.3,.1,.3,.3v3.3c0,.2-.1,.3-.3,.3h-3.3c-.2,0-.3-.1-.3-.3v-3.3Z"></path>
      <path class="r" d="M419.4,305.5c0,.9,.7,1.6,1.6,1.6h3.3c.9,0,1.6-.7,1.6-1.6v-3.3c0-.9-.7-1.6-1.6-1.6h-3.3c-.9,0-1.6,.7-1.6,1.6v3.3Zm1.3-3.3c0-.2,.1-.3,.3-.3h3.3c.2,0,.3,.1,.3,.3v3.3c0,.2-.1,.3-.3,.3h-3.3c-.2,0-.3-.1-.3-.3v-3.3Z"></path>
      <path class="r" d="M419.4,316.2c0,.9,.7,1.6,1.6,1.6h3.3c.9,0,1.6-.7,1.6-1.6v-3.3c0-.9-.7-1.6-1.6-1.6h-3.3c-.9,0-1.6,.7-1.6,1.6v3.3Zm1.3-3.3c0-.2,.1-.3,.3-.3h3.3c.2,0,.3,.1,.3,.3v3.3c0,.2-.1,.3-.3,.3h-3.3c-.2,0-.3-.1-.3-.3v-3.3Z"></path>
    </g>
  </g>
</svg>
